<?xml version="1.0" encoding="utf-8"?>
<!-- Generator: Adobe Illustrator 28.4.1, SVG Export Plug-In . SVG Version: 6.00 Build 0)  -->
<svg version="1.1" id="Layer_4" xmlns="http://www.w3.org/2000/svg" xmlns:xlink="http://www.w3.org/1999/xlink" x="0px" y="0px"
	 viewBox="0 0 500 300" style="enable-background:new 0 0 500 300;" xml:space="preserve">
<style type="text/css">
	
		.st0{clip-path:url(#SVGID_00000093855322326787892860000012330513988301918606_);fill:url(#SVGID_00000005951871797854158070000006210320936309644955_);}
	.st1{opacity:3.000000e-02;clip-path:url(#SVGID_00000100343332429480004070000017338567173933836716_);}
	.st2{fill:#FFFFFF;}
	.st3{display:none;}
	.st4{display:inline;}
	.st5{display:none;clip-path:url(#SVGID_00000064318234533884018230000008316063127575012783_);}
	.st6{clip-path:url(#SVGID_00000072986148713347579050000005759083463393394091_);}
	.st7{fill-rule:evenodd;clip-rule:evenodd;fill:url(#SVGID_00000169524321549256308810000014555883193342459835_);}
	
		.st8{display:none;clip-path:url(#SVGID_00000098928159093365735260000002920926008456450193_);fill-rule:evenodd;clip-rule:evenodd;fill:url(#SVGID_00000079445388704977964930000015781876666317088414_);}
	.st9{opacity:0.59;clip-path:url(#SVGID_00000050629750260553181180000007019720654935139459_);}
	
		.st10{display:none;clip-path:url(#SVGID_00000056405403317577354250000002442154317209987225_);fill-rule:evenodd;clip-rule:evenodd;fill:url(#SVGID_00000096742533315309546600000014209068405982643359_);}
	.st11{fill:none;}
	.st12{display:inline;fill:#FFFFFF;}
	.st13{display:inline;fill:#1D1C25;stroke:url(#SVGID_00000120561001633623464910000010379394520209786778_);stroke-width:0.63;}
	.st14{display:inline;fill:url(#SVGID_00000084496607027643431530000001010779826705255555_);}
</style>
<g>
	<g>
		<g>
			<g>
				<g>
					<g>
						<defs>
							<rect id="SVGID_1_" y="0" width="500" height="300"/>
						</defs>
						<clipPath id="SVGID_00000143599372698709116760000016397038600860016556_">
							<use xlink:href="#SVGID_1_"  style="overflow:visible;"/>
						</clipPath>
						
							<linearGradient id="SVGID_00000044861882801904612810000007331011024857343133_" gradientUnits="userSpaceOnUse" x1="50" y1="-1370.1101" x2="450" y2="-970.1102" gradientTransform="matrix(1 0 0 -1 0 -1020.1102)">
							<stop  offset="0" style="stop-color:#882302"/>
							<stop  offset="0.8995" style="stop-color:#000105"/>
						</linearGradient>
						
							<rect y="0" style="clip-path:url(#SVGID_00000143599372698709116760000016397038600860016556_);fill:url(#SVGID_00000044861882801904612810000007331011024857343133_);" width="500" height="300"/>
					</g>
				</g>
				<g>
					<g>
						<defs>
							<rect id="SVGID_00000110432403247196029410000006634189102029401256_" y="0" width="500" height="300"/>
						</defs>
						<clipPath id="SVGID_00000148639891653707242230000004752082920373738898_">
							<use xlink:href="#SVGID_00000110432403247196029410000006634189102029401256_"  style="overflow:visible;"/>
						</clipPath>
						<g style="opacity:3.000000e-02;clip-path:url(#SVGID_00000148639891653707242230000004752082920373738898_);">
							<path class="st2" d="M635.5,48.5c0.7,0.1,1.5,0.3,2.2,0.3c29.2,0.7,60.3,20.3,69.3,54.5c1.7,6.3,2.5,12.7,2.5,19.3
								c0,47,0,94.1,0,141.1c0,0.6,0,1.2,0,2c-88.1,0-176,0-264.1,0c0-18.9,0-37.8,0-56.8c4.6-0.2,9.1-0.1,13.6-0.1
								c4.6,0,9.3,0,13.9,0c4.6,0,9.1,0,13.7,0c4.6,0,9.3,0,13.9,0c4.6,0,9.1,0,13.7,0c4.6,0,9.3,0,13.9,0c4.6,0,9.1,0,13.7,0
								c4.6,0,9.3,0,13.9,0c4.6,0,9.1,0,13.7,0c4.6,0,9.3,0,13.9,0c4.6,0,9.1,0,13.7,0c4.6,0,9.3,0,13.9,0c4.6,0,9.1,0,13.7,0
								c4.6,0,9.3,0,13.9,0c4.6,0,9.1,0,13.8,0c0-0.7,0.1-1.3,0.1-1.8c0-28,0-56,0-84c0-7-4-13.1-10.6-15.6
								c-6.8-2.7-13.1-1.5-18.4,3.6c-6,5.8-11.9,11.8-17.8,17.7c-23.2,23.1-46.4,46.3-69.5,69.5c-0.4,0.4-0.8,1-1,1.3
								c-13.6-13.6-27-26.9-40.3-40.3c-0.2,0.1-0.3,0.1-0.5,0.2c0.5-0.5,1-1.1,1.5-1.6c28.4-28.4,56.9-56.8,85.3-85.2
								c4.8-4.8,9.9-9.3,15.8-12.9c9.7-6,20.2-9.5,31.5-10.5c1.4-0.1,2.9-0.1,4.3-0.2c0.5,0,1.1-0.2,1.6-0.3
								C634.7,48.5,635.1,48.5,635.5,48.5z"/>
							<path class="st2" d="M280.7,49.2c0.7,0,1.4,0,2.1,0c86.6,0,173.2,0,259.8,0c0.8,0,1.6,0,2.5,0c0,19.1,0,37.9,0,56.9
								c-68.9,0-137.7,0-206.8,0c0,0.9-0.1,1.6-0.1,2.3c0,16.1,0,32.1,0,48.2c0,11.7,0.1,23.4,0,35c-0.1,10.2,8.5,18,18.5,17.3
								c3.4-0.2,6.4-1.5,9.1-3.6c0.8-0.7,1.6-1.4,2.3-2.2c27.7-27.6,55.4-55.3,83.1-83c0.5-0.5,0.9-1.2,1.2-1.6
								c13.7,13.7,27.1,27,40.5,40.5c-0.1,0.2-0.4,0.5-0.8,0.9c-28.5,28.5-56.9,57-85.5,85.3c-11.5,11.4-25.5,18.3-41.7,20.4
								c-29,3.9-60.4-10.6-75.2-38.2c-4.6-8.5-7.3-17.6-8.3-27.2c-0.1-1-0.4-1.9-0.7-2.9C280.7,147.9,280.7,98.6,280.7,49.2z"/>
							<path class="st2" d="M1172.8,116.3c-0.1,0.6-0.3,1.2-0.3,1.8c-0.6,11.8-9,28.7-27.6,32.5c-14,2.9-25.5-1.9-34.2-13.2
								c-6-7.8-8.2-16.9-7.5-26.6c0.5-8,3.2-15.2,8.2-21.5c14.1-17.6,40.2-17.2,53.7,1c4.3,5.8,7,12.4,7.3,19.7
								c0,0.5,0.2,0.9,0.3,1.4C1172.8,113.1,1172.8,114.7,1172.8,116.3z M1158.9,113.9c-0.1-5.6-1.3-10.9-4.5-15.6
								c-7.8-11.4-23.4-11.9-32-1.2c-3.2,4-4.8,8.7-5.3,13.8c-0.6,6.7,0.6,13.1,4.6,18.7c8.2,11.7,24.5,11.6,32.7-0.2
								C1157.5,124.8,1158.7,119.5,1158.9,113.9z"/>
							<path class="st2" d="M919,174.2c0-4.3,0-8.4,0-12.7c0.8,0.2,1.4,0.4,2.1,0.6c5.4,1.4,9.4-0.2,11.8-4.8c1.6-3,2.7-6.3,4-9.5
								c0.2-0.5-0.1-1.3-0.3-1.9c-2.9-7.3-5.9-14.6-8.9-21.9c-4.1-10.2-8.3-20.4-12.4-30.5c-0.3-0.6-0.5-1.2-0.8-1.7
								c-3.9,0-7.6-0.3-11.2,0.1c-8.1,0.8-13.6,6.1-15,14.1c-0.3,2-0.5,4.1-0.5,6.1c0,11.8,0,23.6,0,35.4c0,0.7,0,1.4,0,2.3
								c-4.6,0.1-9.1,0-13.5,0c-0.4-1.5-0.6-68.2-0.2-71.6c1.3-0.4,7.2-0.5,10.4-0.2c0.9,2.9,1.8,5.9,2.9,9.4
								c0.5-0.7,0.9-1.3,1.3-1.7c3.6-3.7,7.8-6.5,12.9-7.5c1.3-0.3,2.7-0.4,4.1-0.4c5.4,0,10.9,0,16.3,0c1.8,0,1.9,0,2.5,1.8
								c6.2,15.9,12.3,31.8,18.5,47.7c0.3,0.7,0.6,1.4,1,2.5c6.7-17.5,13.2-34.6,19.7-51.8c4.8,0,9.4,0,14.3,0
								c-0.3,0.8-0.4,1.3-0.7,1.9c-9.9,24.9-19.9,49.9-29.9,74.8c-1.4,3.5-3.2,6.9-4.9,10.3c-0.9,1.6-2,3.1-3.2,4.6
								c-4.7,5.6-10.8,7.1-17.8,5.5C920.7,174.9,919.9,174.5,919,174.2z"/>
							<path class="st2" d="M848.7,114.9c4.7,0,9.5,0,14.5,0c0,0.4,0,0.7-0.1,0.9c-3.9,14.7-12.2,26.1-26.4,32.1
								c-15.8,6.7-30.8,4.2-44.4-6.1c-10-7.6-16-17.9-18.4-30.2c-2.7-13.7-0.9-26.9,6.2-39.1c6.5-11.1,15.9-18.7,28.4-22.1
								c17.8-4.8,35.8,2,46.4,17.3c3.8,5.4,6.6,12,7.6,17.6c-1.3,0.4-11.9,0.5-14.7,0.2c-0.4-1.1-0.8-2.3-1.3-3.5
								c-3-7.2-7.6-13.2-14.8-16.5c-10.5-4.8-20.5-3.3-29.7,3.4c-6.2,4.5-10.3,10.7-12.5,18c-3.3,10.8-2.8,21.4,2,31.6
								c4,8.6,10.5,14.8,19.6,17.7c12.4,3.9,26.3-0.2,33.9-13.4C846.4,120.3,847.4,117.6,848.7,114.9z"/>
							<path class="st2" d="M812.2,166.9c4.6,0,9,0,13.6,0c12.5,33.1,25,66.1,37.5,99.4c-2.8,0-5.4,0-7.9,0c-2.5,0-5,0-7.7,0
								c-2.8-7.8-5.7-15.5-8.5-23.4c-13.7,0-27.2,0-41,0c-2.8,7.7-5.7,15.5-8.5,23.3c-5,0-9.9,0-15,0
								C787.2,233,799.6,200,812.2,166.9z M818.9,188.1c-0.1,0-0.3,0-0.4,0c-5,13.6-10,27.2-15.1,40.9c10.3,0,20.3,0,30.6,0
								C828.9,215.3,823.9,201.7,818.9,188.1z"/>
							<path class="st2" d="M986.3,78c3.5,0,6.8,0,10.4,0c0.8,2.6,1.6,5.2,2.5,8.1c0.6-0.5,1-0.9,1.4-1.2c5.2-4.8,11.1-7.9,18.2-8.4
								c8.6-0.7,16.2,1.9,22.7,7.5c6.5,5.6,10.4,12.7,12,21.1c1.9,9.7,0.9,19.2-3.6,28.1c-3.7,7.3-9.2,12.8-16.8,15.9
								c-11.4,4.6-21.8,2.8-31.2-5.1c-0.5-0.4-0.9-0.8-1.4-1.2c0,0-0.1,0-0.4,0.1c0,5.3,0,10.6,0,16c0,5.3,0,10.6,0,15.9
								c-1.5,0.5-11.9,0.5-13.7,0.1C986.3,142.6,986.3,110.4,986.3,78z M1000.1,113.9c0,0.8-0.1,1.6,0,2.4
								c0.5,5.9,2.3,11.3,6.4,15.6c5.2,5.5,11.5,7.6,18.9,5.6c5.4-1.5,9.2-5.1,11.9-10c1.9-3.4,2.9-7.2,3.2-11.1
								c0.5-7.1-0.8-13.7-5.2-19.4c-3.1-4-7.1-6.7-12.2-7.4c-7.4-1-13.4,1.8-17.9,7.6C1001.4,102.2,1000,107.8,1000.1,113.9z"/>
							<path class="st2" d="M1055.4,232.4c-0.2,9.9-4.4,20.1-13.8,27.8c-6.8,5.6-14.8,8.3-23.5,7.4c-13.4-1.3-22.9-8.5-28.6-20.5
								c-6.6-13.9-4.4-31,5.3-42.3c7.5-8.8,17.2-13,28.8-12c9.4,0.8,17.2,5.1,23.2,12.4C1052.7,212.5,1055.4,221,1055.4,232.4z
								 M999.5,229.5c0,6.5,1.3,11.9,4.8,16.6c5,6.7,11.8,9.8,20.2,8.1c6.7-1.3,11.3-5.5,14.3-11.6c2.6-5.3,3.1-11,2.4-16.8
								c-0.6-4.7-2.3-9-5.4-12.8c-8-9.6-22.2-9.7-30.3-0.2C1001.2,217.9,999.6,223.8,999.5,229.5z"/>
							<path class="st2" d="M918.7,266.1c-0.8-2.6-1.5-5.2-2.3-8c-0.3,0.3-0.5,0.4-0.7,0.5c-12.7,14.7-36.8,10.9-45.2-6.3
								c-2.5-5-3.6-10.4-3.6-15.9c-0.1-13.6,0-27.2,0-40.9c0-0.4,0-0.7,0.1-1.2c4.6,0,9,0,13.7,0c0,0.8,0,1.5,0,2.2
								c0,12.6,0,25.2,0,37.9c0,2.8,0.2,5.6,1.1,8.3c2.5,8.1,9.7,13,18.9,11.7c8.9-1.2,13.6-7.8,14.5-15.8c0.2-1.4,0.2-2.9,0.2-4.3
								c0-12.6,0-25.1,0-37.7c0-0.7,0-1.5,0-2.3c4.7,0,9.2,0,13.9,0c0,23.9,0,47.7,0,71.7C925.7,266.1,922.3,266.1,918.7,266.1z"/>
							<path class="st2" d="M1114.5,216.2c-4.5,0-8.9,0-13.3,0c-0.1-0.5-0.3-1-0.4-1.6c-1-5.5-4-8.5-9.5-9.3
								c-3.2-0.5-6.5-0.3-9.5,1.2c-1.9,0.9-3.3,2.2-4,4.2c-0.9,2.8-0.6,5.4,1.7,7.4c1.5,1.3,3.3,2.4,5.1,3.1
								c3.5,1.4,7.2,2.5,10.8,3.8c2.6,0.9,5.2,1.9,7.7,3c1.5,0.6,2.9,1.5,4.2,2.4c6.1,4.1,8.8,9.9,8.3,17.1
								c-0.5,7.9-4.4,13.8-11.6,17.1c-9.8,4.6-19.8,4.5-29.4-0.6c-7.1-3.8-11.3-9.8-12.7-17.8c-0.1-0.8-0.1-1.7-0.2-2.7
								c4.6,0,9,0,13.5,0c0.1,0.3,0.3,0.7,0.3,1c0.7,5.5,3.9,8.8,9.1,10.2c3.5,0.9,7.1,0.9,10.5-0.2c3.2-1,5.7-2.9,6.4-6.4
								c0.6-2.7-0.1-4.9-2.1-6.8c-1.5-1.5-3.3-2.5-5.2-3.2c-3.2-1.2-6.4-2.2-9.5-3.4c-2.7-1-5.4-1.9-8.1-3c-1.4-0.6-2.8-1.4-4.2-2.2
								c-11.6-6.8-10.7-20.7-5-27.8c2.3-2.9,5.1-5.2,8.5-6.6c8.4-3.4,16.9-3.6,25.1,0.3c7.9,3.7,12.3,10.2,13.4,18.8
								C1114.6,214.9,1114.5,215.5,1114.5,216.2z"/>
							<path class="st2" d="M1070.3,59.6c4.1,0,8,0,12,0c0,6.1,0,12.1,0,18.3c5.3,0,10.5,0,15.8,0c0.2,4.4,0.1,8.5,0.1,12.8
								c-5.4,0-10.5,0-15.8,0c0,0.7-0.1,1.3-0.1,1.8c0,11.4,0,22.7,0,34.1c0,1.8,0.3,3.6,0.8,5.3c1,3.5,3.5,5.5,7.1,6.1
								c2.7,0.5,5.2,0.1,7.7-1.1c0.4,1.3,0.6,8.9,0.2,12.8c-3,1.2-6.1,1.7-9.4,1.5c-10.9-0.7-17.6-8-19.5-17.6
								c-0.5-2.3-0.6-4.7-0.7-7.1c-0.1-11.2,0-22.4,0-33.5c0-0.7,0-1.5,0-2.4c-4.1,0-7.9,0-11.9,0c0-4.2,0-8.1,0-12.3
								c0.8,0,1.6-0.1,2.4-0.1c1.9-0.1,3.8,0,5.6-0.2c3.5-0.5,5.5-2.7,5.6-6.4c0.1-3.2,0-6.5,0.1-9.7
								C1070.3,61.3,1070.3,60.5,1070.3,59.6z"/>
							<path class="st2" d="M980.8,253.5c0,4.3,0,8.4,0,12.8c-3.5,1.4-7,1.9-10.8,1.4c-11.4-1.5-17.1-9.7-18.4-18.6
								c-0.3-2-0.4-4.1-0.4-6.2c0-11.2,0-22.4,0-33.6c0-0.7,0-1.3,0-2.2c-4,0-7.9,0-11.7,0c-0.4-1.5-0.5-9.6-0.2-12.4
								c1.8,0,3.6,0,5.3,0c1.2,0,2.4-0.1,3.5-0.4c2.6-0.6,4.1-2.4,4.5-4.9c0.2-1,0.2-2,0.3-3c0-2.8,0-5.6,0-8.4c0-0.6,0-1.2,0-1.9
								c4,0,7.9,0,11.9,0c0,3,0,6,0,9c0,3,0,6,0,9.2c5.3,0.1,10.5,0,15.6,0c0.4,1.3,0.5,9.5,0.2,12.7c-5.2,0-10.4,0-15.8,0
								c0,0.9,0,1.6,0,2.3c0,10.9,0,21.9,0,32.8c0,1.9,0.2,3.8,0.6,5.6c1,4.4,4.3,6.9,8.8,7c1.9,0.1,3.7-0.1,5.5-1
								C980.1,253.6,980.4,253.5,980.8,253.5z"/>
						</g>
					</g>
				</g>
			</g>
		</g>
	</g>
	<g>
		<g class="st3">
			<g class="st4">
				<g>
					<g>
						<defs>
							<rect id="SVGID_00000083076900039625500950000006360280303594481539_" y="0" width="500" height="300"/>
						</defs>
						<clipPath id="SVGID_00000155849200144244303370000002871173746822820251_">
							<use xlink:href="#SVGID_00000083076900039625500950000006360280303594481539_"  style="overflow:visible;"/>
						</clipPath>
						<g style="display:none;clip-path:url(#SVGID_00000155849200144244303370000002871173746822820251_);">
							<g class="st4">
								<g>
									<g>
										<g>
											<g>
												<g>
													<defs>
														
															<rect id="SVGID_00000073689347772239233660000007337780258892189324_" x="181.8" y="108.3" width="172.3" height="62.3"/>
													</defs>
													<clipPath id="SVGID_00000119812349545633498520000015816208575064357294_">
														<use xlink:href="#SVGID_00000073689347772239233660000007337780258892189324_"  style="overflow:visible;"/>
													</clipPath>
													<g style="clip-path:url(#SVGID_00000119812349545633498520000015816208575064357294_);">
														
															<linearGradient id="SVGID_00000081609584885217834500000011577122929056110218_" gradientUnits="userSpaceOnUse" x1="204.4565" y1="-1945.5817" x2="234.7588" y2="-1918.0167" gradientTransform="matrix(1 0 0 -1 0 -1798.1101)">
															<stop  offset="0" style="stop-color:#15BCFF"/>
															<stop  offset="0.4854" style="stop-color:#3073EC"/>
															<stop  offset="1" style="stop-color:#B030EC"/>
														</linearGradient>
														
															<path style="fill-rule:evenodd;clip-rule:evenodd;fill:url(#SVGID_00000081609584885217834500000011577122929056110218_);" d="
															M181.8,139.5c0,17.2,14.1,31.2,31.4,31.2c4.4,0,8.6-0.9,12.5-2.6c-1.6-0.2-3.1-0.4-4.5-0.7c-3.3-0.7-6.4-1.8-9.1-3.3
															c-5.8-3-9.8-7.5-12.2-13.3h-10.5l3.2-7.5h5.4c-0.2-1.6-0.3-3-0.3-4.4s0-2.7,0.1-3.8h-8.5l3.2-7.4h6.8
															c2.2-6.3,6.1-11.1,12-14.5c3-1.8,6.3-3,9.8-3.8c-2.5-0.7-5.2-1-7.9-1C195.9,108.3,181.8,122.2,181.8,139.5z
															 M231.7,114.3c-9.6,1.2-19.2,5.2-22.8,13.4H238l-3.2,7.4h-27.7c-0.1,1.1-0.2,2.4-0.2,4s0.1,3,0.4,4.2H231l-3.2,7.5
															h-17.5c4,6.5,14.1,10.7,24.7,11.2c6-5.7,9.7-13.7,9.7-22.5C244.6,129.1,239.5,120,231.7,114.3z"/>
														<path class="st2" d="M266.7,152.5c-1.7,0-3.1-0.4-4.4-1.1c-1.3-0.7-1.9-2.2-1.9-4.5v-14.3c0-2.1,0.6-3.6,1.7-4.5
															c1.2-0.9,2.6-1.4,4.2-1.4c3.6,0,7.3,0.1,11.1,0.4v4.3h-9.6c-1.5,0-2.3,0.7-2.3,2.1v3.7l10.2,0.3v4l-10.2,0.3v3.5
															c0,1.5,0.7,2.3,2.2,2.3h9.7v4.3C274.4,152.3,270.8,152.5,266.7,152.5z"/>
														<path class="st2" d="M294.5,152.5c-3.2,0-5.7-0.6-7.5-1.8c-1.7-1.2-2.6-3.4-2.6-6.6v-17.4h5.2V144
															c0,1.4,0.4,2.3,1.2,2.9c0.8,0.6,2.1,0.9,3.7,0.9s2.8-0.3,3.7-0.9c0.8-0.6,1.2-1.6,1.2-2.9v-17.3h5.2v17.4
															c0,3.2-0.9,5.4-2.6,6.6C300.1,151.9,297.7,152.5,294.5,152.5z"/>
														<path class="st2" d="M312.1,126.7h10.7c2.3,0,4.1,0.6,5.4,1.8c1.3,1.2,2,3.3,2,6.4c0,2.1-0.4,3.7-1.1,4.8
															c-0.7,1-1.7,1.8-3,2.4l4.8,10.3h-5.3l-4.1-9.5c-1.1,0-2.5,0-4.2-0.1v9.6h-5.2L312.1,126.7L312.1,126.7z M321.9,138.7
															c1,0,1.8-0.3,2.3-0.8c0.5-0.6,0.8-1.6,0.8-3s-0.3-2.3-0.8-2.8s-1.3-0.8-2.3-0.8h-4.6v7.4L321.9,138.7L321.9,138.7z"/>
														<path class="st2" d="M345.2,152.5c-1.3,0-2.7-0.1-4.3-0.2c-1.5-0.2-2.8-0.4-3.8-0.6v-4c2.1,0.2,4.7,0.3,7.8,0.3
															c1.4,0,2.5-0.2,3.2-0.6c0.7-0.4,1.1-1.1,1.1-2v-1c0-0.8-0.2-1.3-0.7-1.7c-0.4-0.4-1.1-0.6-1.9-0.6h-2.2
															c-2.6,0-4.5-0.6-5.7-1.7c-1.3-1.1-1.9-2.9-1.9-5.4v-1.2c0-4.8,2.8-7.2,8.3-7.2c1.3,0,2.6,0.1,4,0.3s2.6,0.4,3.8,0.6v4
															c-3.2-0.2-5.6-0.3-7.2-0.3c-1.3,0-2.3,0.2-3,0.6c-0.7,0.4-1,1.1-1,2.2v0.7c0,0.9,0.2,1.5,0.7,1.9s1.3,0.6,2.3,0.6h2.5
															c2.2,0,3.9,0.6,5.1,1.8s1.8,2.8,1.8,4.7v1.5c0,1.9-0.4,3.4-1.1,4.5s-1.7,1.8-3,2.2
															C348.8,152.3,347.1,152.5,345.2,152.5z"/>
													</g>
												</g>
											</g>
										</g>
									</g>
								</g>
							</g>
							<g class="st4">
								<g>
									<g>
										<g>
											<g>
												<g>
													<defs>
														
															<rect id="SVGID_00000111193591420634099590000009698205145793392019_" x="181.8" y="108.3" width="172.3" height="62.3"/>
													</defs>
													<clipPath id="SVGID_00000027574612430053275070000013922482514500530604_">
														<use xlink:href="#SVGID_00000111193591420634099590000009698205145793392019_"  style="overflow:visible;"/>
													</clipPath>
													
														<linearGradient id="SVGID_00000165211417616983611910000004652462279570849462_" gradientUnits="userSpaceOnUse" x1="204.5893" y1="-1944.5282" x2="234.3403" y2="-1917.6918" gradientTransform="matrix(1 0 0 -1 0 -1798.1101)">
														<stop  offset="0" style="stop-color:#15BCFF"/>
														<stop  offset="0.4854" style="stop-color:#3073EC"/>
														<stop  offset="1" style="stop-color:#B030EC"/>
													</linearGradient>
													
														<path style="display:none;clip-path:url(#SVGID_00000027574612430053275070000013922482514500530604_);fill-rule:evenodd;clip-rule:evenodd;fill:url(#SVGID_00000165211417616983611910000004652462279570849462_);" d="
														M182.6,138.6c0,16.9,13.7,30.6,30.6,30.6c4.3,0,8.4-0.9,12.1-2.5c-1.6-0.2-3.1-0.4-4.4-0.7c-3.2-0.7-6.2-1.8-8.9-3.2
														c-5.6-3-9.6-7.4-11.9-13.1H190l3.1-7.3h5.3c-0.2-1.5-0.3-3-0.3-4.3c0-1.4,0-2.7,0.1-3.8H190l3.1-7.3h6.6
														c2.1-6.2,6-10.9,11.7-14.3c2.9-1.7,6.1-3,9.6-3.8c-2.5-0.6-5.1-1-7.7-1C196.3,108,182.6,121.7,182.6,138.6z
														 M231.3,113.9c-9.4,1.2-18.8,5.1-22.2,13.1h28.3l-3.1,7.3h-27c-0.1,1.1-0.2,2.4-0.2,4s0.1,2.9,0.4,4.1h23.1l-3.1,7.3
														h-17c3.9,6.4,13.7,10.5,24,11c5.8-5.6,9.4-13.4,9.4-22.1C243.8,128.5,238.9,119.5,231.3,113.9z"/>
												</g>
											</g>
										</g>
									</g>
								</g>
							</g>
						</g>
					</g>
				</g>
			</g>
		</g>
	</g>
	<g>
		<g>
			<g>
				<g>
					<g>
						<defs>
							<rect id="SVGID_00000156552854013783646320000003830784188701730456_" y="0" width="500" height="300"/>
						</defs>
						<clipPath id="SVGID_00000027604702327176105120000001043338647049169831_">
							<use xlink:href="#SVGID_00000156552854013783646320000003830784188701730456_"  style="overflow:visible;"/>
						</clipPath>
						<g style="opacity:0.59;clip-path:url(#SVGID_00000027604702327176105120000001043338647049169831_);">
							<g>
								<g>
									<g>
										<g>
											<g>
												<g>
													<defs>
														
															<rect id="SVGID_00000088110747497172088770000006633227031379444122_" x="324.2" y="17" width="745.5" height="269.6"/>
													</defs>
													<clipPath id="SVGID_00000165225939948300701320000011304005371974567315_">
														<use xlink:href="#SVGID_00000088110747497172088770000006633227031379444122_"  style="overflow:visible;"/>
													</clipPath>
													
														<linearGradient id="SVGID_00000031205761282054929640000014863532307142546098_" gradientUnits="userSpaceOnUse" x1="422.6938" y1="-1980.0638" x2="551.416" y2="-1863.9524" gradientTransform="matrix(1 0 0 -1 0 -1798.1101)">
														<stop  offset="0" style="stop-color:#15BCFF"/>
														<stop  offset="0.4854" style="stop-color:#3073EC"/>
														<stop  offset="1" style="stop-color:#B030EC"/>
													</linearGradient>
													
														<path style="display:none;clip-path:url(#SVGID_00000165225939948300701320000011304005371974567315_);fill-rule:evenodd;clip-rule:evenodd;fill:url(#SVGID_00000031205761282054929640000014863532307142546098_);" d="
														M327.6,148.1c0,73.1,59.3,132.4,132.4,132.4c18.6,0,36.3-3.9,52.4-10.8c-6.9-0.9-13.4-1.7-19-3
														c-13.8-3-26.8-7.8-38.5-13.8c-24.2-13-41.5-32-51.5-56.7h-43.7l13.4-31.6H396c-0.9-6.5-1.3-13-1.3-18.6
														c0-6.1,0-11.7,0.4-16.4h-35.5L373,98h28.6c9.1-26.8,26-47.2,50.6-61.9c12.5-7.4,26.4-13,41.5-16.4
														c-10.8-2.6-22.1-4.3-33.3-4.3C386.9,15.7,327.6,75,327.6,148.1z M538.3,41.3C497.6,46.5,457,63.4,442.2,98h122.4
														l-13.4,31.6H434.5c-0.4,4.8-0.9,10.4-0.9,17.3s0.4,12.5,1.7,17.7h99.9l-13.4,31.6h-73.6
														c16.9,27.7,59.3,45.4,103.8,47.6c25.1-24.2,40.7-58,40.7-95.6C592.4,104.4,571.2,65.5,538.3,41.3z"/>
												</g>
											</g>
										</g>
									</g>
								</g>
							</g>
						</g>
					</g>
				</g>
			</g>
		</g>
	</g>
	<rect y="0" class="st11" width="500" height="300"/>
</g>
<g class="st3">
	<path class="st12" d="M204.6,163.3c-1.7,0-3.3-0.3-4.7-0.9c-1.4-0.6-2.4-1.5-3.2-2.6s-1.2-2.4-1.2-3.8h3.7c0.1,1.2,0.6,2.3,1.5,3.1
		s2.2,1.2,3.9,1.2s2.9-0.4,3.9-1.2s1.4-1.9,1.4-3.2c0-1-0.3-1.8-0.8-2.5c-0.6-0.6-1.2-1.1-2.1-1.4s-2-0.7-3.4-1.1
		c-1.7-0.4-3.1-0.9-4.2-1.4c-1-0.4-1.9-1.2-2.7-2.1c-0.7-1-1.1-2.3-1.1-3.9c0-1.4,0.4-2.7,1.1-3.8c0.7-1.1,1.8-2,3.1-2.6
		s2.9-0.9,4.6-0.9c2.5,0,4.5,0.6,6.1,1.9c1.6,1.2,2.5,2.9,2.7,4.9h-3.8c-0.1-1-0.7-1.9-1.6-2.6c-0.9-0.8-2.2-1.2-3.7-1.2
		c-1.4,0-2.6,0.4-3.5,1.1c-0.9,0.7-1.4,1.8-1.4,3.1c0,1,0.3,1.7,0.8,2.4c0.6,0.6,1.2,1.1,2,1.4c0.8,0.3,1.9,0.7,3.4,1.1
		c1.7,0.5,3.1,1,4.2,1.4c1.1,0.4,2,1.2,2.7,2.2c0.8,1,1.1,2.3,1.1,3.9c0,1.3-0.3,2.5-1,3.6s-1.7,2.1-3,2.8S206.4,163.3,204.6,163.3
		L204.6,163.3z M221.9,146.1c0.7-1.2,1.7-2.2,3-3c1.4-0.8,2.9-1.2,4.7-1.2s3.5,0.4,5,1.3c1.5,0.9,2.7,2.1,3.6,3.8
		c0.9,1.6,1.3,3.4,1.3,5.6s-0.4,4-1.3,5.6s-2.1,2.9-3.6,3.8c-1.5,0.9-3.2,1.4-5,1.4s-3.3-0.4-4.7-1.2c-1.3-0.8-2.4-1.8-3.1-3v13.7
		h-3.4v-30.6h3.4v3.8L221.9,146.1L221.9,146.1z M236,152.6c0-1.6-0.3-2.9-0.9-4.1c-0.6-1.2-1.5-2.1-2.6-2.6
		c-1.1-0.6-2.2-0.9-3.5-0.9s-2.4,0.3-3.5,0.9c-1.1,0.6-1.9,1.5-2.6,2.7c-0.6,1.2-0.9,2.5-0.9,4.1s0.3,2.9,0.9,4.1
		c0.7,1.2,1.5,2.1,2.6,2.7c1.1,0.6,2.3,0.9,3.5,0.9s2.5-0.3,3.5-0.9c1.1-0.6,1.9-1.5,2.6-2.7C235.6,155.6,236,154.2,236,152.6
		L236,152.6z M263,151.9c0,0.7,0,1.4-0.1,2.1h-16.6c0.1,2.1,0.8,3.6,2.1,4.8c1.3,1.1,2.8,1.7,4.7,1.7c1.5,0,2.7-0.3,3.7-1
		s1.7-1.6,2.1-2.8h3.7c-0.6,2-1.7,3.6-3.3,4.9c-1.7,1.2-3.7,1.9-6.2,1.9c-2,0-3.7-0.4-5.3-1.3c-1.5-0.9-2.8-2.1-3.6-3.8
		c-0.9-1.6-1.3-3.5-1.3-5.7s0.4-4,1.3-5.6c0.9-1.6,2.1-2.9,3.6-3.7c1.6-0.9,3.4-1.3,5.4-1.3s3.7,0.4,5.2,1.3s2.7,2.1,3.5,3.6
		C262.6,148.3,263,150,263,151.9L263,151.9z M259.4,151.1c0-1.3-0.3-2.4-0.9-3.4s-1.4-1.7-2.4-2.2s-2.1-0.8-3.3-0.8
		c-1.7,0-3.2,0.6-4.5,1.7c-1.2,1.1-1.9,2.6-2.1,4.6L259.4,151.1L259.4,151.1z M266.2,152.6c0-2.1,0.4-4,1.3-5.6s2-2.9,3.6-3.8
		c1.5-0.9,3.3-1.3,5.3-1.3c2.5,0,4.6,0.6,6.3,1.9c1.7,1.2,2.8,3,3.3,5.1h-3.7c-0.4-1.3-1-2.3-2.1-3c-1-0.7-2.3-1.1-3.8-1.1
		c-2,0-3.6,0.7-4.8,2.1c-1.2,1.3-1.8,3.2-1.8,5.7s0.6,4.4,1.8,5.8c1.2,1.4,2.8,2.1,4.8,2.1c1.5,0,2.8-0.4,3.8-1.1
		c1-0.7,1.7-1.7,2.1-3h3.7c-0.6,2.1-1.7,3.8-3.3,5.1c-1.7,1.3-3.8,1.9-6.2,1.9c-2,0-3.7-0.4-5.3-1.3c-1.5-0.9-2.7-2.1-3.6-3.8
		S266.2,154.8,266.2,152.6L266.2,152.6z M294.7,145.1v12.2c0,1,0.2,1.7,0.6,2.2c0.4,0.4,1.2,0.6,2.2,0.6h2.5v2.9h-3
		c-1.9,0-3.4-0.4-4.3-1.3c-1-0.9-1.4-2.3-1.4-4.4v-12.2h-2.7v-2.8h2.7V137h3.5v5.2h5.4v2.8h-5.5L294.7,145.1L294.7,145.1z
		 M307.8,145.6c0.6-1.2,1.5-2.1,2.6-2.8s2.5-1,4.1-1v3.6h-0.9c-3.9,0-5.8,2.1-5.8,6.3V163h-3.5v-20.8h3.5L307.8,145.6L307.8,145.6z
		 M337.4,151.9c0,0.7,0,1.4-0.1,2.1h-16.6c0.1,2.1,0.8,3.6,2.1,4.8c1.3,1.1,2.8,1.7,4.7,1.7c1.5,0,2.7-0.3,3.7-1s1.7-1.6,2.1-2.8
		h3.7c-0.6,2-1.7,3.6-3.3,4.9c-1.7,1.2-3.7,1.9-6.2,1.9c-2,0-3.7-0.4-5.3-1.3c-1.5-0.9-2.8-2.1-3.6-3.8c-0.9-1.6-1.3-3.5-1.3-5.7
		s0.4-4,1.3-5.6s2.1-2.9,3.6-3.7c1.6-0.9,3.4-1.3,5.4-1.3s3.7,0.4,5.2,1.3c1.5,0.9,2.7,2.1,3.5,3.6C337,148.3,337.4,150,337.4,151.9
		L337.4,151.9z M333.8,151.1c0-1.3-0.3-2.4-0.9-3.4s-1.4-1.7-2.4-2.2s-2.1-0.8-3.3-0.8c-1.7,0-3.2,0.6-4.5,1.7
		c-1.2,1.1-1.9,2.6-2.1,4.6L333.8,151.1L333.8,151.1z M367.7,157.1h-11.5L354,163h-3.6l9.5-26.2h4l9.5,26.2h-3.6L367.7,157.1z
		 M366.7,154.4l-4.8-13.3l-4.8,13.3H366.7L366.7,154.4z M381,136.6V163h-3.5v-26.4H381z"/>
	
		<linearGradient id="SVGID_00000018917101245404780250000006714505976202710153_" gradientUnits="userSpaceOnUse" x1="-446.8523" y1="2532.113" x2="-383.1123" y2="2575.7329" gradientTransform="matrix(1 0 0 1 564 -2403.8899)">
		<stop  offset="0" style="stop-color:#917EFE"/>
		<stop  offset="1" style="stop-color:#FFFFFF"/>
	</linearGradient>
	
		<circle style="display:inline;fill:#1D1C25;stroke:url(#SVGID_00000018917101245404780250000006714505976202710153_);stroke-width:0.63;" cx="149.7" cy="150.5" r="30.7"/>
	
		<linearGradient id="SVGID_00000054957511834891014180000003113659254933189043_" gradientUnits="userSpaceOnUse" x1="-414.5114" y1="2536.3499" x2="-414.5014" y2="2566.3501" gradientTransform="matrix(1 0 0 1 564 -2403.8899)">
		<stop  offset="0" style="stop-color:#917EFE"/>
		<stop  offset="1" style="stop-color:#FFFFFF"/>
	</linearGradient>
	<path style="display:inline;fill:url(#SVGID_00000054957511834891014180000003113659254933189043_);" d="M143.9,163
		c-1-1.8-2.4-3.2-4-4.5C141.8,158.8,144,161.3,143.9,163z M154.6,163c1-1.8,2.4-3.2,3.9-4.5C156.7,158.9,154.6,161.2,154.6,163z
		 M158.9,142.5c-0.7-1.2-1.2-2.4-1.5-3.7C156.8,139.9,157.8,142.1,158.9,142.5z M141.8,138.9c-0.5,1.1-1,2.4-1.4,3.6
		C141.6,141.9,142.2,140,141.8,138.9z M163,150.1c-0.4,6.8-9.3,7.9-9.1,14.1c-0.9-0.8-1.2-1.9-0.8-3.1c0,0,0,0-0.1,0
		c-0.7,1.4-1.1,3-0.8,4.5c0.1,0.4-0.1,0.2-0.3,0l0,0c-0.4-0.7-0.6-1.5-0.7-2.2h-0.1c-0.6,1.8-0.7,3.7-1.6,5.4
		c-0.4-1.6-1-3.1-1.3-4.7c-0.1-0.2-0.3-0.8-0.3-0.8s-0.1,0.6-0.1,0.8c0.1,0.8-0.4,1.4-0.8,1.9c-0.2-1.2-0.1-2.5-0.4-3.7l0,0
		c-0.1-0.1-0.3-0.6-0.4-0.8c0.1,1-0.2,2-1,2.8c0.2-4.8-5-6.5-7.4-9.8c-2.5-3.5-2.9-9.4,0.9-12.1c-1.4,2.2-0.9,4.8,0.4,6.9
		c0.1,0.1,0.3,0.3,0.3,0.1c-0.7-1.5-0.4-3.2,0.4-4.6c2.2-2.1,2.9-5,3.4-8.1c1.8,2.6,0.9,6-0.6,8.4l0,0c0,0.1-0.1,0.1-0.1,0.2
		c4.2-2.3,5.4-8.4,6.8-12.8c1.2,4,2.2,8,4.9,11.3c0.6,0.6,1.3,1.1,1.9,1.6c-1.4-2.6-2.3-5.8-0.9-8.6c0.1,0,0.1,0,0.2,0
		c0.5,2.6,0.9,5.6,3,7.5c1.1,1.4,1.4,3.1,0.9,4.8c-0.1,0.1,0,0.2,0,0.3c0.1,0.1,0.1-0.1,0.2-0.1c1.4-2.1,1.7-4.7,0.5-6.9
		C162.7,144.1,163.4,147.2,163,150.1L163,150.1L163,150.1z M152.2,154.1c-0.1,0.1-0.1,0.2-0.1,0.3c2,0,4.2-1.1,5.1-2.8
		c0.3-0.7,0.8-1.7,0.5-2.5C155.6,150.5,153.8,152.3,152.2,154.1L152.2,154.1L152.2,154.1z M145.7,146.2
		C145.7,146.2,145.7,146.3,145.7,146.2c1.9-0.9,2.9-2.5,3.9-4.2c1,1.7,2,3.3,3.8,4.2c0,0,0-0.1,0.1-0.1c-2-1.7-2.9-4.3-3.9-6.7
		C148.7,142,147.7,144.5,145.7,146.2L145.7,146.2L145.7,146.2z M142.2,152c1.4,2,3.9,2.6,5.1,2.5c-1.7-2-3.5-4.1-5.9-5.3
		C141.3,149.9,141.5,150.5,142.2,152L142.2,152z M159.2,151.3C159.2,151.3,159.1,151.3,159.2,151.3c-3.3,7.1-8.1,4.4-9.7,9.5
		c-2.3-5.4-7-2.9-9.6-9.6c0,0-0.1,0-0.1,0.1c2.2,8.2,8.4,3.8,9.7,12.2h0.1c0-0.3,0.1-0.5,0.1-0.8
		C150.8,155.4,156.9,159.5,159.2,151.3L159.2,151.3L159.2,151.3z"/>
</g>
<g>
	<path class="st2" d="M231,127.1c0.2,0,0.3,0.1,0.5,0.1c6.1,0.2,12.6,4.2,14.5,11.4c0.3,1.3,0.5,2.7,0.5,4c0,9.8,0,19.6,0,29.4
		c0,0.1,0,0.3,0,0.4c-18.4,0-36.7,0-55.1,0c0-4,0-7.9,0-11.9c1-0.1,1.9,0,2.8,0c1,0,1.9,0,2.9,0c1,0,1.9,0,2.9,0c1,0,1.9,0,2.9,0
		c1,0,1.9,0,2.9,0c1,0,1.9,0,2.9,0c1,0,1.9,0,2.9,0c1,0,1.9,0,2.9,0c1,0,1.9,0,2.9,0c1,0,1.9,0,2.9,0c1,0,1.9,0,2.9,0
		c1,0,1.9,0,2.9,0c1,0,1.9,0,2.9,0c1,0,1.9,0,2.9,0c1,0,1.9,0,2.9,0c0-0.1,0-0.3,0-0.4c0-5.8,0-11.7,0-17.5c0-1.5-0.8-2.7-2.2-3.3
		c-1.4-0.6-2.7-0.3-3.8,0.7c-1.3,1.2-2.5,2.5-3.7,3.7c-4.8,4.8-9.7,9.7-14.5,14.5c-0.1,0.1-0.2,0.2-0.2,0.3
		c-2.8-2.8-5.6-5.6-8.4-8.4c0,0-0.1,0-0.1,0c0.1-0.1,0.2-0.2,0.3-0.3c5.9-5.9,11.9-11.9,17.8-17.8c1-1,2.1-1.9,3.3-2.7
		c2-1.3,4.2-2,6.6-2.2c0.3,0,0.6,0,0.9,0c0.1,0,0.2,0,0.3-0.1C230.8,127.1,230.9,127.1,231,127.1z"/>
	<path class="st2" d="M156.9,127.2c0.1,0,0.3,0,0.4,0c18.1,0,36.1,0,54.2,0c0.2,0,0.3,0,0.5,0c0,4,0,7.9,0,11.9
		c-14.4,0-28.7,0-43.2,0c0,0.2,0,0.3,0,0.5c0,3.3,0,6.7,0,10c0,2.4,0,4.9,0,7.3c0,2.1,1.8,3.8,3.9,3.6c0.7-0.1,1.3-0.3,1.9-0.8
		c0.2-0.1,0.3-0.3,0.5-0.5c5.8-5.8,11.6-11.5,17.3-17.3c0.1-0.1,0.2-0.2,0.3-0.3c2.9,2.8,5.6,5.6,8.5,8.4c0,0-0.1,0.1-0.2,0.2
		c-5.9,5.9-11.9,11.9-17.8,17.8c-2.4,2.4-5.3,3.8-8.7,4.3c-6.1,0.8-12.6-2.2-15.7-8c-1-1.8-1.5-3.7-1.7-5.7c0-0.2-0.1-0.4-0.1-0.6
		C156.9,147.8,156.9,137.5,156.9,127.2z"/>
	<path class="st2" d="M343.1,141.2c0,0.1-0.1,0.2-0.1,0.4c-0.1,2.5-1.9,6-5.8,6.8c-2.9,0.6-5.3-0.4-7.1-2.7
		c-1.3-1.6-1.7-3.5-1.6-5.6c0.1-1.7,0.7-3.2,1.7-4.5c3-3.7,8.4-3.6,11.2,0.2c0.9,1.2,1.5,2.6,1.5,4.1c0,0.1,0,0.2,0.1,0.3
		C343.1,140.6,343.1,140.9,343.1,141.2z M340.2,140.7c0-1.2-0.3-2.3-0.9-3.2c-1.6-2.4-4.9-2.5-6.7-0.2c-0.7,0.8-1,1.8-1.1,2.9
		c-0.1,1.4,0.1,2.7,1,3.9c1.7,2.4,5.1,2.4,6.8,0C339.9,143,340.1,141.9,340.2,140.7z"/>
	<path class="st2" d="M290.1,153.3c0-0.9,0-1.8,0-2.6c0.2,0,0.3,0.1,0.4,0.1c1.1,0.3,2,0,2.5-1c0.3-0.6,0.6-1.3,0.8-2
		c0-0.1,0-0.3-0.1-0.4c-0.6-1.5-1.2-3-1.8-4.6c-0.9-2.1-1.7-4.2-2.6-6.4c-0.1-0.1-0.1-0.3-0.2-0.4c-0.8,0-1.6-0.1-2.3,0
		c-1.7,0.2-2.8,1.3-3.1,2.9c-0.1,0.4-0.1,0.9-0.1,1.3c0,2.5,0,4.9,0,7.4c0,0.1,0,0.3,0,0.5c-1,0-1.9,0-2.8,0
		c-0.1-0.3-0.1-14.2,0-14.9c0.3-0.1,1.5-0.1,2.2,0c0.2,0.6,0.4,1.2,0.6,2c0.1-0.2,0.2-0.3,0.3-0.4c0.7-0.8,1.6-1.4,2.7-1.6
		c0.3-0.1,0.6-0.1,0.9-0.1c1.1,0,2.3,0,3.4,0c0.4,0,0.4,0,0.5,0.4c1.3,3.3,2.6,6.6,3.9,9.9c0.1,0.1,0.1,0.3,0.2,0.5
		c1.4-3.7,2.8-7.2,4.1-10.8c1,0,2,0,3,0c-0.1,0.2-0.1,0.3-0.1,0.4c-2.1,5.2-4.1,10.4-6.2,15.6c-0.3,0.7-0.7,1.4-1,2.1
		c-0.2,0.3-0.4,0.7-0.7,1c-1,1.2-2.2,1.5-3.7,1.1C290.5,153.5,290.3,153.4,290.1,153.3z"/>
	<path class="st2" d="M275.5,140.9c1,0,2,0,3,0c0,0.1,0,0.1,0,0.2c-0.8,3.1-2.5,5.4-5.5,6.7c-3.3,1.4-6.4,0.9-9.3-1.3
		c-2.1-1.6-3.3-3.7-3.8-6.3c-0.6-2.9-0.2-5.6,1.3-8.2c1.4-2.3,3.3-3.9,5.9-4.6c3.7-1,7.5,0.4,9.7,3.6c0.8,1.1,1.4,2.5,1.6,3.7
		c-0.3,0.1-2.5,0.1-3.1,0c-0.1-0.2-0.2-0.5-0.3-0.7c-0.6-1.5-1.6-2.8-3.1-3.4c-2.2-1-4.3-0.7-6.2,0.7c-1.3,0.9-2.1,2.2-2.6,3.8
		c-0.7,2.2-0.6,4.5,0.4,6.6c0.8,1.8,2.2,3.1,4.1,3.7c2.6,0.8,5.5,0,7.1-2.8C275,142.1,275.2,141.5,275.5,140.9z"/>
	<path class="st2" d="M267.8,151.8c1,0,1.9,0,2.8,0c2.6,6.9,5.2,13.8,7.8,20.7c-0.6,0-1.1,0-1.6,0c-0.5,0-1,0-1.6,0
		c-0.6-1.6-1.2-3.2-1.8-4.9c-2.9,0-5.7,0-8.6,0c-0.6,1.6-1.2,3.2-1.8,4.9c-1,0-2.1,0-3.1,0C262.6,165.6,265.2,158.7,267.8,151.8z
		 M269.2,156.2C269.2,156.2,269.2,156.2,269.2,156.2c-1.1,2.8-2.2,5.7-3.2,8.5c2.1,0,4.2,0,6.4,0
		C271.3,161.9,270.3,159.1,269.2,156.2z"/>
	<path class="st2" d="M304.2,133.3c0.7,0,1.4,0,2.2,0c0.2,0.5,0.3,1.1,0.5,1.7c0.1-0.1,0.2-0.2,0.3-0.3c1.1-1,2.3-1.6,3.8-1.8
		c1.8-0.1,3.4,0.4,4.7,1.6c1.4,1.2,2.2,2.7,2.5,4.4c0.4,2,0.2,4-0.8,5.9c-0.8,1.5-1.9,2.7-3.5,3.3c-2.4,1-4.5,0.6-6.5-1.1
		c-0.1-0.1-0.2-0.2-0.3-0.3c0,0,0,0-0.1,0c0,1.1,0,2.2,0,3.3c0,1.1,0,2.2,0,3.3c-0.3,0.1-2.5,0.1-2.9,0
		C304.2,146.7,304.2,140,304.2,133.3z M307,140.7c0,0.2,0,0.3,0,0.5c0.1,1.2,0.5,2.4,1.3,3.3c1.1,1.1,2.4,1.6,3.9,1.2
		c1.1-0.3,1.9-1.1,2.5-2.1c0.4-0.7,0.6-1.5,0.7-2.3c0.1-1.5-0.2-2.9-1.1-4.1c-0.6-0.8-1.5-1.4-2.5-1.5c-1.6-0.2-2.8,0.4-3.7,1.6
		C307.3,138.3,307,139.5,307,140.7z"/>
	<path class="st2" d="M318.6,165.5c0,2.1-0.9,4.2-2.9,5.8c-1.4,1.2-3.1,1.7-4.9,1.5c-2.8-0.3-4.8-1.8-6-4.3
		c-1.4-2.9-0.9-6.5,1.1-8.8c1.6-1.8,3.6-2.7,6-2.5c2,0.2,3.6,1.1,4.8,2.6C318,161.3,318.6,163.1,318.6,165.5z M306.9,164.9
		c0,1.4,0.3,2.5,1,3.5c1.1,1.4,2.5,2,4.2,1.7c1.4-0.3,2.4-1.2,3-2.4c0.5-1.1,0.7-2.3,0.5-3.5c-0.1-1-0.5-1.9-1.1-2.7
		c-1.7-2-4.6-2-6.3,0C307.3,162.4,306.9,163.7,306.9,164.9z"/>
	<path class="st2" d="M290.1,172.5c-0.2-0.5-0.3-1.1-0.5-1.7c-0.1,0.1-0.1,0.1-0.1,0.1c-2.7,3.1-7.7,2.3-9.4-1.3
		c-0.5-1.1-0.7-2.2-0.7-3.3c0-2.8,0-5.7,0-8.5c0-0.1,0-0.2,0-0.2c1,0,1.9,0,2.9,0c0,0.2,0,0.3,0,0.5c0,2.6,0,5.3,0,7.9
		c0,0.6,0,1.2,0.2,1.7c0.5,1.7,2,2.7,4,2.4c1.9-0.3,2.8-1.6,3-3.3c0-0.3,0-0.6,0-0.9c0-2.6,0-5.2,0-7.9c0-0.2,0-0.3,0-0.5
		c1,0,1.9,0,2.9,0c0,5,0,10,0,15C291.5,172.5,290.8,172.5,290.1,172.5z"/>
	<path class="st2" d="M330.9,162.1c-0.9,0-1.8,0-2.8,0c0-0.1-0.1-0.2-0.1-0.3c-0.2-1.1-0.8-1.8-2-1.9c-0.7-0.1-1.4-0.1-2,0.2
		c-0.4,0.2-0.7,0.5-0.8,0.9c-0.2,0.6-0.1,1.1,0.4,1.5c0.3,0.3,0.7,0.5,1.1,0.6c0.7,0.3,1.5,0.5,2.2,0.8c0.5,0.2,1.1,0.4,1.6,0.6
		c0.3,0.1,0.6,0.3,0.9,0.5c1.3,0.9,1.8,2.1,1.7,3.6c-0.1,1.7-0.9,2.9-2.4,3.6c-2,1-4.1,0.9-6.1-0.1c-1.5-0.8-2.4-2-2.6-3.7
		c0-0.2,0-0.4,0-0.6c1,0,1.9,0,2.8,0c0,0.1,0.1,0.1,0.1,0.2c0.2,1.1,0.8,1.8,1.9,2.1c0.7,0.2,1.5,0.2,2.2,0c0.7-0.2,1.2-0.6,1.3-1.3
		c0.1-0.6,0-1-0.4-1.4c-0.3-0.3-0.7-0.5-1.1-0.7c-0.7-0.2-1.3-0.5-2-0.7c-0.6-0.2-1.1-0.4-1.7-0.6c-0.3-0.1-0.6-0.3-0.9-0.4
		c-2.4-1.4-2.2-4.3-1-5.8c0.5-0.6,1.1-1.1,1.8-1.4c1.7-0.7,3.5-0.8,5.2,0.1c1.6,0.8,2.6,2.1,2.8,3.9
		C330.9,161.8,330.9,161.9,330.9,162.1z"/>
	<path class="st2" d="M321.7,129.4c0.9,0,1.7,0,2.5,0c0,1.3,0,2.5,0,3.8c1.1,0,2.2,0,3.3,0c0,0.9,0,1.8,0,2.7c-1.1,0-2.2,0-3.3,0
		c0,0.2,0,0.3,0,0.4c0,2.4,0,4.7,0,7.1c0,0.4,0.1,0.8,0.2,1.1c0.2,0.7,0.7,1.1,1.5,1.3c0.6,0.1,1.1,0,1.6-0.2c0.1,0.3,0.1,1.9,0,2.7
		c-0.6,0.3-1.3,0.4-2,0.3c-2.3-0.1-3.7-1.7-4.1-3.7c-0.1-0.5-0.1-1-0.1-1.5c0-2.3,0-4.7,0-7c0-0.2,0-0.3,0-0.5c-0.8,0-1.6,0-2.5,0
		c0-0.9,0-1.7,0-2.6c0.2,0,0.3,0,0.5,0c0.4,0,0.8,0,1.2-0.1c0.7-0.1,1.2-0.6,1.2-1.3c0-0.7,0-1.4,0-2
		C321.7,129.8,321.7,129.6,321.7,129.4z"/>
	<path class="st2" d="M303,169.9c0,0.9,0,1.8,0,2.7c-0.7,0.3-1.5,0.4-2.2,0.3c-2.4-0.3-3.6-2-3.8-3.9c-0.1-0.4-0.1-0.9-0.1-1.3
		c0-2.3,0-4.7,0-7c0-0.1,0-0.3,0-0.5c-0.8,0-1.6,0-2.4,0c-0.1-0.3-0.1-2,0-2.6c0.4,0,0.7,0,1.1,0c0.2,0,0.5,0,0.7-0.1
		c0.5-0.1,0.8-0.5,0.9-1c0-0.2,0.1-0.4,0.1-0.6c0-0.6,0-1.2,0-1.8c0-0.1,0-0.3,0-0.4c0.8,0,1.6,0,2.5,0c0,0.6,0,1.3,0,1.9
		c0,0.6,0,1.2,0,1.9c1.1,0,2.2,0,3.3,0c0.1,0.3,0.1,2,0,2.7c-1.1,0-2.2,0-3.3,0c0,0.2,0,0.3,0,0.5c0,2.3,0,4.6,0,6.8
		c0,0.4,0,0.8,0.1,1.2c0.2,0.9,0.9,1.4,1.8,1.5c0.4,0,0.8,0,1.1-0.2C302.9,169.9,302.9,169.9,303,169.9z"/>
</g>
</svg>
