<?xml version="1.0" encoding="utf-8"?>
<!-- Generator: Adobe Illustrator 28.4.1, SVG Export Plug-In . SVG Version: 6.00 Build 0)  -->
<svg version="1.1" id="Layer_4" xmlns="http://www.w3.org/2000/svg" xmlns:xlink="http://www.w3.org/1999/xlink" x="0px" y="0px"
	 viewBox="0 0 500 300" style="enable-background:new 0 0 500 300;" xml:space="preserve">
<style type="text/css">
	
		.st0{clip-path:url(#SVGID_00000018941488538265562210000000600664689802335117_);fill:url(#SVGID_00000018221203291010301200000014497951110642982841_);}
	.st1{filter:url(#Adobe_OpacityMaskFilter);}
	.st2{clip-path:url(#SVGID_00000055684706424307317430000014802844323577757568_);}
	.st3{clip-path:url(#SVGID_00000084515777903759109210000018110346981786519962_);fill:#FFFFFF;}
	
		.st4{opacity:0.13;clip-path:url(#SVGID_00000055684706424307317430000014802844323577757568_);mask:url(#mask0_2968_292_00000121281001940981478670000002076243445430669710_);}
	.st5{fill:url(#SVGID_00000056387728014356153980000013009269993336941492_);}
	.st6{fill:url(#SVGID_00000133495792476894323530000014564959813190380464_);}
	.st7{fill:url(#SVGID_00000026855267690145941670000003830654608325086889_);}
	.st8{fill:url(#SVGID_00000173856719797420196820000002219195670559002292_);}
	
		.st9{fill:none;stroke:url(#SVGID_00000071560775479757830250000015454397545360082326_);stroke-width:16.2733;stroke-linecap:round;stroke-miterlimit:10;}
	
		.st10{fill:none;stroke:url(#SVGID_00000079446920612462388620000012776413242446482305_);stroke-width:16.2733;stroke-linecap:round;stroke-miterlimit:10;}
	
		.st11{fill:none;stroke:url(#SVGID_00000091014938236470409890000006973666185606673839_);stroke-width:16.2733;stroke-linecap:round;stroke-miterlimit:10;}
	.st12{fill:url(#SVGID_00000023989414257038914020000000579467793336840868_);fill-opacity:0.8;}
	.st13{fill:url(#SVGID_00000106143879274013237470000006203547866818284222_);fill-opacity:0.6;}
	.st14{fill:url(#SVGID_00000004540815118794986630000006792340367362530707_);}
	.st15{fill:url(#SVGID_00000156553418686813652030000018404900634795345074_);fill-opacity:0.8;}
	.st16{display:none;}
	.st17{display:inline;}
	.st18{display:none;clip-path:url(#SVGID_00000168798531224616031580000001909402574147310989_);}
	.st19{clip-path:url(#SVGID_00000093865579794709575590000015914573981370275473_);}
	.st20{fill-rule:evenodd;clip-rule:evenodd;fill:url(#SVGID_00000059286134297567825940000013259640568963977097_);}
	.st21{fill:#FFFFFF;}
	
		.st22{display:none;clip-path:url(#SVGID_00000070120387877212309030000007928876904110242222_);fill-rule:evenodd;clip-rule:evenodd;fill:url(#SVGID_00000070083361157716881070000006327282783796552626_);}
	.st23{opacity:0.59;clip-path:url(#SVGID_00000158709261716607775180000012527922667427229613_);}
	
		.st24{display:none;clip-path:url(#SVGID_00000013886811324494839840000009547401878254476965_);fill-rule:evenodd;clip-rule:evenodd;fill:url(#SVGID_00000059299533312329754320000005790717735515186073_);}
	.st25{fill:none;}
	.st26{display:inline;fill:#FFFFFF;}
	.st27{display:inline;fill:#1D1C25;stroke:url(#SVGID_00000147201276047042966700000000907041460196493497_);stroke-width:0.63;}
	.st28{display:inline;fill:url(#SVGID_00000083077703206805566010000010553257463499538871_);}
	.st29{fill:url(#SVGID_00000060727523406163320310000003964051727783568038_);}
	.st30{fill:url(#SVGID_00000057110255769002412660000003492249027015936900_);}
	.st31{fill:url(#SVGID_00000000201948105402931850000006008066715188201635_);}
	.st32{fill:url(#SVGID_00000011007965676263991790000009452866039413812144_);}
	.st33{fill:url(#SVGID_00000152948569357719175570000012452439885934486164_);}
	
		.st34{fill:none;stroke:url(#SVGID_00000111180106493712164780000015003821459555246250_);stroke-width:3.2211;stroke-linecap:round;stroke-miterlimit:10;}
	
		.st35{fill:none;stroke:url(#SVGID_00000172431566001946186720000014971644751843696537_);stroke-width:3.2211;stroke-linecap:round;stroke-miterlimit:10;}
	
		.st36{fill:none;stroke:url(#SVGID_00000119819446670432183200000015493531683124764567_);stroke-width:3.2211;stroke-linecap:round;stroke-miterlimit:10;}
	.st37{fill:url(#SVGID_00000023989611201584379900000015263757588511998344_);fill-opacity:0.8;}
	.st38{fill:url(#SVGID_00000173880736663453742500000008489369801366049725_);fill-opacity:0.6;}
	.st39{fill:url(#SVGID_00000164505221225457035090000004369409453434475919_);}
	.st40{fill:url(#SVGID_00000017512954078364617820000002233292932666411652_);fill-opacity:0.8;}
</style>
<g>
	<g>
		<g>
			<g>
				<g>
					<g>
						<g>
							<g>
								<defs>
									<rect id="SVGID_1_" y="0" width="500" height="300"/>
								</defs>
								<clipPath id="SVGID_00000106115078786459322350000008526767776201331134_">
									<use xlink:href="#SVGID_1_"  style="overflow:visible;"/>
								</clipPath>
								
									<linearGradient id="SVGID_00000078002727318434769410000005248206531866284473_" gradientUnits="userSpaceOnUse" x1="50" y1="-1912.1101" x2="450" y2="-1512.1102" gradientTransform="matrix(1 0 0 -1 0 -1562.1101)">
									<stop  offset="0" style="stop-color:#27025F"/>
									<stop  offset="0.8995" style="stop-color:#000105"/>
								</linearGradient>
								
									<rect y="0" style="clip-path:url(#SVGID_00000106115078786459322350000008526767776201331134_);fill:url(#SVGID_00000078002727318434769410000005248206531866284473_);" width="500" height="300"/>
							</g>
							<g>
								<defs>
									<rect id="SVGID_00000035491840215019123980000015199333739199422092_" y="0" width="500" height="300"/>
								</defs>
								<clipPath id="SVGID_00000089563335531074422780000016994609933116308905_">
									<use xlink:href="#SVGID_00000035491840215019123980000015199333739199422092_"  style="overflow:visible;"/>
								</clipPath>
								<defs>
									<filter id="Adobe_OpacityMaskFilter" filterUnits="userSpaceOnUse" x="284.6" y="3.4" width="352.9" height="292.8">
										<feColorMatrix  type="matrix" values="1 0 0 0 0  0 1 0 0 0  0 0 1 0 0  0 0 0 1 0"/>
									</filter>
								</defs>
								
									<mask maskUnits="userSpaceOnUse" x="284.6" y="3.4" width="352.9" height="292.8" id="mask0_2968_292_00000121281001940981478670000002076243445430669710_">
									<g class="st1">
										<defs>
											<rect id="SVGID_00000029749239534012694970000009600278099630079656_" y="0" width="500" height="300"/>
										</defs>
										
											<clipPath id="SVGID_00000133504358790318445730000005995627544649730990_" style="clip-path:url(#SVGID_00000089563335531074422780000016994609933116308905_);">
											<use xlink:href="#SVGID_00000029749239534012694970000009600278099630079656_"  style="overflow:visible;"/>
										</clipPath>
										<path style="clip-path:url(#SVGID_00000133504358790318445730000005995627544649730990_);fill:#FFFFFF;" d="M637.5,3.8
											H284.6v292.4h352.9V3.8z"/>
									</g>
								</mask>
								
									<g style="opacity:0.13;clip-path:url(#SVGID_00000089563335531074422780000016994609933116308905_);mask:url(#mask0_2968_292_00000121281001940981478670000002076243445430669710_);">
									
										<linearGradient id="SVGID_00000163041570555538700530000015520841631840082345_" gradientUnits="userSpaceOnUse" x1="387.6037" y1="687.6534" x2="568.3894" y2="764.6971" gradientTransform="matrix(1 0 0 1 0 -542)">
										<stop  offset="0" style="stop-color:#B516FF"/>
										<stop  offset="1" style="stop-color:#882BFF"/>
									</linearGradient>
									<path style="fill:url(#SVGID_00000163041570555538700530000015520841631840082345_);" d="M573.1,202.3
										c-28.7,10.5-65.1,19.3-105.2,24.8c-38.8,5.3-75.1,6.6-105,4.5c-45.2-3.1-75.9-14-78.2-30.7c-2.3-16.6,23.7-35.1,65.7-50.1
										c0.7-0.3,1.4-0.5,2.1-0.7c-1.5,6.2-2.3,12.3-2.8,18.6l-2,0.8c-14.9,6.2-22.8,12.4-22.1,17.8c0.7,5.2,9.7,8.8,24.6,10.9
										c25.3,3.5,67.6,2.2,115-4.2c46.8-6.4,87.4-16.4,111-26.4c14.4-6.1,22.4-12.1,21.7-17.4c-0.7-5.5-10.8-9.3-27.3-11.2h-0.4
										c-2.1-5.7-4.6-11.2-7.5-16.5l0.8,0.1c42.8,3.5,71.6,14.2,73.8,30.4C639.6,169,614.2,187.3,573.1,202.3z"/>
									
										<linearGradient id="SVGID_00000018221174220928991680000013383087748278891423_" gradientUnits="userSpaceOnUse" x1="410.1122" y1="726.5626" x2="559.1142" y2="828.0161" gradientTransform="matrix(1 0 0 1 0 -542)">
										<stop  offset="0" style="stop-color:#B822FF"/>
										<stop  offset="1" style="stop-color:#5900EB"/>
									</linearGradient>
									<path style="fill:url(#SVGID_00000018221174220928991680000013383087748278891423_);" d="M559.7,268.4l4.4,27.8l-26.3-10.1
										l-24-9.2c-26.2,13.3-56.4,16-84.5,7.5c-28.1-8.4-51.9-27.3-66.4-52.8c29.9,2.1,66.3,0.7,105-4.5
										c40.1-5.5,76.5-14.3,105.2-24.8c-3.4,13.9-9.4,27.1-17.7,38.8L559.7,268.4z"/>
									
										<linearGradient id="SVGID_00000149349802031922921380000014412630628878617243_" gradientUnits="userSpaceOnUse" x1="404.4762" y1="688.8119" x2="415.1556" y2="712.4589" gradientTransform="matrix(1 0 0 1 0 -542)">
										<stop  offset="0" style="stop-color:#CC00FF"/>
										<stop  offset="1" style="stop-color:#B10AEA"/>
									</linearGradient>
									<path style="fill:url(#SVGID_00000149349802031922921380000014412630628878617243_);" d="M411.3,176.5
										c8,0,14.6-6.5,14.6-14.6c0-8-6.5-14.6-14.6-14.6c-8,0-14.6,6.5-14.6,14.6C396.7,170,403.2,176.5,411.3,176.5z"/>
									
										<linearGradient id="SVGID_00000078008075327713689880000001641132930369720506_" gradientUnits="userSpaceOnUse" x1="460.1038" y1="692.0344" x2="478.9197" y2="714.9186" gradientTransform="matrix(1 0 0 1 0 -542)">
										<stop  offset="0" style="stop-color:#CC00FF"/>
										<stop  offset="1" style="stop-color:#792FFF"/>
									</linearGradient>
									<path style="fill:url(#SVGID_00000078008075327713689880000001641132930369720506_);" d="M470.6,177.4
										c8,0,14.6-6.5,14.6-14.6c0-8-6.5-14.6-14.6-14.6s-14.6,6.5-14.6,14.6C456,170.8,462.5,177.4,470.6,177.4z"/>
									
										<linearGradient id="SVGID_00000174593122051384238610000011043813540261746067_" gradientUnits="userSpaceOnUse" x1="360.48" y1="606.5917" x2="371.5585" y2="629.7241" gradientTransform="matrix(1 0 0 1 0 -542)">
										<stop  offset="0" style="stop-color:#C703FC"/>
										<stop  offset="1" style="stop-color:#7233FF"/>
									</linearGradient>
									
										<path style="fill:none;stroke:url(#SVGID_00000174593122051384238610000011043813540261746067_);stroke-width:16.2733;stroke-linecap:round;stroke-miterlimit:10;" d="
										M350.9,89.3c2.7-6.4,6.8-12.1,12-16.8c5.1-4.7,11.2-8.2,17.8-10.4"/>
									
										<linearGradient id="SVGID_00000041266610324706281940000015281117967228704396_" gradientUnits="userSpaceOnUse" x1="344.4957" y1="587.7192" x2="361.5318" y2="611.8751" gradientTransform="matrix(1 0 0 1 0 -542)">
										<stop  offset="0" style="stop-color:#CF35F9"/>
										<stop  offset="1" style="stop-color:#822BFF"/>
									</linearGradient>
									
										<path style="fill:none;stroke:url(#SVGID_00000041266610324706281940000015281117967228704396_);stroke-width:16.2733;stroke-linecap:round;stroke-miterlimit:10;" d="
										M326.5,80.6c4.3-11.6,11.7-21.7,21.6-29.2c9.8-7.5,21.6-12,33.9-12.9"/>
									
										<linearGradient id="SVGID_00000099660672247024608060000006092449826531038353_" gradientUnits="userSpaceOnUse" x1="322.7268" y1="560.0854" x2="351.7135" y2="598.4803" gradientTransform="matrix(1 0 0 1 0 -542)">
										<stop  offset="0" style="stop-color:#DD60FF"/>
										<stop  offset="1" style="stop-color:#BE20FA"/>
									</linearGradient>
									
										<path style="fill:none;stroke:url(#SVGID_00000099660672247024608060000006092449826531038353_);stroke-width:16.2733;stroke-linecap:round;stroke-miterlimit:10;" d="
										M300,69.9c6.7-16,17.7-30,31.7-40.2c14-10.3,30.6-16.6,47.9-18.2"/>
									
										<linearGradient id="SVGID_00000003793648815293670960000008819472684801539753_" gradientUnits="userSpaceOnUse" x1="355.7523" y1="690.6288" x2="338.462" y2="706.1393" gradientTransform="matrix(1 0 0 1 0 -542)">
										<stop  offset="0" style="stop-color:#A30DFF"/>
										<stop  offset="1" style="stop-color:#7C33B6;stop-opacity:3.125000e-02"/>
									</linearGradient>
									<path style="fill:url(#SVGID_00000003793648815293670960000008819472684801539753_);fill-opacity:0.8;" d="M353,149.6
										c-0.4,2.4-0.8,5-1.1,7.5c-0.5,3.7-0.8,7.3-1.1,10.8l-11.8,5.4l-12.9-12.9c4.7-2.2,9.7-4.4,15.1-6.5
										C345.2,152.3,349.2,150.9,353,149.6z"/>
									
										<linearGradient id="SVGID_00000093146029243140009600000006254551818874533764_" gradientUnits="userSpaceOnUse" x1="563.2031" y1="671.3124" x2="580.4934" y2="674.3636" gradientTransform="matrix(1 0 0 1 0 -542)">
										<stop  offset="0" style="stop-color:#461BC0"/>
										<stop  offset="1" style="stop-color:#9024F5"/>
									</linearGradient>
									<path style="fill:url(#SVGID_00000093146029243140009600000006254551818874533764_);fill-opacity:0.6;" d="M567.1,138.2
										c2.7,0.2,5.6,0.6,8.6,1.1c3.3,0.6,6.5,1.3,9.7,2.2l-4.3-17.3c-2.8-0.4-5.7-0.7-8.6-1.1c-4.1-0.4-8-0.8-11.9-1.1
										L567.1,138.2z"/>
									
										<linearGradient id="SVGID_00000094597297964499797480000008978859987244659135_" gradientUnits="userSpaceOnUse" x1="549.264" y1="707.2158" x2="376.1065" y2="653.8192" gradientTransform="matrix(1 0 0 1 0 -542)">
										<stop  offset="0" style="stop-color:#6A36FF"/>
										<stop  offset="1" style="stop-color:#CC00FF"/>
									</linearGradient>
									<path style="fill:url(#SVGID_00000094597297964499797480000008978859987244659135_);" d="M573.5,150.1
										c-9.6,6.3-20.4,10.5-31.7,12.3c-3-15.5-10.3-29.8-21.1-41.3c-16.5-17.5-40-27.4-64.2-25.4c-27,2.2-50.5,18.8-63.2,42.3
										c-4.9,9.1-8.2,19-9.4,29.3c-0.8,6.8-0.8,13.7,0,20.5c-6.1,0.4-12.2,0.4-18.3,0c-5.4-0.4-10.8-1.1-16.2-2.2
										c-0.2-2.6-0.3-5.8-0.2-9.4c0-0.7,0.1-3.8,0.4-7.5c0.5-6.3,1.5-12.6,3-18.8c11.8-47.5,52.3-83.9,100.7-88
										c44.6-3.8,87.7,20.5,109.5,60.2c2.9,5.3,5.4,10.8,7.5,16.5C571.5,142.4,572.6,146.2,573.5,150.1z"/>
									
										<linearGradient id="SVGID_00000037674568079833271410000014745127806306403765_" gradientUnits="userSpaceOnUse" x1="466.8279" y1="751.379" x2="471.4048" y2="784.434" gradientTransform="matrix(1 0 0 1 0 -542)">
										<stop  offset="0" style="stop-color:#880EB5"/>
										<stop  offset="1" style="stop-color:#AA0BE5;stop-opacity:0"/>
									</linearGradient>
									<path style="fill:url(#SVGID_00000037674568079833271410000014745127806306403765_);fill-opacity:0.8;" d="M362.2,231
										c2.4,3.5,4.9,7.1,7.5,10.8c2.2,3,4.3,5.9,6.5,8.6c30.4,16.1,70,14.9,104.1,9c29.8-5.1,59-17.6,86.7-39.2
										c1.1-2.3,2.2-4.8,3.2-7.6c1.3-3.5,2.4-7.1,3.2-10.8c-31.2,10.8-63.3,18.7-95.9,23.7C439.4,231.4,400.8,233.2,362.2,231z"/>
								</g>
							</g>
						</g>
					</g>
				</g>
			</g>
		</g>
	</g>
	<g>
		<g class="st16">
			<g class="st17">
				<g>
					<g>
						<g>
							<g>
								<defs>
									<rect id="SVGID_00000032633333708068450340000001301015878037171896_" y="0" width="500" height="300"/>
								</defs>
								<clipPath id="SVGID_00000171710857698010427800000006880161278019828362_">
									<use xlink:href="#SVGID_00000032633333708068450340000001301015878037171896_"  style="overflow:visible;"/>
								</clipPath>
								<g style="display:none;clip-path:url(#SVGID_00000171710857698010427800000006880161278019828362_);">
									<g class="st17">
										<g>
											<g>
												<g>
													<g>
														<g>
															<g>
																<g>
																	<defs>
																		
																			<rect id="SVGID_00000175286353279200089580000002500154570367740305_" x="181.8" y="108.3" width="172.3" height="62.3"/>
																	</defs>
																	<clipPath id="SVGID_00000091694796816361606530000008933115590694869158_">
																		<use xlink:href="#SVGID_00000175286353279200089580000002500154570367740305_"  style="overflow:visible;"/>
																	</clipPath>
																	<g style="clip-path:url(#SVGID_00000091694796816361606530000008933115590694869158_);">
																		
																			<linearGradient id="SVGID_00000151537861416389952300000013802938848863006644_" gradientUnits="userSpaceOnUse" x1="204.4565" y1="-2487.5815" x2="234.7588" y2="-2460.0166" gradientTransform="matrix(1 0 0 -1 0 -2340.1101)">
																			<stop  offset="0" style="stop-color:#15BCFF"/>
																			<stop  offset="0.4854" style="stop-color:#3073EC"/>
																			<stop  offset="1" style="stop-color:#B030EC"/>
																		</linearGradient>
																		
																			<path style="fill-rule:evenodd;clip-rule:evenodd;fill:url(#SVGID_00000151537861416389952300000013802938848863006644_);" d="
																			M181.8,139.5c0,17.2,14.1,31.2,31.4,31.2c4.4,0,8.6-0.9,12.5-2.6c-1.6-0.2-3.1-0.4-4.5-0.7
																			c-3.3-0.7-6.4-1.8-9.1-3.3c-5.8-3-9.8-7.5-12.2-13.3h-10.5l3.2-7.5h5.4c-0.2-1.6-0.3-3-0.3-4.4s0-2.7,0.1-3.8
																			h-8.5l3.2-7.4h6.8c2.2-6.3,6.1-11.1,12-14.5c3-1.8,6.3-3,9.8-3.8c-2.5-0.7-5.2-1-7.9-1
																			C195.9,108.3,181.8,122.2,181.8,139.5z M231.7,114.3c-9.6,1.2-19.2,5.2-22.8,13.4H238l-3.2,7.4h-27.7
																			c-0.1,1.1-0.2,2.4-0.2,4s0.1,3,0.4,4.2H231l-3.2,7.5h-17.5c4,6.5,14.1,10.7,24.7,11.2c6-5.7,9.7-13.7,9.7-22.5
																			C244.6,129.1,239.5,120,231.7,114.3z"/>
																		<path class="st21" d="M266.7,152.5c-1.7,0-3.1-0.4-4.4-1.1c-1.3-0.7-1.9-2.2-1.9-4.5v-14.3c0-2.1,0.6-3.6,1.7-4.5
																			c1.2-0.9,2.6-1.4,4.2-1.4c3.6,0,7.3,0.1,11.1,0.4v4.3h-9.6c-1.5,0-2.3,0.7-2.3,2.1v3.7l10.2,0.3v4l-10.2,0.3v3.5
																			c0,1.5,0.7,2.3,2.2,2.3h9.7v4.3C274.4,152.3,270.8,152.5,266.7,152.5z"/>
																		<path class="st21" d="M294.5,152.5c-3.2,0-5.7-0.6-7.5-1.8c-1.7-1.2-2.6-3.4-2.6-6.6v-17.4h5.2V144
																			c0,1.4,0.4,2.3,1.2,2.9c0.8,0.6,2.1,0.9,3.7,0.9s2.8-0.3,3.7-0.9c0.8-0.6,1.2-1.6,1.2-2.9v-17.3h5.2v17.4
																			c0,3.2-0.9,5.4-2.6,6.6C300.1,151.9,297.7,152.5,294.5,152.5z"/>
																		<path class="st21" d="M312.1,126.7h10.7c2.3,0,4.1,0.6,5.4,1.8c1.3,1.2,2,3.3,2,6.4c0,2.1-0.4,3.7-1.1,4.8
																			c-0.7,1-1.7,1.8-3,2.4l4.8,10.3h-5.3l-4.1-9.5c-1.1,0-2.5,0-4.2-0.1v9.6h-5.2L312.1,126.7L312.1,126.7z
																			 M321.9,138.7c1,0,1.8-0.3,2.3-0.8c0.5-0.6,0.8-1.6,0.8-3s-0.3-2.3-0.8-2.8s-1.3-0.8-2.3-0.8h-4.6v7.4
																			L321.9,138.7L321.9,138.7z"/>
																		<path class="st21" d="M345.2,152.5c-1.3,0-2.7-0.1-4.3-0.2c-1.5-0.2-2.8-0.4-3.8-0.6v-4c2.1,0.2,4.7,0.3,7.8,0.3
																			c1.4,0,2.5-0.2,3.2-0.6c0.7-0.4,1.1-1.1,1.1-2v-1c0-0.8-0.2-1.3-0.7-1.7c-0.4-0.4-1.1-0.6-1.9-0.6h-2.2
																			c-2.6,0-4.5-0.6-5.7-1.7c-1.3-1.1-1.9-2.9-1.9-5.4v-1.2c0-4.8,2.8-7.2,8.3-7.2c1.3,0,2.6,0.1,4,0.3
																			s2.6,0.4,3.8,0.6v4c-3.2-0.2-5.6-0.3-7.2-0.3c-1.3,0-2.3,0.2-3,0.6c-0.7,0.4-1,1.1-1,2.2v0.7
																			c0,0.9,0.2,1.5,0.7,1.9s1.3,0.6,2.3,0.6h2.5c2.2,0,3.9,0.6,5.1,1.8s1.8,2.8,1.8,4.7v1.5c0,1.9-0.4,3.4-1.1,4.5
																			s-1.7,1.8-3,2.2C348.8,152.3,347.1,152.5,345.2,152.5z"/>
																	</g>
																</g>
															</g>
														</g>
													</g>
												</g>
											</g>
										</g>
									</g>
									<g class="st17">
										<g>
											<g>
												<g>
													<g>
														<g>
															<g>
																<g>
																	<defs>
																		
																			<rect id="SVGID_00000080174031399781423150000002659850438482362773_" x="181.8" y="108.3" width="172.3" height="62.3"/>
																	</defs>
																	<clipPath id="SVGID_00000067215399733741870050000012945329234233331114_">
																		<use xlink:href="#SVGID_00000080174031399781423150000002659850438482362773_"  style="overflow:visible;"/>
																	</clipPath>
																	
																		<linearGradient id="SVGID_00000157276785152558179960000017482885466319925650_" gradientUnits="userSpaceOnUse" x1="204.5892" y1="-2486.5281" x2="234.3403" y2="-2459.6917" gradientTransform="matrix(1 0 0 -1 0 -2340.1101)">
																		<stop  offset="0" style="stop-color:#15BCFF"/>
																		<stop  offset="0.4854" style="stop-color:#3073EC"/>
																		<stop  offset="1" style="stop-color:#B030EC"/>
																	</linearGradient>
																	
																		<path style="display:none;clip-path:url(#SVGID_00000067215399733741870050000012945329234233331114_);fill-rule:evenodd;clip-rule:evenodd;fill:url(#SVGID_00000157276785152558179960000017482885466319925650_);" d="
																		M182.6,138.6c0,16.9,13.7,30.6,30.6,30.6c4.3,0,8.4-0.9,12.1-2.5c-1.6-0.2-3.1-0.4-4.4-0.7
																		c-3.2-0.7-6.2-1.8-8.9-3.2c-5.6-3-9.6-7.4-11.9-13.1H190l3.1-7.3h5.3c-0.2-1.5-0.3-3-0.3-4.3c0-1.4,0-2.7,0.1-3.8
																		H190l3.1-7.3h6.6c2.1-6.2,6-10.9,11.7-14.3c2.9-1.7,6.1-3,9.6-3.8c-2.5-0.6-5.1-1-7.7-1
																		C196.3,108,182.6,121.7,182.6,138.6z M231.3,113.9c-9.4,1.2-18.8,5.1-22.2,13.1h28.3l-3.1,7.3h-27
																		c-0.1,1.1-0.2,2.4-0.2,4s0.1,2.9,0.4,4.1h23.1l-3.1,7.3h-17c3.9,6.4,13.7,10.5,24,11c5.8-5.6,9.4-13.4,9.4-22.1
																		C243.8,128.5,238.9,119.5,231.3,113.9z"/>
																</g>
															</g>
														</g>
													</g>
												</g>
											</g>
										</g>
									</g>
								</g>
							</g>
						</g>
					</g>
				</g>
			</g>
		</g>
	</g>
	<g>
		<g>
			<g>
				<g>
					<g>
						<g>
							<g>
								<defs>
									<rect id="SVGID_00000150786094538360512580000008758705084455816326_" y="0" width="500" height="300"/>
								</defs>
								<clipPath id="SVGID_00000066514113516034304250000016901286340535402682_">
									<use xlink:href="#SVGID_00000150786094538360512580000008758705084455816326_"  style="overflow:visible;"/>
								</clipPath>
								<g style="opacity:0.59;clip-path:url(#SVGID_00000066514113516034304250000016901286340535402682_);">
									<g>
										<g>
											<g>
												<g>
													<g>
														<g>
															<g>
																<g>
																	<defs>
																		
																			<rect id="SVGID_00000141422883266254040520000009263970235992986759_" x="324.2" y="17" width="745.5" height="269.6"/>
																	</defs>
																	<clipPath id="SVGID_00000053524929081807046380000009700328099212205496_">
																		<use xlink:href="#SVGID_00000141422883266254040520000009263970235992986759_"  style="overflow:visible;"/>
																	</clipPath>
																	
																		<linearGradient id="SVGID_00000085952552267475700860000013632952757007249568_" gradientUnits="userSpaceOnUse" x1="422.6938" y1="-2522.0637" x2="551.416" y2="-2405.9524" gradientTransform="matrix(1 0 0 -1 0 -2340.1101)">
																		<stop  offset="0" style="stop-color:#15BCFF"/>
																		<stop  offset="0.4854" style="stop-color:#3073EC"/>
																		<stop  offset="1" style="stop-color:#B030EC"/>
																	</linearGradient>
																	
																		<path style="display:none;clip-path:url(#SVGID_00000053524929081807046380000009700328099212205496_);fill-rule:evenodd;clip-rule:evenodd;fill:url(#SVGID_00000085952552267475700860000013632952757007249568_);" d="
																		M327.6,148.1c0,73.1,59.3,132.4,132.4,132.4c18.6,0,36.3-3.9,52.4-10.8c-6.9-0.9-13.4-1.7-19-3
																		c-13.8-3-26.8-7.8-38.5-13.8c-24.2-13-41.5-32-51.5-56.7h-43.7l13.4-31.6H396c-0.9-6.5-1.3-13-1.3-18.6
																		c0-6.1,0-11.7,0.4-16.4h-35.5L373,98h28.6c9.1-26.8,26-47.2,50.6-61.9c12.5-7.4,26.4-13,41.5-16.4
																		c-10.8-2.6-22.1-4.3-33.3-4.3C386.9,15.7,327.6,75,327.6,148.1z M538.3,41.3C497.6,46.5,457,63.4,442.2,98h122.4
																		l-13.4,31.6H434.5c-0.4,4.8-0.9,10.4-0.9,17.3s0.4,12.5,1.7,17.7h99.9l-13.4,31.6h-73.6
																		c16.9,27.7,59.3,45.4,103.8,47.6c25.1-24.2,40.7-58,40.7-95.6C592.4,104.4,571.2,65.5,538.3,41.3z"/>
																</g>
															</g>
														</g>
													</g>
												</g>
											</g>
										</g>
									</g>
								</g>
							</g>
						</g>
					</g>
				</g>
			</g>
		</g>
	</g>
	<rect y="0" class="st25" width="500" height="300"/>
</g>
<g class="st16">
	<path class="st26" d="M204.6,163.3c-1.7,0-3.3-0.3-4.7-0.9c-1.4-0.6-2.4-1.5-3.2-2.6s-1.2-2.4-1.2-3.8h3.7c0.1,1.2,0.6,2.3,1.5,3.1
		s2.2,1.2,3.9,1.2s2.9-0.4,3.9-1.2s1.4-1.9,1.4-3.2c0-1-0.3-1.8-0.8-2.5c-0.6-0.6-1.2-1.1-2.1-1.4s-2-0.7-3.4-1.1
		c-1.7-0.4-3.1-0.9-4.2-1.4c-1-0.4-1.9-1.2-2.7-2.1c-0.7-1-1.1-2.3-1.1-3.9c0-1.4,0.4-2.7,1.1-3.8c0.7-1.1,1.8-2,3.1-2.6
		s2.9-0.9,4.6-0.9c2.5,0,4.5,0.6,6.1,1.9c1.6,1.2,2.5,2.9,2.7,4.9h-3.8c-0.1-1-0.7-1.9-1.6-2.6c-0.9-0.8-2.2-1.2-3.7-1.2
		c-1.4,0-2.6,0.4-3.5,1.1c-0.9,0.7-1.4,1.8-1.4,3.1c0,1,0.3,1.7,0.8,2.4c0.6,0.6,1.2,1.1,2,1.4c0.8,0.3,1.9,0.7,3.4,1.1
		c1.7,0.5,3.1,1,4.2,1.4c1.1,0.4,2,1.2,2.7,2.2c0.8,1,1.1,2.3,1.1,3.9c0,1.3-0.3,2.5-1,3.6s-1.7,2.1-3,2.8S206.4,163.3,204.6,163.3
		L204.6,163.3z M221.9,146.1c0.7-1.2,1.7-2.2,3-3c1.4-0.8,2.9-1.2,4.7-1.2s3.5,0.4,5,1.3c1.5,0.9,2.7,2.1,3.6,3.8
		c0.9,1.6,1.3,3.4,1.3,5.6s-0.4,4-1.3,5.6s-2.1,2.9-3.6,3.8c-1.5,0.9-3.2,1.4-5,1.4s-3.3-0.4-4.7-1.2c-1.3-0.8-2.4-1.8-3.1-3v13.7
		h-3.4v-30.6h3.4v3.8L221.9,146.1L221.9,146.1z M236,152.6c0-1.6-0.3-2.9-0.9-4.1c-0.6-1.2-1.5-2.1-2.6-2.6
		c-1.1-0.6-2.2-0.9-3.5-0.9s-2.4,0.3-3.5,0.9c-1.1,0.6-1.9,1.5-2.6,2.7c-0.6,1.2-0.9,2.5-0.9,4.1s0.3,2.9,0.9,4.1
		c0.7,1.2,1.5,2.1,2.6,2.7c1.1,0.6,2.3,0.9,3.5,0.9s2.5-0.3,3.5-0.9c1.1-0.6,1.9-1.5,2.6-2.7C235.6,155.6,236,154.2,236,152.6
		L236,152.6z M263,151.9c0,0.7,0,1.4-0.1,2.1h-16.6c0.1,2.1,0.8,3.6,2.1,4.8c1.3,1.1,2.8,1.7,4.7,1.7c1.5,0,2.7-0.3,3.7-1
		s1.7-1.6,2.1-2.8h3.7c-0.6,2-1.7,3.6-3.3,4.9c-1.7,1.2-3.7,1.9-6.2,1.9c-2,0-3.7-0.4-5.3-1.3c-1.5-0.9-2.8-2.1-3.6-3.8
		c-0.9-1.6-1.3-3.5-1.3-5.7s0.4-4,1.3-5.6c0.9-1.6,2.1-2.9,3.6-3.7c1.6-0.9,3.4-1.3,5.4-1.3s3.7,0.4,5.2,1.3s2.7,2.1,3.5,3.6
		C262.6,148.3,263,150,263,151.9L263,151.9z M259.4,151.1c0-1.3-0.3-2.4-0.9-3.4s-1.4-1.7-2.4-2.2s-2.1-0.8-3.3-0.8
		c-1.7,0-3.2,0.6-4.5,1.7c-1.2,1.1-1.9,2.6-2.1,4.6L259.4,151.1L259.4,151.1z M266.2,152.6c0-2.1,0.4-4,1.3-5.6s2-2.9,3.6-3.8
		c1.5-0.9,3.3-1.3,5.3-1.3c2.5,0,4.6,0.6,6.3,1.9c1.7,1.2,2.8,3,3.3,5.1h-3.7c-0.4-1.3-1-2.3-2.1-3c-1-0.7-2.3-1.1-3.8-1.1
		c-2,0-3.6,0.7-4.8,2.1c-1.2,1.3-1.8,3.2-1.8,5.7s0.6,4.4,1.8,5.8c1.2,1.4,2.8,2.1,4.8,2.1c1.5,0,2.8-0.4,3.8-1.1
		c1-0.7,1.7-1.7,2.1-3h3.7c-0.6,2.1-1.7,3.8-3.3,5.1c-1.7,1.3-3.8,1.9-6.2,1.9c-2,0-3.7-0.4-5.3-1.3c-1.5-0.9-2.7-2.1-3.6-3.8
		S266.2,154.8,266.2,152.6L266.2,152.6z M294.7,145.1v12.2c0,1,0.2,1.7,0.6,2.2c0.4,0.4,1.2,0.6,2.2,0.6h2.5v2.9h-3
		c-1.9,0-3.4-0.4-4.3-1.3c-1-0.9-1.4-2.3-1.4-4.4v-12.2h-2.7v-2.8h2.7V137h3.5v5.2h5.4v2.8h-5.5L294.7,145.1L294.7,145.1z
		 M307.8,145.6c0.6-1.2,1.5-2.1,2.6-2.8s2.5-1,4.1-1v3.6h-0.9c-3.9,0-5.8,2.1-5.8,6.3V163h-3.5v-20.8h3.5L307.8,145.6L307.8,145.6z
		 M337.4,151.9c0,0.7,0,1.4-0.1,2.1h-16.6c0.1,2.1,0.8,3.6,2.1,4.8c1.3,1.1,2.8,1.7,4.7,1.7c1.5,0,2.7-0.3,3.7-1s1.7-1.6,2.1-2.8
		h3.7c-0.6,2-1.7,3.6-3.3,4.9c-1.7,1.2-3.7,1.9-6.2,1.9c-2,0-3.7-0.4-5.3-1.3c-1.5-0.9-2.8-2.1-3.6-3.8c-0.9-1.6-1.3-3.5-1.3-5.7
		s0.4-4,1.3-5.6s2.1-2.9,3.6-3.7c1.6-0.9,3.4-1.3,5.4-1.3s3.7,0.4,5.2,1.3c1.5,0.9,2.7,2.1,3.5,3.6C337,148.3,337.4,150,337.4,151.9
		L337.4,151.9z M333.8,151.1c0-1.3-0.3-2.4-0.9-3.4s-1.4-1.7-2.4-2.2s-2.1-0.8-3.3-0.8c-1.7,0-3.2,0.6-4.5,1.7
		c-1.2,1.1-1.9,2.6-2.1,4.6L333.8,151.1L333.8,151.1z M367.7,157.1h-11.5L354,163h-3.6l9.5-26.2h4l9.5,26.2h-3.6L367.7,157.1z
		 M366.7,154.4l-4.8-13.3l-4.8,13.3H366.7L366.7,154.4z M381,136.6V163h-3.5v-26.4H381z"/>
	
		<linearGradient id="SVGID_00000142176988564439545980000018248369279176032435_" gradientUnits="userSpaceOnUse" x1="-446.8523" y1="3074.113" x2="-383.1123" y2="3117.7329" gradientTransform="matrix(1 0 0 1 564 -2945.8899)">
		<stop  offset="0" style="stop-color:#917EFE"/>
		<stop  offset="1" style="stop-color:#FFFFFF"/>
	</linearGradient>
	
		<circle style="display:inline;fill:#1D1C25;stroke:url(#SVGID_00000142176988564439545980000018248369279176032435_);stroke-width:0.63;" cx="149.7" cy="150.5" r="30.7"/>
	
		<linearGradient id="SVGID_00000107584804627048514130000009763637466843542957_" gradientUnits="userSpaceOnUse" x1="-414.5114" y1="3078.3499" x2="-414.5014" y2="3108.3501" gradientTransform="matrix(1 0 0 1 564 -2945.8899)">
		<stop  offset="0" style="stop-color:#917EFE"/>
		<stop  offset="1" style="stop-color:#FFFFFF"/>
	</linearGradient>
	<path style="display:inline;fill:url(#SVGID_00000107584804627048514130000009763637466843542957_);" d="M143.9,163
		c-1-1.8-2.4-3.2-4-4.5C141.8,158.8,144,161.3,143.9,163z M154.6,163c1-1.8,2.4-3.2,3.9-4.5C156.7,158.9,154.6,161.2,154.6,163z
		 M158.9,142.5c-0.7-1.2-1.2-2.4-1.5-3.7C156.8,139.9,157.8,142.1,158.9,142.5z M141.8,138.9c-0.5,1.1-1,2.4-1.4,3.6
		C141.6,141.9,142.2,140,141.8,138.9z M163,150.1c-0.4,6.8-9.3,7.9-9.1,14.1c-0.9-0.8-1.2-1.9-0.8-3.1c0,0,0,0-0.1,0
		c-0.7,1.4-1.1,3-0.8,4.5c0.1,0.4-0.1,0.2-0.3,0l0,0c-0.4-0.7-0.6-1.5-0.7-2.2h-0.1c-0.6,1.8-0.7,3.7-1.6,5.4
		c-0.4-1.6-1-3.1-1.3-4.7c-0.1-0.2-0.3-0.8-0.3-0.8s-0.1,0.6-0.1,0.8c0.1,0.8-0.4,1.4-0.8,1.9c-0.2-1.2-0.1-2.5-0.4-3.7l0,0
		c-0.1-0.1-0.3-0.6-0.4-0.8c0.1,1-0.2,2-1,2.8c0.2-4.8-5-6.5-7.4-9.8c-2.5-3.5-2.9-9.4,0.9-12.1c-1.4,2.2-0.9,4.8,0.4,6.9
		c0.1,0.1,0.3,0.3,0.3,0.1c-0.7-1.5-0.4-3.2,0.4-4.6c2.2-2.1,2.9-5,3.4-8.1c1.8,2.6,0.9,6-0.6,8.4l0,0c0,0.1-0.1,0.1-0.1,0.2
		c4.2-2.3,5.4-8.4,6.8-12.8c1.2,4,2.2,8,4.9,11.3c0.6,0.6,1.3,1.1,1.9,1.6c-1.4-2.6-2.3-5.8-0.9-8.6c0.1,0,0.1,0,0.2,0
		c0.5,2.6,0.9,5.6,3,7.5c1.1,1.4,1.4,3.1,0.9,4.8c-0.1,0.1,0,0.2,0,0.3c0.1,0.1,0.1-0.1,0.2-0.1c1.4-2.1,1.7-4.7,0.5-6.9
		C162.7,144.1,163.4,147.2,163,150.1L163,150.1L163,150.1z M152.2,154.1c-0.1,0.1-0.1,0.2-0.1,0.3c2,0,4.2-1.1,5.1-2.8
		c0.3-0.7,0.8-1.7,0.5-2.5C155.6,150.5,153.8,152.3,152.2,154.1L152.2,154.1L152.2,154.1z M145.7,146.2
		C145.7,146.2,145.7,146.3,145.7,146.2c1.9-0.9,2.9-2.5,3.9-4.2c1,1.7,2,3.3,3.8,4.2c0,0,0-0.1,0.1-0.1c-2-1.7-2.9-4.3-3.9-6.7
		C148.7,142,147.7,144.5,145.7,146.2L145.7,146.2L145.7,146.2z M142.2,152c1.4,2,3.9,2.6,5.1,2.5c-1.7-2-3.5-4.1-5.9-5.3
		C141.3,149.9,141.5,150.5,142.2,152L142.2,152z M159.2,151.3C159.2,151.3,159.1,151.3,159.2,151.3c-3.3,7.1-8.1,4.4-9.7,9.5
		c-2.3-5.4-7-2.9-9.6-9.6c0,0-0.1,0-0.1,0.1c2.2,8.2,8.4,3.8,9.7,12.2h0.1c0-0.3,0.1-0.5,0.1-0.8
		C150.8,155.4,156.9,159.5,159.2,151.3L159.2,151.3L159.2,151.3z"/>
</g>
<g>
	<path class="st21" d="M239.5,163.7h-6.3v-22.3h12.5v4.8l-6.2-0.4v5.2h5.1v4.7l-5.1-0.4V163.7z"/>
	<path class="st21" d="M253.5,163.7h-6.1v-12.3l-1.1-0.7v-2.1l4.1-1h1.5l0.5,4.5c0.5-3.1,2.2-4.7,5-4.7c0.3,0,0.6,0.1,1,0.2
		l-0.6,6.8c-0.3-0.2-0.8-0.4-1.7-0.4c-1.3,0-2.1,0.3-2.5,1L253.5,163.7L253.5,163.7z"/>
	<path class="st21" d="M259.9,163.7v-12.3l-1.1-0.7v-2l4.1-1.1h3.2v16.1H259.9z M262.6,145.8l-3.1-3.1V142l3.1-3.1h0.7l3.2,3.1v0.7
		l-3.2,3.1H262.6z"/>
	<path class="st21" d="M277.1,153.8c0-1.6-0.1-2.7-0.2-3.4c-0.2-0.7-0.5-1-0.9-1s-0.7,0.1-0.9,0.2c-0.2,0.1-0.4,0.3-0.5,0.6
		s-0.2,0.6-0.2,0.9c0,0.3,0,0.7,0,1.1v1.6L277.1,153.8L277.1,153.8z M275.5,164.1c-1.4,0-2.6-0.2-3.7-0.6c-1-0.4-1.9-1-2.5-1.8
		s-1-1.6-1.3-2.6s-0.4-2.1-0.4-3.2c0-2.8,0.7-5,2.2-6.4c1.4-1.5,3.4-2.2,6-2.2c2.5,0,4.3,0.6,5.3,1.8c1.1,1.2,1.6,3,1.6,5.6v2.1
		h-8.6v0.4c0,0.7,0.1,1.4,0.2,1.8c0.2,0.5,0.4,0.8,0.7,1.1c0.3,0.2,0.6,0.4,0.9,0.5s0.7,0.1,1.2,0.1c0.4,0,0.9-0.1,1.4-0.2
		c0.5-0.1,1-0.3,1.5-0.5s1-0.5,1.3-0.9l1.1,1.9c-0.5,0.8-1.2,1.4-2.1,1.9s-1.8,0.8-2.6,1C277.1,164,276.3,164.1,275.5,164.1z"/>
	<path class="st21" d="M290.9,163.7h-6.1v-12.3l-1.1-0.7v-2l4.1-1.1h3.2v2.5l0.2-0.3c0.2-0.2,0.4-0.4,0.7-0.7c0.3-0.3,0.6-0.6,1-0.8
		c0.4-0.3,0.8-0.5,1.3-0.7s1-0.3,1.5-0.3c1.7,0,2.9,0.5,3.6,1.4s1.1,2.5,1.1,4.8c0,0.1,0,0.2,0,0.3c0,0.2,0,0.3,0,0.4v9.6h-6.2
		v-10.2c0-1.2-0.5-1.8-1.5-1.8c-0.1,0-0.2,0-0.2,0c-0.1,0-0.1,0-0.2,0s-0.1,0-0.2,0.1c-0.1,0-0.1,0.1-0.2,0.1s-0.1,0-0.2,0.1
		c-0.1,0-0.1,0.1-0.2,0.1c0,0-0.1,0.1-0.2,0.1c-0.1,0.1-0.1,0.1-0.2,0.1c0,0-0.1,0.1-0.2,0.1c-0.1,0.1-0.1,0.1-0.1,0.1v11.1H290.9z"
		/>
	<path class="st21" d="M313.3,163.7l-0.7-2.5c-0.1,0.2-0.2,0.4-0.4,0.5c-0.1,0.2-0.3,0.4-0.6,0.7c-0.3,0.3-0.6,0.5-0.9,0.7
		s-0.7,0.4-1.2,0.5c-0.5,0.2-1,0.2-1.5,0.2c-2.1,0-3.6-0.7-4.6-2.1c-1-1.4-1.5-3.4-1.5-6c0-1.6,0.2-3,0.7-4.3s1.2-2.3,2.1-3
		c1-0.8,2.1-1.1,3.5-1.1c0.8,0,1.5,0.1,2.2,0.3c0.6,0.2,1.2,0.4,1.7,0.6v-5.8l-2.1-0.7v-2.1l6.7-0.9h1.5v24.9h-4.9V163.7z
		 M310.7,160.2c0.2,0,0.5,0,0.7-0.1s0.5-0.2,0.7-0.4v-9.6c-0.4-0.1-0.7-0.1-1.1-0.1c-1.7,0-2.5,1.3-2.5,3.9v2.7
		c0,1.2,0.2,2.1,0.6,2.7C309.5,159.9,310,160.2,310.7,160.2z"/>
	<path class="st21" d="M329.7,164c-2.1,0-4-0.6-5.7-1.7v-3.1c0.9,0.7,1.9,1,3,1c0.8,0,1.4-0.1,2-0.3c0.5-0.2,0.9-0.4,1.2-0.8
		c0.3-0.3,0.4-0.7,0.5-1s0.2-0.7,0.2-1.1c0-2.2-1.3-3.3-3.9-3.3h-0.5v-2.6h0.2c1.4,0,2.4-0.2,3.1-0.6c0.7-0.4,1-1.2,1-2.4
		c0-1.1-0.3-2-1-2.5s-1.6-0.8-2.8-0.8c-1.1,0-2.1,0.3-3,1v-3.1c1.8-1.2,3.7-1.7,5.7-1.7c1.4,0,2.6,0.2,3.6,0.5s1.8,0.8,2.4,1.3
		c0.6,0.6,1,1.2,1.3,2c0.3,0.7,0.4,1.6,0.4,2.5c0,2.8-1.5,4.3-4.5,4.6c1.6,0.1,2.9,0.7,3.8,1.7s1.4,2.5,1.4,4.4
		c0,1.7-0.7,3.1-2.2,4.2C334.6,163.5,332.5,164,329.7,164z"/>
	
		<linearGradient id="SVGID_00000015314708296362399780000010107285995193402496_" gradientUnits="userSpaceOnUse" x1="341.0561" y1="701.4385" x2="343.5626" y2="704.7078" gradientTransform="matrix(1 0 0 1 0 -542)">
		<stop  offset="0" style="stop-color:#C801FC"/>
		<stop  offset="1" style="stop-color:#8529FF"/>
	</linearGradient>
	<circle style="fill:url(#SVGID_00000015314708296362399780000010107285995193402496_);" cx="342.1" cy="160.8" r="2.7"/>
	<g>
		
			<linearGradient id="SVGID_00000167398649644880953100000017328704118836854459_" gradientUnits="userSpaceOnUse" x1="175.552" y1="690.3974" x2="211.2872" y2="705.6264" gradientTransform="matrix(1 0 0 1 0 -542)">
			<stop  offset="0" style="stop-color:#B516FF"/>
			<stop  offset="1" style="stop-color:#882BFF"/>
		</linearGradient>
		<path style="fill:url(#SVGID_00000167398649644880953100000017328704118836854459_);" d="M212.2,159.6
			c-10.9,4.2-29.9,6.8-41.6,5.8c-20-1.3-20.5-9.8-2.1-16.2c-0.3,1.2-0.5,2.4-0.6,3.7l-0.4,0.2c-2.9,1.2-4.5,2.5-4.4,3.5
			c1.4,3.9,19.8,2.4,27.6,1.3c7.7-1,26-4.5,26.3-8.7c-0.1-1.1-2.1-1.8-5.4-2.2h-0.1c-0.4-1.1-0.9-2.2-1.5-3.3
			C228.9,145.2,230,153.2,212.2,159.6z"/>
		
			<linearGradient id="SVGID_00000013876217157766023050000016678535368170208683_" gradientUnits="userSpaceOnUse" x1="180.0052" y1="698.052" x2="209.4988" y2="718.1338" gradientTransform="matrix(1 0 0 1 0 -542)">
			<stop  offset="0" style="stop-color:#B822FF"/>
			<stop  offset="1" style="stop-color:#5900EB"/>
		</linearGradient>
		<path style="fill:url(#SVGID_00000013876217157766023050000016678535368170208683_);" d="M209.6,172.7l0.9,5.5
			c-2.5-1-7.5-2.9-9.9-3.8c-10.4,5.5-24.2,1.3-29.9-9c11.7,1,30.7-1.6,41.6-5.8c-0.7,2.8-1.9,5.4-3.5,7.7L209.6,172.7z"/>
		
			<linearGradient id="SVGID_00000153664379022671064900000003427457034780229049_" gradientUnits="userSpaceOnUse" x1="178.8457" y1="690.6203" x2="180.9595" y2="695.3009" gradientTransform="matrix(1 0 0 1 0 -542)">
			<stop  offset="0" style="stop-color:#CC00FF"/>
			<stop  offset="1" style="stop-color:#B10AEA"/>
		</linearGradient>
		<path style="fill:url(#SVGID_00000153664379022671064900000003427457034780229049_);" d="M180.2,154.5c1.6,0,2.9-1.3,2.9-2.9
			c-0.2-3.8-5.6-3.8-5.8,0C177.3,153.2,178.6,154.5,180.2,154.5z"/>
		
			<linearGradient id="SVGID_00000142177914666363301230000016992771104287635119_" gradientUnits="userSpaceOnUse" x1="189.8801" y1="691.2305" x2="193.6124" y2="695.7698" gradientTransform="matrix(1 0 0 1 0 -542)">
			<stop  offset="0" style="stop-color:#CC00FF"/>
			<stop  offset="1" style="stop-color:#792FFF"/>
		</linearGradient>
		<path style="fill:url(#SVGID_00000142177914666363301230000016992771104287635119_);" d="M192,154.7c1.6,0,2.9-1.3,2.9-2.9
			c-0.2-3.8-5.6-3.8-5.8,0C189.1,153.4,190.4,154.7,192,154.7z"/>
		
			<linearGradient id="SVGID_00000151512478351798611140000007978458773333856931_" gradientUnits="userSpaceOnUse" x1="170.2025" y1="674.3128" x2="172.3961" y2="678.8931" gradientTransform="matrix(1 0 0 1 0 -542)">
			<stop  offset="0" style="stop-color:#C703FC"/>
			<stop  offset="1" style="stop-color:#7233FF"/>
		</linearGradient>
		
			<path style="fill:none;stroke:url(#SVGID_00000151512478351798611140000007978458773333856931_);stroke-width:3.2211;stroke-linecap:round;stroke-miterlimit:10;" d="
			M168.3,137.2c1.1-2.5,3.3-4.5,5.9-5.4"/>
		
			<linearGradient id="SVGID_00000010294632750483397520000003431731117836175038_" gradientUnits="userSpaceOnUse" x1="166.977" y1="670.6233" x2="170.3436" y2="675.397" gradientTransform="matrix(1 0 0 1 0 -542)">
			<stop  offset="0" style="stop-color:#CF35F9"/>
			<stop  offset="1" style="stop-color:#822BFF"/>
		</linearGradient>
		
			<path style="fill:none;stroke:url(#SVGID_00000010294632750483397520000003431731117836175038_);stroke-width:3.2211;stroke-linecap:round;stroke-miterlimit:10;" d="
			M163.4,135.5c1.6-4.6,6.1-8,11-8.3"/>
		
			<linearGradient id="SVGID_00000146474365709855716310000009218117593553174144_" gradientUnits="userSpaceOnUse" x1="162.6874" y1="665.146" x2="168.4146" y2="672.7322" gradientTransform="matrix(1 0 0 1 0 -542)">
			<stop  offset="0" style="stop-color:#DD60FF"/>
			<stop  offset="1" style="stop-color:#BE20FA"/>
		</linearGradient>
		
			<path style="fill:none;stroke:url(#SVGID_00000146474365709855716310000009218117593553174144_);stroke-width:3.2211;stroke-linecap:round;stroke-miterlimit:10;" d="
			M158.2,133.4c2.6-6.4,8.9-11,15.7-11.6"/>
		
			<linearGradient id="SVGID_00000073696529228806492940000015121970026999832713_" gradientUnits="userSpaceOnUse" x1="169.2515" y1="690.9987" x2="165.829" y2="694.0689" gradientTransform="matrix(1 0 0 1 0 -542)">
			<stop  offset="0" style="stop-color:#A30DFF"/>
			<stop  offset="1" style="stop-color:#7C33B6;stop-opacity:3.125000e-02"/>
		</linearGradient>
		<path style="fill:url(#SVGID_00000073696529228806492940000015121970026999832713_);fill-opacity:0.8;" d="M168.7,149.2
			c-0.2,1.2-0.3,2.5-0.4,3.6l-2.3,1.1l-2.6-2.6C165,150.5,167,149.7,168.7,149.2z"/>
		
			<linearGradient id="SVGID_00000008145897747750385170000016168648142701295744_" gradientUnits="userSpaceOnUse" x1="210.2925" y1="687.1193" x2="213.7149" y2="687.7233" gradientTransform="matrix(1 0 0 1 0 -542)">
			<stop  offset="0" style="stop-color:#461BC0"/>
			<stop  offset="1" style="stop-color:#9024F5"/>
		</linearGradient>
		<path style="fill:url(#SVGID_00000008145897747750385170000016168648142701295744_);fill-opacity:0.6;" d="M211.1,146.9
			c1.2,0.1,2.5,0.3,3.6,0.6l-0.9-3.4c-1.3-0.2-2.8-0.3-4.1-0.4L211.1,146.9z"/>
		
			<linearGradient id="SVGID_00000051345433778519764430000015668394006560651671_" gradientUnits="userSpaceOnUse" x1="207.522" y1="694.2715" x2="173.2397" y2="683.6999" gradientTransform="matrix(1 0 0 1 0 -542)">
			<stop  offset="0" style="stop-color:#6A36FF"/>
			<stop  offset="1" style="stop-color:#CC00FF"/>
		</linearGradient>
		<path style="fill:url(#SVGID_00000051345433778519764430000015668394006560651671_);" d="M212.3,149.3c-1.9,1.3-4,2.1-6.3,2.4
			c-1.4-7.8-8.9-13.9-16.9-13.2c-8.9,0.7-15.6,9.5-14.4,18.2c-2.3,0.2-4.6,0-6.8-0.4c0-0.5-0.1-1.2,0-1.9c0-11.4,9.2-21.8,20.6-22.6
			C199.3,130.8,209.9,138.6,212.3,149.3z"/>
		
			<linearGradient id="SVGID_00000107550790497038888860000001537145949942564025_" gradientUnits="userSpaceOnUse" x1="191.2545" y1="702.988" x2="192.1605" y2="709.5309" gradientTransform="matrix(1 0 0 1 0 -542)">
			<stop  offset="0" style="stop-color:#880EB5"/>
			<stop  offset="1" style="stop-color:#AA0BE5;stop-opacity:0"/>
		</linearGradient>
		<path style="fill:url(#SVGID_00000107550790497038888860000001537145949942564025_);fill-opacity:0.8;" d="M170.5,165.3
			c0.8,1.3,1.8,2.6,2.8,3.8c6,3.2,13.8,2.9,20.6,1.8c5.9-1,11.7-3.5,17.2-7.8c0.5-1.1,1-2.4,1.3-3.6
			C198.9,164.1,184.6,166.1,170.5,165.3z"/>
	</g>
</g>
</svg>
