<?xml version="1.0" encoding="utf-8"?>
<!-- Generator: Adobe Illustrator 28.4.1, SVG Export Plug-In . SVG Version: 6.00 Build 0)  -->
<svg version="1.1" id="Layer_4" xmlns="http://www.w3.org/2000/svg" xmlns:xlink="http://www.w3.org/1999/xlink" x="0px" y="0px"
	 viewBox="0 0 500 300" style="enable-background:new 0 0 500 300;" xml:space="preserve">
<style type="text/css">
	
		.st0{clip-path:url(#SVGID_00000064345161529624575200000017669746016676606630_);fill:url(#SVGID_00000181075347564223541500000016762762282418932129_);}
	.st1{opacity:0.2;clip-path:url(#SVGID_00000136385892850757095940000013160949954785882790_);}
	.st2{fill:#3E274C;}
	
		.st3{display:none;opacity:0.15;clip-path:url(#SVGID_00000105422316825786250340000007317049023711445670_);fill:url(#SVGID_00000159458852721038527630000006038189831159039619_);enable-background:new    ;}
	.st4{display:none;}
	.st5{display:inline;fill:#FFFFFF;}
	.st6{display:inline;fill:#1D1C25;stroke:url(#SVGID_00000160882933277487388000000011386241465701488294_);stroke-width:0.63;}
	.st7{display:inline;fill:url(#SVGID_00000103224312877419959710000005562520462089883313_);}
	.st8{fill:#FFFFFF;}
</style>
<g>
	<g>
		<g>
			<g>
				<g>
					<g>
						<defs>
							<rect id="SVGID_1_" y="0" width="500" height="300"/>
						</defs>
						<clipPath id="SVGID_00000096039177479034844360000002616612188679557055_">
							<use xlink:href="#SVGID_1_"  style="overflow:visible;"/>
						</clipPath>
						
							<linearGradient id="SVGID_00000158723215926480300420000018406170280531408516_" gradientUnits="userSpaceOnUse" x1="0" y1="149.8898" x2="500" y2="149.8898" gradientTransform="matrix(1 0 0 -1 0 299.8898)">
							<stop  offset="0" style="stop-color:#2D1E51"/>
							<stop  offset="0.9283" style="stop-color:#000105"/>
						</linearGradient>
						
							<rect y="0" style="clip-path:url(#SVGID_00000096039177479034844360000002616612188679557055_);fill:url(#SVGID_00000158723215926480300420000018406170280531408516_);" width="500" height="300"/>
					</g>
				</g>
			</g>
		</g>
	</g>
	<g>
		<g>
			<g>
				<g>
					<defs>
						<rect id="SVGID_00000152258638644142029430000007433829239499448706_" y="0" width="500" height="300"/>
					</defs>
					<clipPath id="SVGID_00000001623765126829258010000002484186123202737330_">
						<use xlink:href="#SVGID_00000152258638644142029430000007433829239499448706_"  style="overflow:visible;"/>
					</clipPath>
					<g style="opacity:0.2;clip-path:url(#SVGID_00000001623765126829258010000002484186123202737330_);">
						<path class="st2" d="M356.8,64.9c0-7.6,0-15.1,0-22.7c0.6,0,1.4,0,2,0c39.6,0,79.2-0.5,118.8,0.2
							c31.2,0.5,55.7,13.9,71.6,41.3c8.5,14.5,11.1,30.5,9.4,47.2c-1.7,16.3-7.9,30.6-18.7,42.9c-12.9,14.8-29.2,23.4-48.4,26.6
							c-5.2,0.9-10.7,1.2-16,1.2c-23.3,0.2-46.6,0-69.7,0c-5,0-9.9,0.6-14.5,2.9c-6.9,3.5-10,9.7-11.3,16.9
							c-0.9,4.9-1.4,9.9-1.4,14.8c-0.2,8.5,0,17.1,0,25.4c0,0.6,0,1.4,0,2.1c-7.6,0-14.9,0-22.5,0c0-0.5-0.2-0.9-0.2-1.4
							c0-10.2-0.2-20.4,0-30.6c0.3-11.3,2.3-22.1,8.2-31.8c7.8-12.5,19.2-19,33.6-20.7c3-0.3,6.1-0.5,9.3-0.5c23.4,0,46.7,0,70.2,0
							c14.2,0,26.8-4.3,38.1-12.9c25.4-19.8,28.6-57.7,6.9-81.5c-11.7-12.8-26.6-19.2-44-19.5c-16.6-0.3-33.2-0.2-49.6-0.2
							c-23,0-46,0-68.8,0C358.6,64.9,357.9,64.9,356.8,64.9z"/>
						<path class="st2" d="M355.9,182.7c-0.2-10,1.1-19.8,5.3-28.8c5.9-12.6,16.4-19.5,29.8-21.9c4.6-0.9,9.4-1.2,14.2-1.2
							c24.2-0.2,48.4,0,72.6-0.2c2.1,0,4.3-0.5,6.2-1.4c3-1.4,4.9-4,4.7-7.5c-0.2-3.5-2-5.9-5-7.2c-1.8-0.8-4-1.2-6.1-1.2
							c-21.2-0.2-42.3,0-63.5,0c-18.3,0-36.4,0-54.7,0c-1.7,0-2.3-0.5-2.3-2.3c0.2-6.2,0.2-12.5,0-18.9c0-1.4,0.5-1.8,1.8-1.8
							c40.2,0,80.2,0,120.4,0c14.6,0,27.4,9.9,31.1,23.4c4,15.1-3.8,30.6-18.6,36.7c-4,1.7-8.2,2.6-12.6,2.6c-25.9,0-51.8,0-77.5,0
							c-7.3,0-14.5,0.9-21.3,3.5c-11.6,4.3-19.3,12.3-23.6,23.9C356.5,181.5,356.2,182.1,355.9,182.7z"/>
					</g>
				</g>
			</g>
			<g>
				<g>
					<defs>
						<rect id="SVGID_00000057109459888704370530000002576370038585179015_" y="0" width="500" height="300"/>
					</defs>
					<clipPath id="SVGID_00000108300042475930193470000002548579470546345114_">
						<use xlink:href="#SVGID_00000057109459888704370530000002576370038585179015_"  style="overflow:visible;"/>
					</clipPath>
					
						<linearGradient id="SVGID_00000141454498683982255110000017482415476188893056_" gradientUnits="userSpaceOnUse" x1="1349.8589" y1="138.0883" x2="1350.3589" y2="138.0883" gradientTransform="matrix(1 0 0 -1 0 299.8898)">
						<stop  offset="0" style="stop-color:#FFAA33"/>
						<stop  offset="1" style="stop-color:#FF9A0D"/>
					</linearGradient>
					
						<path style="display:none;opacity:0.15;clip-path:url(#SVGID_00000108300042475930193470000002548579470546345114_);fill:url(#SVGID_00000141454498683982255110000017482415476188893056_);enable-background:new    ;" d="
						M473.4,30.3v163c-0.2,10.4-4.5,20.1-11.9,27.5c-7.6,7.6-17.8,11.8-28.6,11.8c-22.3,0-40.4-18.1-40.4-40.4V30.3l40.4-20.2
						L473.4,30.3L473.4,30.3z M447.4,251.1c-14.2,13.3-33.3,21.5-54.1,21.7c-44.7,0.4-81.4-36.9-81.4-81.6V127h-0.3V83.3
						c0-7.6,4.3-14.7,11.2-18l49.5-24.8v150.9c0,33.5,27.4,61.6,60.9,61.6C438,252.9,442.8,252.3,447.4,251.1L447.4,251.1z
						 M554.3,83.2V191c0,66.9-53.7,122.1-120.6,122.5c-28.6,0.2-55.1-9.6-75.9-26c10.6,3.9,21.9,6,33.8,6.1
						c56.3,0.5,102.4-46.1,102.4-102.4V40.6l49.2,24.6C549.9,68.6,554.3,75.7,554.3,83.2L554.3,83.2L554.3,83.2z"/>
				</g>
			</g>
		</g>
	</g>
</g>
<g class="st4">
	<path class="st5" d="M204.6,163.3c-1.7,0-3.3-0.3-4.7-0.9c-1.4-0.6-2.4-1.5-3.2-2.6s-1.2-2.4-1.2-3.8h3.7c0.1,1.2,0.6,2.3,1.5,3.1
		s2.2,1.2,3.9,1.2s2.9-0.4,3.9-1.2s1.4-1.9,1.4-3.2c0-1-0.3-1.8-0.8-2.5c-0.6-0.6-1.2-1.1-2.1-1.4s-2-0.7-3.4-1.1
		c-1.7-0.4-3.1-0.9-4.2-1.4c-1-0.4-1.9-1.2-2.7-2.1c-0.7-1-1.1-2.3-1.1-3.9c0-1.4,0.4-2.7,1.1-3.8c0.7-1.1,1.8-2,3.1-2.6
		s2.9-0.9,4.6-0.9c2.5,0,4.5,0.6,6.1,1.9c1.6,1.2,2.5,2.9,2.7,4.9h-3.8c-0.1-1-0.7-1.9-1.6-2.6c-0.9-0.8-2.2-1.2-3.7-1.2
		c-1.4,0-2.6,0.4-3.5,1.1c-0.9,0.7-1.4,1.8-1.4,3.1c0,1,0.3,1.7,0.8,2.4c0.6,0.6,1.2,1.1,2,1.4c0.8,0.3,1.9,0.7,3.4,1.1
		c1.7,0.5,3.1,1,4.2,1.4c1.1,0.4,2,1.2,2.7,2.2c0.8,1,1.1,2.3,1.1,3.9c0,1.3-0.3,2.5-1,3.6s-1.7,2.1-3,2.8S206.4,163.3,204.6,163.3
		L204.6,163.3z M221.9,146.1c0.7-1.2,1.7-2.2,3-3c1.4-0.8,2.9-1.2,4.7-1.2s3.5,0.4,5,1.3c1.5,0.9,2.7,2.1,3.6,3.8
		c0.9,1.6,1.3,3.4,1.3,5.6s-0.4,4-1.3,5.6s-2.1,2.9-3.6,3.8c-1.5,0.9-3.2,1.4-5,1.4s-3.3-0.4-4.7-1.2c-1.3-0.8-2.4-1.8-3.1-3v13.7
		h-3.4v-30.6h3.4v3.8L221.9,146.1L221.9,146.1z M236,152.6c0-1.6-0.3-2.9-0.9-4.1c-0.6-1.2-1.5-2.1-2.6-2.6
		c-1.1-0.6-2.2-0.9-3.5-0.9s-2.4,0.3-3.5,0.9c-1.1,0.6-1.9,1.5-2.6,2.7c-0.6,1.2-0.9,2.5-0.9,4.1s0.3,2.9,0.9,4.1
		c0.7,1.2,1.5,2.1,2.6,2.7c1.1,0.6,2.3,0.9,3.5,0.9s2.5-0.3,3.5-0.9c1.1-0.6,1.9-1.5,2.6-2.7C235.6,155.6,236,154.2,236,152.6
		L236,152.6z M263,151.9c0,0.7,0,1.4-0.1,2.1h-16.6c0.1,2.1,0.8,3.6,2.1,4.8c1.3,1.1,2.8,1.7,4.7,1.7c1.5,0,2.7-0.3,3.7-1
		s1.7-1.6,2.1-2.8h3.7c-0.6,2-1.7,3.6-3.3,4.9c-1.7,1.2-3.7,1.9-6.2,1.9c-2,0-3.7-0.4-5.3-1.3c-1.5-0.9-2.8-2.1-3.6-3.8
		c-0.9-1.6-1.3-3.5-1.3-5.7s0.4-4,1.3-5.6c0.9-1.6,2.1-2.9,3.6-3.7c1.6-0.9,3.4-1.3,5.4-1.3s3.7,0.4,5.2,1.3s2.7,2.1,3.5,3.6
		C262.6,148.3,263,150,263,151.9L263,151.9z M259.4,151.1c0-1.3-0.3-2.4-0.9-3.4s-1.4-1.7-2.4-2.2s-2.1-0.8-3.3-0.8
		c-1.7,0-3.2,0.6-4.5,1.7c-1.2,1.1-1.9,2.6-2.1,4.6L259.4,151.1L259.4,151.1z M266.2,152.6c0-2.1,0.4-4,1.3-5.6s2-2.9,3.6-3.8
		c1.5-0.9,3.3-1.3,5.3-1.3c2.5,0,4.6,0.6,6.3,1.9c1.7,1.2,2.8,3,3.3,5.1h-3.7c-0.4-1.3-1-2.3-2.1-3c-1-0.7-2.3-1.1-3.8-1.1
		c-2,0-3.6,0.7-4.8,2.1c-1.2,1.3-1.8,3.2-1.8,5.7s0.6,4.4,1.8,5.8c1.2,1.4,2.8,2.1,4.8,2.1c1.5,0,2.8-0.4,3.8-1.1
		c1-0.7,1.7-1.7,2.1-3h3.7c-0.6,2.1-1.7,3.8-3.3,5.1c-1.7,1.3-3.8,1.9-6.2,1.9c-2,0-3.7-0.4-5.3-1.3c-1.5-0.9-2.7-2.1-3.6-3.8
		S266.2,154.8,266.2,152.6L266.2,152.6z M294.7,145.1v12.2c0,1,0.2,1.7,0.6,2.2c0.4,0.4,1.2,0.6,2.2,0.6h2.5v2.9h-3
		c-1.9,0-3.4-0.4-4.3-1.3c-1-0.9-1.4-2.3-1.4-4.4v-12.2h-2.7v-2.8h2.7V137h3.5v5.2h5.4v2.8h-5.5L294.7,145.1L294.7,145.1z
		 M307.8,145.6c0.6-1.2,1.5-2.1,2.6-2.8s2.5-1,4.1-1v3.6h-0.9c-3.9,0-5.8,2.1-5.8,6.3V163h-3.5v-20.8h3.5L307.8,145.6L307.8,145.6z
		 M337.4,151.9c0,0.7,0,1.4-0.1,2.1h-16.6c0.1,2.1,0.8,3.6,2.1,4.8c1.3,1.1,2.8,1.7,4.7,1.7c1.5,0,2.7-0.3,3.7-1s1.7-1.6,2.1-2.8
		h3.7c-0.6,2-1.7,3.6-3.3,4.9c-1.7,1.2-3.7,1.9-6.2,1.9c-2,0-3.7-0.4-5.3-1.3c-1.5-0.9-2.8-2.1-3.6-3.8c-0.9-1.6-1.3-3.5-1.3-5.7
		s0.4-4,1.3-5.6s2.1-2.9,3.6-3.7c1.6-0.9,3.4-1.3,5.4-1.3s3.7,0.4,5.2,1.3c1.5,0.9,2.7,2.1,3.5,3.6C337,148.3,337.4,150,337.4,151.9
		L337.4,151.9z M333.8,151.1c0-1.3-0.3-2.4-0.9-3.4s-1.4-1.7-2.4-2.2s-2.1-0.8-3.3-0.8c-1.7,0-3.2,0.6-4.5,1.7
		c-1.2,1.1-1.9,2.6-2.1,4.6L333.8,151.1L333.8,151.1z M367.7,157.1h-11.5L354,163h-3.6l9.5-26.2h4l9.5,26.2h-3.6L367.7,157.1z
		 M366.7,154.4l-4.8-13.3l-4.8,13.3H366.7L366.7,154.4z M381,136.6V163h-3.5v-26.4H381z"/>
	
		<linearGradient id="SVGID_00000119100656644880842060000009517340311081240964_" gradientUnits="userSpaceOnUse" x1="-446.8523" y1="4158.1128" x2="-383.1123" y2="4201.7329" gradientTransform="matrix(1 0 0 1 564 -4029.8899)">
		<stop  offset="0" style="stop-color:#917EFE"/>
		<stop  offset="1" style="stop-color:#FFFFFF"/>
	</linearGradient>
	
		<circle style="display:inline;fill:#1D1C25;stroke:url(#SVGID_00000119100656644880842060000009517340311081240964_);stroke-width:0.63;" cx="149.7" cy="150.5" r="30.7"/>
	
		<linearGradient id="SVGID_00000133486896705030259810000001519188155327086508_" gradientUnits="userSpaceOnUse" x1="-414.5114" y1="4162.3496" x2="-414.5014" y2="4192.3501" gradientTransform="matrix(1 0 0 1 564 -4029.8899)">
		<stop  offset="0" style="stop-color:#917EFE"/>
		<stop  offset="1" style="stop-color:#FFFFFF"/>
	</linearGradient>
	<path style="display:inline;fill:url(#SVGID_00000133486896705030259810000001519188155327086508_);" d="M143.9,163
		c-1-1.8-2.4-3.2-4-4.5C141.8,158.8,144,161.3,143.9,163z M154.6,163c1-1.8,2.4-3.2,3.9-4.5C156.7,158.9,154.6,161.2,154.6,163z
		 M158.9,142.5c-0.7-1.2-1.2-2.4-1.5-3.7C156.8,139.9,157.8,142.1,158.9,142.5z M141.8,138.9c-0.5,1.1-1,2.4-1.4,3.6
		C141.6,141.9,142.2,140,141.8,138.9z M163,150.1c-0.4,6.8-9.3,7.9-9.1,14.1c-0.9-0.8-1.2-1.9-0.8-3.1c0,0,0,0-0.1,0
		c-0.7,1.4-1.1,3-0.8,4.5c0.1,0.4-0.1,0.2-0.3,0l0,0c-0.4-0.7-0.6-1.5-0.7-2.2h-0.1c-0.6,1.8-0.7,3.7-1.6,5.4
		c-0.4-1.6-1-3.1-1.3-4.7c-0.1-0.2-0.3-0.8-0.3-0.8s-0.1,0.6-0.1,0.8c0.1,0.8-0.4,1.4-0.8,1.9c-0.2-1.2-0.1-2.5-0.4-3.7l0,0
		c-0.1-0.1-0.3-0.6-0.4-0.8c0.1,1-0.2,2-1,2.8c0.2-4.8-5-6.5-7.4-9.8c-2.5-3.5-2.9-9.4,0.9-12.1c-1.4,2.2-0.9,4.8,0.4,6.9
		c0.1,0.1,0.3,0.3,0.3,0.1c-0.7-1.5-0.4-3.2,0.4-4.6c2.2-2.1,2.9-5,3.4-8.1c1.8,2.6,0.9,6-0.6,8.4l0,0c0,0.1-0.1,0.1-0.1,0.2
		c4.2-2.3,5.4-8.4,6.8-12.8c1.2,4,2.2,8,4.9,11.3c0.6,0.6,1.3,1.1,1.9,1.6c-1.4-2.6-2.3-5.8-0.9-8.6c0.1,0,0.1,0,0.2,0
		c0.5,2.6,0.9,5.6,3,7.5c1.1,1.4,1.4,3.1,0.9,4.8c-0.1,0.1,0,0.2,0,0.3c0.1,0.1,0.1-0.1,0.2-0.1c1.4-2.1,1.7-4.7,0.5-6.9
		C162.7,144.1,163.4,147.2,163,150.1L163,150.1L163,150.1z M152.2,154.1c-0.1,0.1-0.1,0.2-0.1,0.3c2,0,4.2-1.1,5.1-2.8
		c0.3-0.7,0.8-1.7,0.5-2.5C155.6,150.5,153.8,152.3,152.2,154.1L152.2,154.1L152.2,154.1z M145.7,146.2
		C145.7,146.2,145.7,146.3,145.7,146.2c1.9-0.9,2.9-2.5,3.9-4.2c1,1.7,2,3.3,3.8,4.2c0,0,0-0.1,0.1-0.1c-2-1.7-2.9-4.3-3.9-6.7
		C148.7,142,147.7,144.5,145.7,146.2L145.7,146.2L145.7,146.2z M142.2,152c1.4,2,3.9,2.6,5.1,2.5c-1.7-2-3.5-4.1-5.9-5.3
		C141.3,149.9,141.5,150.5,142.2,152L142.2,152z M159.2,151.3C159.2,151.3,159.1,151.3,159.2,151.3c-3.3,7.1-8.1,4.4-9.7,9.5
		c-2.3-5.4-7-2.9-9.6-9.6c0,0-0.1,0-0.1,0.1c2.2,8.2,8.4,3.8,9.7,12.2h0.1c0-0.3,0.1-0.5,0.1-0.8
		C150.8,155.4,156.9,159.5,159.2,151.3L159.2,151.3L159.2,151.3z"/>
</g>
<g>
	<path class="st8" d="M103.3,171.1c0.1-0.4,0.2-0.8,0.2-1.2c0.3-2.6,0.9-5.1,2.3-7.3c1.9-2.9,4.6-4.6,8-5.2c0.9-0.1,1.8-0.2,2.8-0.2
		c6.2,0,12.5,0,18.7,0c3.6,0,6.8-1,9.7-3.2c3.3-2.5,5.3-5.9,6-10.1c0.7-4.7-0.4-9-3.4-12.7c-2.6-3.1-6-4.9-10-5.4
		c-0.8-0.1-1.7-0.1-2.5-0.1c-10.1,0-20.3,0-30.4,0c-0.2,0-0.5,0-0.8,0c0-0.2,0-0.4,0-0.6c0-1.7,0-3.4,0-5c0-0.2,0-0.4,0-0.6
		c11,0,22.1,0,33.1,0c0.4,0.1,0.9,0.1,1.3,0.2c9.2,1.1,16.6,7.8,18.5,17c1.2,5.8,0.5,11.3-2.6,16.4c-3.3,5.5-8.2,8.9-14.5,10.1
		c-1.4,0.3-2.8,0.4-4.3,0.4c-6.2,0-12.4,0-18.6,0c-0.7,0-1.5,0.1-2.2,0.2c-1.9,0.4-3.3,1.6-4,3.4c-0.5,1.3-0.8,2.6-0.9,4
		c0,0.6-0.1,1.2-0.1,1.9c0,2.4,0,4.8,0,7.1c0,0.2,0,0.4-0.1,0.7c-2,0-4,0-6,0C103.3,177.5,103.3,174.3,103.3,171.1z"/>
	<path class="st8" d="M103.3,156.9c0.1-0.4,0.2-0.8,0.2-1.2c0.2-1.6,0.5-3.2,1.1-4.7c1.4-3.5,3.9-5.7,7.5-6.6
		c1.4-0.4,2.7-0.5,4.1-0.5c6.4,0,12.9,0,19.3,0c0.4,0,0.9,0,1.3-0.2c1.1-0.3,1.8-1.3,1.7-2.3c0-1-0.8-1.9-1.9-2.2
		c-0.4-0.1-0.7-0.1-1.1-0.1c-10.3,0-20.6,0-30.9,0c-0.2,0-0.5,0-0.8,0c0-2.1,0-4.1,0-6.3c0.2,0,0.4,0,0.6,0c10.5,0,21,0,31.4,0
		c4.6,0,8.8,3.8,8.7,9c-0.1,4.2-3.4,7.7-7.6,8.2c-0.5,0.1-1,0.1-1.5,0.1c-6.6,0-13.1,0-19.7,0c-1.6,0-3.2,0.2-4.7,0.6
		c-3.7,1-6.1,3.4-7.4,7c-0.1,0.2-0.2,0.5-0.3,0.7C103.3,157.9,103.3,157.4,103.3,156.9z"/>
	<path class="st8" d="M364.3,132.8c3.3,0,6.6,0,9.9,0c4.5,12,9.1,24,13.6,36.1c-1.9,0-3.6,0-5.5,0c-1.4-3.6-2.7-7.1-4.1-10.8
		c-5.9,0-11.7,0-17.7,0c-1.3,3.6-2.7,7.2-4,10.8c-1.8,0-3.6,0-5.4,0C355.5,156.9,359.9,144.9,364.3,132.8z M369.3,134.7
		c-0.6,1.2-7.1,19-7.2,19.5c4.8,0,9.7,0,14.6,0C374.2,147.7,371.7,141.2,369.3,134.7z"/>
	<path class="st8" d="M181.6,169c-1.7,0-3.4,0-5.1,0c0-12.1,0-24.1,0-36.2c0.1,0,0.3,0,0.4,0c6.3,0,12.6,0,18.9,0
		c3.2,0,6,1.1,8.3,3.4c5,4.9,3.4,13.4-2.7,16.2c-1.9,0.9-3.9,1.3-5.9,1.3c-2.3,0-4.6,0-7,0c-1.5,0-3,0.3-4.3,1.2
		c-0.5,0.3-1,0.7-1.4,1.1c-0.9,0.9-1.3,1.9-1.3,3.2c0,3.1,0,6.2,0,9.2C181.6,168.5,181.6,168.7,181.6,169z M181.7,136.7
		c0,6.8,0,13.5,0,20.1c0.1-0.1,0.1-0.2,0.1-0.3c0.2-1.3,0.4-2.5,0.9-3.7s1.3-2.1,2.5-2.6c0.9-0.4,1.8-0.6,2.8-0.6c2.5,0,4.9,0,7.4,0
		c2.1,0,3.7-0.8,5-2.4c2.6-3.2,1.5-7.2-0.9-9.2c-1.2-1-2.6-1.4-4.1-1.4c-4.4,0-8.8,0-13.2,0C182.1,136.7,181.9,136.7,181.7,136.7z"
		/>
	<path class="st8" d="M337,156.5c-7.6,0-15.1,0-22.7,0c0.1,1.6,0.4,3.1,1.1,4.5c1,1.9,2.4,3.2,4.4,4c3.8,1.6,9.5,0.4,11.6-4.9
		c1.7,0,3.3,0,5.1,0c-0.1,0.3-0.1,0.5-0.2,0.7c-1.3,3.9-4,6.6-7.9,7.9c-3.6,1.2-7.3,1.1-10.9-0.2c-3.6-1.4-6.1-3.9-7.3-7.6
		c-1.2-3.6-1.2-7.2,0-10.8c1.3-3.8,3.9-6.4,7.6-7.7c3.5-1.2,7.1-1.2,10.6,0c4.4,1.5,7.1,4.7,8.2,9.2c0.4,1.5,0.5,3,0.4,4.5
		C337,156.3,337,156.4,337,156.5z M331.8,152.9c-0.8-4.2-4.5-7.6-9.3-7.3c-2.1,0.1-3.9,1-5.4,2.5c-1.3,1.3-2.1,2.9-2.5,4.8
		C320.3,152.9,326.1,152.9,331.8,152.9z"/>
	<path class="st8" d="M258.5,148.3c0.7-1.9,1.8-3.4,3.3-4.5c1.4-1,3-1.6,4.7-1.9c3.2-0.5,6.4-0.2,9.4,1c1.2,0.5,2.3,1.2,3.2,2.1
		c1.1,1.1,1.7,2.5,1.7,4c0,6.5,0,13,0,19.5c0,0.1,0,0.3,0,0.4c-1.7,0-3.4,0-5.1,0c0-2.1,0-4.1,0-6.2h-0.1c-0.1,0.2-0.1,0.5-0.2,0.7
		c-0.2,0.9-0.5,1.7-0.9,2.5c-1.1,2-2.9,3.1-5.1,3.4c-3.3,0.5-6.4-0.1-9.2-2c-1.9-1.3-3.2-3.1-3.5-5.4c-0.5-3.2,0.7-5.7,3.2-7.7
		c1.6-1.2,3.5-1.9,5.6-2.2c1-0.1,2-0.2,3-0.2c1.3,0,2.6,0,3.9,0c0.5,0,1-0.1,1.4-0.2c2.4-0.9,2.2-3.5,1-4.7
		c-0.4-0.4-0.9-0.7-1.5-0.9c-2.1-0.6-4.2-0.8-6.4-0.2c-1.2,0.3-2.3,1-2.9,2.1c-0.1,0.2-0.2,0.3-0.5,0.3c-1.6,0-3.2,0-4.8,0
		C258.7,148.3,258.7,148.3,258.5,148.3z M275.7,151.1h-0.1c0,0.1,0,0.2,0,0.3c-0.2,0.9-0.4,1.8-0.9,2.5c-0.7,1-1.6,1.6-2.9,1.6
		c-0.5,0-0.9,0-1.4,0c-1.1,0-2.3,0-3.4,0.1c-1.4,0.1-2.6,0.6-3.7,1.5c-1.7,1.5-2.2,4.7-0.3,6.7c0.7,0.7,1.4,1.1,2.3,1.4
		c1.8,0.6,3.6,0.5,5.4,0c1.4-0.4,2.7-1,3.8-2c0.8-0.8,1.2-1.7,1.2-2.8c0-2.9,0-5.8,0-8.7C275.7,151.6,275.7,151.3,275.7,151.1z"/>
	<path class="st8" d="M215.9,148.3c-1.8,0-3.5,0-5.3,0c0.1-0.2,0.2-0.4,0.2-0.6c1.2-2.7,3.2-4.5,6.1-5.4c1.6-0.5,3.2-0.7,4.9-0.6
		c2,0,4,0.3,5.9,1.1c1.3,0.5,2.5,1.2,3.4,2.1c1.2,1.2,1.8,2.7,1.8,4.4c0,3.2,0,6.3,0,9.5s0,6.4,0,9.6c0,0.2,0,0.4,0,0.6
		c-1.7,0-3.4,0-5.2,0c0-2.1,0-4.3,0-6.4c0,0,0,0-0.1,0c-0.1,0.6-0.2,1.1-0.4,1.7c-0.9,3-2.9,4.8-6,5.2c-3.4,0.5-6.6-0.2-9.4-2.4
		c-1.7-1.3-2.8-2.9-3.1-5c-0.4-2.8,0.4-5.1,2.4-7c1.6-1.5,3.6-2.3,5.7-2.8c1.1-0.2,2.2-0.3,3.3-0.3c1.4,0,2.8,0,4.2,0
		c0.4,0,0.8,0,1.2-0.1c1.1-0.3,1.8-1,2-2.1c0.2-1.2-0.2-2.2-1.2-2.9c-0.4-0.3-1-0.6-1.5-0.7c-1.9-0.5-3.8-0.6-5.7-0.2
		C217.9,146.2,216.7,146.9,215.9,148.3z M227.7,150.9c-0.2,0.9-0.4,1.8-0.8,2.6c-0.7,1.3-1.8,2.1-3.3,2.1c-1.2,0-2.4,0-3.6,0
		c-1.3,0-2.5,0.3-3.7,0.9c-2.8,1.5-3.4,5.4-1.2,7.5c0.7,0.6,1.4,1.1,2.3,1.4c3.1,0.8,5.9,0.3,8.6-1.5c0.3-0.2,0.5-0.4,0.7-0.6
		c0.7-0.7,1-1.6,1-2.6c0-3,0-5.9,0-8.9C227.7,151.4,227.7,151.2,227.7,150.9z"/>
	<path class="st8" d="M304,132.8c0,12.1,0,24.1,0,36.2c-1.7,0-3.4,0-5.1,0c0-12,0-24.1,0-36.2C300.6,132.8,302.3,132.8,304,132.8z"
		/>
	<path class="st8" d="M287.2,132.8c1.7,0,3.3,0,5,0c0.1,0.4,0.2,35.2,0,36.2c-1.7,0-3.3,0-5,0C287.2,156.9,287.2,144.9,287.2,132.8z
		"/>
	<path class="st8" d="M342.3,169c0-12.1,0-24.1,0-36.2c1.7,0,3.3,0,5,0c0.1,0.4,0.2,35.1,0,36.2C345.7,169,344,169,342.3,169z"/>
	<path class="st8" d="M396.6,169c-1.6,0-3.3,0-4.9,0l0,0l0,0c0-0.2,0-0.4,0-0.6c0-11.8,0-23.5,0-35.3c0-0.1,0-0.1,0.1-0.2
		c1.6,0,3.3,0,4.9,0l0,0l0,0c0,0.1,0,0.3,0,0.4c0,11.8,0,23.6,0,35.4C396.7,168.8,396.6,168.9,396.6,169z"/>
	<path class="st8" d="M239.3,142.4c1.7,0,3.3,0,5.1,0c0,2.7,0,5.3,0,8.1c0.2-1,0.3-1.8,0.6-2.7c0.4-1.6,1.1-3,2.2-4.2
		c0.8-0.9,1.7-1.5,2.9-1.7c0.5-0.1,1-0.1,1.5-0.1c1.1,0,2.2,0.2,3.4,0.6c0,1.4,0,2.7,0,4.1c-0.6-0.1-1.1-0.3-1.7-0.4
		c-1.4-0.2-2.8-0.3-4.2,0c-2.3,0.5-3.7,2-4.3,4.2c-0.2,0.6-0.2,1.3-0.2,2c0,5.3,0,10.7,0,16c0,0.2,0,0.4,0,0.7c-1.7,0-3.4,0-5.1,0
		C239.3,160.1,239.3,151.3,239.3,142.4z"/>
</g>
</svg>
