<?xml version="1.0" encoding="utf-8"?>
<!-- Generator: Adobe Illustrator 28.4.1, SVG Export Plug-In . SVG Version: 6.00 Build 0)  -->
<svg version="1.1" id="Layer_4" xmlns="http://www.w3.org/2000/svg" xmlns:xlink="http://www.w3.org/1999/xlink" x="0px" y="0px"
	 viewBox="0 0 500 300" style="enable-background:new 0 0 500 300;" xml:space="preserve">
<style type="text/css">
	
		.st0{clip-path:url(#SVGID_00000113320495532311878200000013238375761178486675_);fill:url(#SVGID_00000173159844494656808170000002170370677491120799_);}
	.st1{opacity:8.000000e-02;clip-path:url(#SVGID_00000028309488644700677590000007887703633344317375_);}
	.st2{fill:#FFF001;}
	
		.st3{display:none;opacity:0.15;clip-path:url(#SVGID_00000028309488644700677590000007887703633344317375_);fill:url(#SVGID_00000028294702268261175480000011730161850278642602_);enable-background:new    ;}
	.st4{display:none;}
	.st5{display:inline;fill:#FFFFFF;}
	.st6{display:inline;fill:#1D1C25;stroke:url(#SVGID_00000065069745012940349930000006846151076001830830_);stroke-width:0.63;}
	.st7{display:inline;fill:url(#SVGID_00000030463104706460897410000011052237746999093146_);}
	.st8{fill:#FFFFFF;}
</style>
<g>
	<g>
		<g>
			<g>
				<defs>
					<rect id="SVGID_1_" y="0" width="500" height="300"/>
				</defs>
				<clipPath id="SVGID_00000171679343737609517790000016324576420409392026_">
					<use xlink:href="#SVGID_1_"  style="overflow:visible;"/>
				</clipPath>
				
					<linearGradient id="SVGID_00000113329483597485224100000003210636414582321292_" gradientUnits="userSpaceOnUse" x1="-99.4167" y1="7.4744" x2="478.8408" y2="243.1609" gradientTransform="matrix(1 0 0 -1 0 299.8898)">
					<stop  offset="0" style="stop-color:#494200"/>
					<stop  offset="0.9283" style="stop-color:#000105"/>
				</linearGradient>
				
					<rect y="0" style="clip-path:url(#SVGID_00000171679343737609517790000016324576420409392026_);fill:url(#SVGID_00000113329483597485224100000003210636414582321292_);" width="500" height="300"/>
			</g>
		</g>
	</g>
	<g>
		<g>
			<defs>
				<rect id="SVGID_00000067201849354127663380000014066312839290678696_" y="0" width="500" height="300"/>
			</defs>
			<clipPath id="SVGID_00000147186834711047884940000002451707317289735582_">
				<use xlink:href="#SVGID_00000067201849354127663380000014066312839290678696_"  style="overflow:visible;"/>
			</clipPath>
			<g style="opacity:8.000000e-02;clip-path:url(#SVGID_00000147186834711047884940000002451707317289735582_);">
				<path class="st2" d="M382.2,260.3h88.1h36h88.1c17.2,0,31.2-14,31.2-31.2v-153c0-17.2-14-31.2-31.2-31.2h-88.1h-36h-88.1
					C365,45,351,58.9,351,76.1v153C351,246.4,365,260.3,382.2,260.3z M367.9,93c0-17.2,14-31.2,31.2-31.2h71.3h36h71.3
					c17.2,0,31.2,14,31.2,31.2v117.5c0,17.2-14,31.2-31.2,31.2h-71.3h-36h-71.3c-17.2,0-31.2-14-31.2-31.2V93z"/>
				<circle class="st2" cx="418.6" cy="207.8" r="16.4"/>
				
					<ellipse transform="matrix(0.7071 -0.7071 0.7071 0.7071 16.4941 455.4526)" class="st2" cx="558" cy="207.8" rx="16.4" ry="16.4"/>
				<polygon class="st2" points="446,187.7 450.4,228 454,228 449.9,187.7 				"/>
				<polygon class="st2" points="456,187.7 459.4,228 463,228 460,187.7 				"/>
				<polygon class="st2" points="466.1,187.7 468.5,228 472,228 470.1,187.7 				"/>
				<polygon class="st2" points="476.2,187.7 477.5,228 481.1,228 480.2,187.7 				"/>
				<polygon class="st2" points="486.5,228 490.1,228 490.3,187.7 486.3,187.7 				"/>
				<polygon class="st2" points="495.6,228 499.1,228 500.4,187.7 496.4,187.7 				"/>
				<polygon class="st2" points="504.6,228 508.2,228 510.5,187.7 506.5,187.7 				"/>
				<polygon class="st2" points="513.6,228 517.2,228 520.6,187.7 516.6,187.7 				"/>
				<polygon class="st2" points="522.7,228 526.2,228 530.7,187.7 526.7,187.7 				"/>
				<g>
					<path class="st2" d="M586.8,87.8c-1.6,1.3-3.2,2.8-4.9,4.3c-0.3,0.3-3.1,2.6-7.7-0.3l-0.3-0.2c0,0-2.3-1.2-7.5-5.3
						c-1.1-1-10.8-9.4-20.7-9.1c-1.8-0.1-9.4-0.1-16.6,6.7l-5,4.6c-1.2,1.2-3.5,2.6-4.5,2.2l-1.2-0.4c-0.8-0.4-2.6-1.5-6.1-4.2
						c-0.9-0.7-8.6-6.5-15.4-7.7c-1.6-0.4-11.6-2.5-20.2,2.2c-0.7,0.4-4.1,2.1-9.6,7.2l-0.2,0.2c-0.9,0.9-3.2,2.9-4.9,2.7l-0.5,0
						c-0.5,0-2.3-0.3-4.9-1.7c-0.8-0.5-3.1-1.9-6.9-4.9c-1.1-1-10.8-9.4-20.7-9.1c-1.8-0.1-9.4-0.1-16.6,6.7l-5,4.6
						c-1.2,1.2-3.4,2.6-4.5,2.2l-1.2-0.4c-0.8-0.4-2.6-1.5-6.1-4.2c0,0-2.8-2.2-6.6-4.3l-7.4-4.1v20.6l2.1,1.5
						c1.3,0.9,2.6,1.9,3.7,2.8c1.2,1,10,8.1,20,5.8c1.4-0.2,7-1.5,12.1-6.8c1.1-1.2,4.9-4.8,7.4-6.1c0.1,0,2-1,4.6,0.3
						c0.1,0.1,3.6,2,6.7,4.5c0.4,0.3,3.5,2.6,6.5,4.7v0.3l2.5,1.4c0.6,0.3,1.2,0.6,1.6,0.9l0.2,0.1c0,0,0.6,0.4,1.6,0.8
						c1.4,0.7,4.2,1.9,7.7,2.3c4.3,0.7,8.3,0.3,11.7-1.2c0.3-0.1,3-1.1,6.1-3.4l2-1.5v-0.6c0.3-0.3,0.6-0.6,0.9-0.9
						c2-2.1,6.3-5.3,8.8-5.4l0.2,0c0.2,0,4.9-0.5,8.8,1.9c0,0,3.4,2.1,7.1,5c1,0.8,9.9,8.2,20,5.9c1.4-0.2,7-1.5,12.1-6.8
						c1.1-1.2,4.9-4.8,7.3-6.1c0.1,0,2.1-1.1,4.6,0.3c0.1,0.1,3.6,2,6.7,4.5c0.3,0.2,7.3,5.6,10.8,7.4c0.6,0.4,6.2,3.5,13.2,3.5
						c0,0,0,0,0,0c2.8,0,5.5-0.5,7.9-1.5c0.3-0.1,3-1.1,6.1-3.4l2-1.5V81.2L586.8,87.8z"/>
					<path class="st2" d="M581.9,126.3c-0.3,0.3-3.1,2.6-7.7-0.3l-0.3-0.2c0,0-2.3-1.2-7.5-5.3c-1.1-0.9-10.6-9.1-20.3-9.1
						c-0.1,0-0.2,0-0.3,0c-1.8-0.1-9.4,0-16.6,6.7l-5,4.6c-1.2,1.2-3.5,2.6-4.5,2.2l-1.2-0.4c-0.8-0.4-2.6-1.5-6.1-4.2
						c-0.9-0.7-8.6-6.5-15.4-7.7c-1.3-0.3-11.5-2.5-20.2,2.2c-0.7,0.4-4.1,2.1-9.6,7.2l-0.2,0.2c-0.9,0.9-3.2,2.8-5.1,2.7l-0.3,0
						c0,0-1.9-0.1-4.8-1.7c-0.8-0.5-3.1-1.9-6.9-4.9c-1.1-1-10.9-9.3-20.7-9.1c-1.8-0.1-9.4-0.1-16.6,6.7l-5,4.6
						c-1.2,1.2-3.5,2.6-4.5,2.2l-1.2-0.4c-0.8-0.4-2.6-1.5-6.1-4.2c-0.1-0.1-2.9-2.2-6.6-4.3l-7.4-4.1v20.6l2.1,1.5
						c1.3,0.9,2.6,1.9,3.7,2.8c1.2,1,10,8.1,20,5.8c1.4-0.2,7-1.5,12.1-6.8c1.7-1.8,5.1-5,7.4-6.1c0.1,0,2-1,4.6,0.3
						c0.1,0.1,3.6,2,6.7,4.5c0.4,0.3,3.5,2.6,6.5,4.7v0.3l2.5,1.4c0.6,0.3,1.2,0.6,1.6,0.9l0.2,0.1c0,0,0.6,0.4,1.6,0.8
						c1.4,0.7,4.3,1.9,7.7,2.3c4.3,0.7,8.3,0.3,11.7-1.2c0.3-0.1,3-1.1,6.1-3.4l2-1.5v-0.6c0.3-0.3,0.6-0.6,0.9-0.9
						c2-2.1,6.3-5.3,8.8-5.4l0.3,0c0.1,0,4.8-0.5,8.8,1.9c0.1,0.1,3.6,2.2,7.1,5c1,0.8,9.9,8.2,20,5.9c1.4-0.2,7-1.5,12.1-6.8
						c1.1-1.2,4.9-4.8,7.3-6.1c0.1,0,2.1-1,4.6,0.3c0.1,0.1,3.6,2,6.7,4.5c0.3,0.2,7.3,5.6,10.8,7.4c0.6,0.4,6.2,3.5,13.2,3.5
						c0,0,0,0,0,0c2.8,0,5.5-0.5,7.9-1.5c0.3-0.1,3-1.1,6.1-3.4l2-1.5v-23.7l-8.1,6.6C585.1,123.3,583.5,124.8,581.9,126.3z"/>
					<path class="st2" d="M581.9,161.4c-0.3,0.3-3.1,2.6-7.6-0.2l-0.5-0.3c0,0-2.3-1.2-7.5-5.3c-0.4-0.4-10.6-9.3-20.7-9.1
						c-1.8-0.1-9.4-0.1-16.6,6.7l-5,4.6c-1.2,1.2-3.4,2.6-4.5,2.2l-1.2-0.4c-0.8-0.4-2.6-1.5-6.1-4.2c-0.9-0.7-8.6-6.5-15.4-7.7
						c-1.6-0.4-11.6-2.5-20.2,2.2c-0.7,0.4-4.1,2.1-9.6,7.2l-0.2,0.2c-0.9,0.9-3.2,2.8-5.1,2.7l-0.3,0c0,0-1.9-0.1-4.8-1.7
						c-0.8-0.5-3.1-1.9-6.9-4.9c-1.1-1-10.9-9.4-20.7-9.1c-1.8-0.1-9.4-0.1-16.6,6.7l-5,4.6c-1.2,1.1-3.4,2.6-4.5,2.2l-1.2-0.4
						c-0.8-0.4-2.6-1.5-6.1-4.2c0,0-2.8-2.2-6.6-4.3l-7.4-4.1v20.6l2.1,1.5c1.3,0.9,2.6,1.9,3.7,2.8c1.2,1,10,8.1,20,5.8
						c1.4-0.2,7-1.5,12.1-6.8c1.1-1.2,4.9-4.8,7.3-6.1c0.1,0,2-1,4.6,0.3c0.1,0.1,3.6,2,6.7,4.5c0.4,0.3,3.5,2.6,6.5,4.7v0.3
						l2.5,1.4c0.6,0.4,1.2,0.7,1.6,0.9l0.2,0.1c0,0,0.6,0.4,1.6,0.8c1.4,0.7,4.3,1.9,7.7,2.3c4.3,0.7,8.3,0.3,11.7-1.2
						c0.3-0.1,3-1.1,6.1-3.4l2-1.5v-0.6c0.3-0.3,0.6-0.6,0.9-0.9c2-2.1,6.2-5.3,8.8-5.4l0.2,0c0.2,0,4.9-0.5,8.8,1.9
						c0,0,3.4,2.1,7.1,5c1,0.8,9.9,8.2,20,5.9c1.4-0.2,7-1.5,12.1-6.8c1.1-1.2,4.9-4.8,7.3-6.1c0.1,0,2.1-1.1,4.6,0.3
						c0.1,0.1,3.6,2,6.7,4.5c0.3,0.2,7.3,5.6,10.8,7.4c0.6,0.4,6.2,3.5,13.2,3.5c2.8,0,5.5-0.5,7.8-1.5c0.1,0,2.9-1.1,6.1-3.4l2-1.5
						v-23.7l-8.1,6.6C585.1,158.4,583.5,159.8,581.9,161.4z"/>
				</g>
			</g>
			
				<linearGradient id="SVGID_00000159448223594592782360000014054003806650262699_" gradientUnits="userSpaceOnUse" x1="432.95" y1="855.5031" x2="432.95" y2="441.7667" gradientTransform="matrix(1 0 0 1 0 -542)">
				<stop  offset="0" style="stop-color:#FFAA33"/>
				<stop  offset="1" style="stop-color:#FF9A0D"/>
			</linearGradient>
			
				<path style="display:none;opacity:0.15;clip-path:url(#SVGID_00000147186834711047884940000002451707317289735582_);fill:url(#SVGID_00000159448223594592782360000014054003806650262699_);enable-background:new    ;" d="
				M473.4,30.3v163c-0.2,10.4-4.5,20.1-11.9,27.5c-7.6,7.6-17.8,11.8-28.6,11.8c-22.3,0-40.4-18.1-40.4-40.4V30.3l40.4-20.2
				L473.4,30.3L473.4,30.3z M447.4,251.1c-14.2,13.3-33.3,21.5-54.1,21.7c-44.7,0.4-81.4-36.9-81.4-81.6V127h-0.3V83.3
				c0-7.6,4.3-14.7,11.2-18l49.5-24.8v150.9c0,33.5,27.4,61.6,60.9,61.6C438,252.9,442.8,252.3,447.4,251.1L447.4,251.1z
				 M554.3,83.2V191c0,66.9-53.7,122.1-120.6,122.5c-28.6,0.2-55.1-9.6-75.9-26c10.6,3.9,21.9,6,33.8,6.1
				c56.3,0.5,102.4-46.1,102.4-102.4V40.6l49.2,24.6C549.9,68.6,554.3,75.7,554.3,83.2L554.3,83.2L554.3,83.2z"/>
		</g>
	</g>
</g>
<g class="st4">
	<path class="st5" d="M204.6,163.3c-1.7,0-3.3-0.3-4.7-0.9c-1.4-0.6-2.4-1.5-3.2-2.6s-1.2-2.4-1.2-3.8h3.7c0.1,1.2,0.6,2.3,1.5,3.1
		s2.2,1.2,3.9,1.2s2.9-0.4,3.9-1.2s1.4-1.9,1.4-3.2c0-1-0.3-1.8-0.8-2.5c-0.6-0.6-1.2-1.1-2.1-1.4s-2-0.7-3.4-1.1
		c-1.7-0.4-3.1-0.9-4.2-1.4c-1-0.4-1.9-1.2-2.7-2.1c-0.7-1-1.1-2.3-1.1-3.9c0-1.4,0.4-2.7,1.1-3.8c0.7-1.1,1.8-2,3.1-2.6
		s2.9-0.9,4.6-0.9c2.5,0,4.5,0.6,6.1,1.9c1.6,1.2,2.5,2.9,2.7,4.9h-3.8c-0.1-1-0.7-1.9-1.6-2.6c-0.9-0.8-2.2-1.2-3.7-1.2
		c-1.4,0-2.6,0.4-3.5,1.1c-0.9,0.7-1.4,1.8-1.4,3.1c0,1,0.3,1.7,0.8,2.4c0.6,0.6,1.2,1.1,2,1.4c0.8,0.3,1.9,0.7,3.4,1.1
		c1.7,0.5,3.1,1,4.2,1.4c1.1,0.4,2,1.2,2.7,2.2c0.8,1,1.1,2.3,1.1,3.9c0,1.3-0.3,2.5-1,3.6s-1.7,2.1-3,2.8S206.4,163.3,204.6,163.3
		L204.6,163.3z M221.9,146.1c0.7-1.2,1.7-2.2,3-3c1.4-0.8,2.9-1.2,4.7-1.2s3.5,0.4,5,1.3c1.5,0.9,2.7,2.1,3.6,3.8
		c0.9,1.6,1.3,3.4,1.3,5.6s-0.4,4-1.3,5.6s-2.1,2.9-3.6,3.8c-1.5,0.9-3.2,1.4-5,1.4s-3.3-0.4-4.7-1.2c-1.3-0.8-2.4-1.8-3.1-3v13.7
		h-3.4v-30.6h3.4v3.8L221.9,146.1L221.9,146.1z M236,152.6c0-1.6-0.3-2.9-0.9-4.1c-0.6-1.2-1.5-2.1-2.6-2.6
		c-1.1-0.6-2.2-0.9-3.5-0.9s-2.4,0.3-3.5,0.9c-1.1,0.6-1.9,1.5-2.6,2.7c-0.6,1.2-0.9,2.5-0.9,4.1s0.3,2.9,0.9,4.1
		c0.7,1.2,1.5,2.1,2.6,2.7c1.1,0.6,2.3,0.9,3.5,0.9s2.5-0.3,3.5-0.9c1.1-0.6,1.9-1.5,2.6-2.7C235.6,155.6,236,154.2,236,152.6
		L236,152.6z M263,151.9c0,0.7,0,1.4-0.1,2.1h-16.6c0.1,2.1,0.8,3.6,2.1,4.8c1.3,1.1,2.8,1.7,4.7,1.7c1.5,0,2.7-0.3,3.7-1
		s1.7-1.6,2.1-2.8h3.7c-0.6,2-1.7,3.6-3.3,4.9c-1.7,1.2-3.7,1.9-6.2,1.9c-2,0-3.7-0.4-5.3-1.3c-1.5-0.9-2.8-2.1-3.6-3.8
		c-0.9-1.6-1.3-3.5-1.3-5.7s0.4-4,1.3-5.6c0.9-1.6,2.1-2.9,3.6-3.7c1.6-0.9,3.4-1.3,5.4-1.3s3.7,0.4,5.2,1.3s2.7,2.1,3.5,3.6
		C262.6,148.3,263,150,263,151.9L263,151.9z M259.4,151.1c0-1.3-0.3-2.4-0.9-3.4s-1.4-1.7-2.4-2.2s-2.1-0.8-3.3-0.8
		c-1.7,0-3.2,0.6-4.5,1.7c-1.2,1.1-1.9,2.6-2.1,4.6L259.4,151.1L259.4,151.1z M266.2,152.6c0-2.1,0.4-4,1.3-5.6s2-2.9,3.6-3.8
		c1.5-0.9,3.3-1.3,5.3-1.3c2.5,0,4.6,0.6,6.3,1.9c1.7,1.2,2.8,3,3.3,5.1h-3.7c-0.4-1.3-1-2.3-2.1-3c-1-0.7-2.3-1.1-3.8-1.1
		c-2,0-3.6,0.7-4.8,2.1c-1.2,1.3-1.8,3.2-1.8,5.7s0.6,4.4,1.8,5.8c1.2,1.4,2.8,2.1,4.8,2.1c1.5,0,2.8-0.4,3.8-1.1
		c1-0.7,1.7-1.7,2.1-3h3.7c-0.6,2.1-1.7,3.8-3.3,5.1c-1.7,1.3-3.8,1.9-6.2,1.9c-2,0-3.7-0.4-5.3-1.3c-1.5-0.9-2.7-2.1-3.6-3.8
		S266.2,154.8,266.2,152.6L266.2,152.6z M294.7,145.1v12.2c0,1,0.2,1.7,0.6,2.2c0.4,0.4,1.2,0.6,2.2,0.6h2.5v2.9h-3
		c-1.9,0-3.4-0.4-4.3-1.3c-1-0.9-1.4-2.3-1.4-4.4v-12.2h-2.7v-2.8h2.7V137h3.5v5.2h5.4v2.8h-5.5L294.7,145.1L294.7,145.1z
		 M307.8,145.6c0.6-1.2,1.5-2.1,2.6-2.8s2.5-1,4.1-1v3.6h-0.9c-3.9,0-5.8,2.1-5.8,6.3V163h-3.5v-20.8h3.5L307.8,145.6L307.8,145.6z
		 M337.4,151.9c0,0.7,0,1.4-0.1,2.1h-16.6c0.1,2.1,0.8,3.6,2.1,4.8c1.3,1.1,2.8,1.7,4.7,1.7c1.5,0,2.7-0.3,3.7-1s1.7-1.6,2.1-2.8
		h3.7c-0.6,2-1.7,3.6-3.3,4.9c-1.7,1.2-3.7,1.9-6.2,1.9c-2,0-3.7-0.4-5.3-1.3c-1.5-0.9-2.8-2.1-3.6-3.8c-0.9-1.6-1.3-3.5-1.3-5.7
		s0.4-4,1.3-5.6s2.1-2.9,3.6-3.7c1.6-0.9,3.4-1.3,5.4-1.3s3.7,0.4,5.2,1.3c1.5,0.9,2.7,2.1,3.5,3.6C337,148.3,337.4,150,337.4,151.9
		L337.4,151.9z M333.8,151.1c0-1.3-0.3-2.4-0.9-3.4s-1.4-1.7-2.4-2.2s-2.1-0.8-3.3-0.8c-1.7,0-3.2,0.6-4.5,1.7
		c-1.2,1.1-1.9,2.6-2.1,4.6L333.8,151.1L333.8,151.1z M367.7,157.1h-11.5L354,163h-3.6l9.5-26.2h4l9.5,26.2h-3.6L367.7,157.1z
		 M366.7,154.4l-4.8-13.3l-4.8,13.3H366.7L366.7,154.4z M381,136.6V163h-3.5v-26.4H381z"/>
	
		<linearGradient id="SVGID_00000055688139138131934630000015715621674352625310_" gradientUnits="userSpaceOnUse" x1="-446.8523" y1="3616.113" x2="-383.1123" y2="3659.7329" gradientTransform="matrix(1 0 0 1 564 -3487.8899)">
		<stop  offset="0" style="stop-color:#917EFE"/>
		<stop  offset="1" style="stop-color:#FFFFFF"/>
	</linearGradient>
	
		<circle style="display:inline;fill:#1D1C25;stroke:url(#SVGID_00000055688139138131934630000015715621674352625310_);stroke-width:0.63;" cx="149.7" cy="150.5" r="30.7"/>
	
		<linearGradient id="SVGID_00000124883164474273248420000000174909768471007872_" gradientUnits="userSpaceOnUse" x1="-414.5114" y1="3620.3499" x2="-414.5014" y2="3650.3501" gradientTransform="matrix(1 0 0 1 564 -3487.8899)">
		<stop  offset="0" style="stop-color:#917EFE"/>
		<stop  offset="1" style="stop-color:#FFFFFF"/>
	</linearGradient>
	<path style="display:inline;fill:url(#SVGID_00000124883164474273248420000000174909768471007872_);" d="M143.9,163
		c-1-1.8-2.4-3.2-4-4.5C141.8,158.8,144,161.3,143.9,163z M154.6,163c1-1.8,2.4-3.2,3.9-4.5C156.7,158.9,154.6,161.2,154.6,163z
		 M158.9,142.5c-0.7-1.2-1.2-2.4-1.5-3.7C156.8,139.9,157.8,142.1,158.9,142.5z M141.8,138.9c-0.5,1.1-1,2.4-1.4,3.6
		C141.6,141.9,142.2,140,141.8,138.9z M163,150.1c-0.4,6.8-9.3,7.9-9.1,14.1c-0.9-0.8-1.2-1.9-0.8-3.1c0,0,0,0-0.1,0
		c-0.7,1.4-1.1,3-0.8,4.5c0.1,0.4-0.1,0.2-0.3,0l0,0c-0.4-0.7-0.6-1.5-0.7-2.2h-0.1c-0.6,1.8-0.7,3.7-1.6,5.4
		c-0.4-1.6-1-3.1-1.3-4.7c-0.1-0.2-0.3-0.8-0.3-0.8s-0.1,0.6-0.1,0.8c0.1,0.8-0.4,1.4-0.8,1.9c-0.2-1.2-0.1-2.5-0.4-3.7l0,0
		c-0.1-0.1-0.3-0.6-0.4-0.8c0.1,1-0.2,2-1,2.8c0.2-4.8-5-6.5-7.4-9.8c-2.5-3.5-2.9-9.4,0.9-12.1c-1.4,2.2-0.9,4.8,0.4,6.9
		c0.1,0.1,0.3,0.3,0.3,0.1c-0.7-1.5-0.4-3.2,0.4-4.6c2.2-2.1,2.9-5,3.4-8.1c1.8,2.6,0.9,6-0.6,8.4l0,0c0,0.1-0.1,0.1-0.1,0.2
		c4.2-2.3,5.4-8.4,6.8-12.8c1.2,4,2.2,8,4.9,11.3c0.6,0.6,1.3,1.1,1.9,1.6c-1.4-2.6-2.3-5.8-0.9-8.6c0.1,0,0.1,0,0.2,0
		c0.5,2.6,0.9,5.6,3,7.5c1.1,1.4,1.4,3.1,0.9,4.8c-0.1,0.1,0,0.2,0,0.3c0.1,0.1,0.1-0.1,0.2-0.1c1.4-2.1,1.7-4.7,0.5-6.9
		C162.7,144.1,163.4,147.2,163,150.1L163,150.1L163,150.1z M152.2,154.1c-0.1,0.1-0.1,0.2-0.1,0.3c2,0,4.2-1.1,5.1-2.8
		c0.3-0.7,0.8-1.7,0.5-2.5C155.6,150.5,153.8,152.3,152.2,154.1L152.2,154.1L152.2,154.1z M145.7,146.2
		C145.7,146.2,145.7,146.3,145.7,146.2c1.9-0.9,2.9-2.5,3.9-4.2c1,1.7,2,3.3,3.8,4.2c0,0,0-0.1,0.1-0.1c-2-1.7-2.9-4.3-3.9-6.7
		C148.7,142,147.7,144.5,145.7,146.2L145.7,146.2L145.7,146.2z M142.2,152c1.4,2,3.9,2.6,5.1,2.5c-1.7-2-3.5-4.1-5.9-5.3
		C141.3,149.9,141.5,150.5,142.2,152L142.2,152z M159.2,151.3C159.2,151.3,159.1,151.3,159.2,151.3c-3.3,7.1-8.1,4.4-9.7,9.5
		c-2.3-5.4-7-2.9-9.6-9.6c0,0-0.1,0-0.1,0.1c2.2,8.2,8.4,3.8,9.7,12.2h0.1c0-0.3,0.1-0.5,0.1-0.8
		C150.8,155.4,156.9,159.5,159.2,151.3L159.2,151.3L159.2,151.3z"/>
</g>
<g>
	<path class="st2" d="M131.6,177.6h22.6h9.2H186c4.4,0,8-3.6,8-8v-39.2c0-4.4-3.6-8-8-8h-22.6h-9.2h-22.6c-4.4,0-8,3.6-8,8v39.2
		C123.6,174,127.2,177.6,131.6,177.6z M128,134.7c0-4.4,3.6-8,8-8h18.3h9.2h18.3c4.4,0,8,3.6,8,8v30.1c0,4.4-3.6,8-8,8h-18.3h-9.2
		h-18.3c-4.4,0-8-3.6-8-8V134.7z"/>
	<g>
		<path class="st2" d="M184,133.4c-0.4,0.3-0.8,0.7-1.3,1.1c-0.1,0.1-0.8,0.7-2-0.1l-0.1,0c0,0-0.6-0.3-1.9-1.4
			c-0.3-0.2-2.8-2.4-5.3-2.3c-0.5,0-2.4,0-4.2,1.7l-1.3,1.2c-0.3,0.3-0.9,0.7-1.1,0.6l-0.3-0.1c-0.2-0.1-0.7-0.4-1.6-1.1
			c-0.2-0.2-2.2-1.7-4-2c-0.4-0.1-3-0.6-5.2,0.6c-0.2,0.1-1,0.5-2.4,1.8l-0.1,0.1c-0.2,0.2-0.8,0.7-1.3,0.7l-0.1,0
			c-0.1,0-0.6-0.1-1.2-0.4c-0.2-0.1-0.8-0.5-1.8-1.3c-0.3-0.2-2.8-2.4-5.3-2.3c-0.5,0-2.4,0-4.2,1.7l-1.3,1.2
			c-0.3,0.3-0.9,0.7-1.1,0.6l-0.3-0.1c-0.2-0.1-0.7-0.4-1.6-1.1c0,0-0.7-0.6-1.7-1.1l-1.9-1v5.3l0.5,0.4c0.3,0.2,0.7,0.5,1,0.7
			c0.3,0.3,2.6,2.1,5.1,1.5c0.4-0.1,1.8-0.4,3.1-1.7c0.3-0.3,1.2-1.2,1.9-1.6c0,0,0.5-0.3,1.2,0.1c0,0,0.9,0.5,1.7,1.2
			c0.1,0.1,0.9,0.7,1.7,1.2v0.1l0.6,0.4c0.2,0.1,0.3,0.2,0.4,0.2l0,0c0,0,0.2,0.1,0.4,0.2c0.4,0.2,1.1,0.5,2,0.6
			c1.1,0.2,2.1,0.1,3-0.3c0.1,0,0.8-0.3,1.6-0.9l0.5-0.4v-0.1c0.1-0.1,0.2-0.1,0.2-0.2c0.5-0.5,1.6-1.4,2.3-1.4l0.1,0
			c0.1,0,1.3-0.1,2.3,0.5c0,0,0.9,0.5,1.8,1.3c0.3,0.2,2.5,2.1,5.1,1.5c0.4-0.1,1.8-0.4,3.1-1.7c0.3-0.3,1.2-1.2,1.9-1.6
			c0,0,0.5-0.3,1.2,0.1c0,0,0.9,0.5,1.7,1.1c0.1,0.1,1.9,1.4,2.8,1.9c0.2,0.1,1.6,0.9,3.4,0.9c0,0,0,0,0,0c0.7,0,1.4-0.1,2-0.4
			c0.1,0,0.8-0.3,1.6-0.9l0.5-0.4v-6.1L184,133.4z"/>
		<path class="st2" d="M182.8,143.3c-0.1,0.1-0.8,0.7-2-0.1l-0.1,0c0,0-0.6-0.3-1.9-1.4c-0.3-0.2-2.7-2.3-5.2-2.3c0,0-0.1,0-0.1,0
			c-0.5,0-2.4,0-4.2,1.7l-1.3,1.2c-0.3,0.3-0.9,0.7-1.1,0.6l-0.3-0.1c-0.2-0.1-0.7-0.4-1.6-1.1c-0.2-0.2-2.2-1.7-4-2
			c-0.3-0.1-3-0.6-5.2,0.6c-0.2,0.1-1,0.5-2.4,1.8l-0.1,0.1c-0.2,0.2-0.8,0.7-1.3,0.7l-0.1,0c0,0-0.5,0-1.2-0.4
			c-0.2-0.1-0.8-0.5-1.8-1.3c-0.3-0.2-2.8-2.4-5.3-2.3c-0.5,0-2.4,0-4.2,1.7l-1.3,1.2c-0.3,0.3-0.9,0.7-1.1,0.6l-0.3-0.1
			c-0.2-0.1-0.7-0.4-1.6-1.1c0,0-0.7-0.6-1.7-1.1l-1.9-1v5.3l0.5,0.4c0.3,0.2,0.7,0.5,1,0.7c0.3,0.3,2.6,2.1,5.1,1.5
			c0.4-0.1,1.8-0.4,3.1-1.7c0.4-0.5,1.3-1.3,1.9-1.6c0,0,0.5-0.3,1.2,0.1c0,0,0.9,0.5,1.7,1.2c0.1,0.1,0.9,0.7,1.7,1.2v0.1l0.6,0.4
			c0.2,0.1,0.3,0.2,0.4,0.2l0,0c0,0,0.2,0.1,0.4,0.2c0.4,0.2,1.1,0.5,2,0.6c1.1,0.2,2.1,0.1,3-0.3c0.1,0,0.8-0.3,1.6-0.9l0.5-0.4
			v-0.1c0.1-0.1,0.2-0.1,0.2-0.2c0.5-0.5,1.6-1.4,2.3-1.4l0.1,0c0,0,1.2-0.1,2.2,0.5c0,0,0.9,0.6,1.8,1.3c0.3,0.2,2.5,2.1,5.1,1.5
			c0.4-0.1,1.8-0.4,3.1-1.7c0.3-0.3,1.2-1.2,1.9-1.6c0,0,0.5-0.3,1.2,0.1c0,0,0.9,0.5,1.7,1.1c0.1,0.1,1.9,1.4,2.8,1.9
			c0.2,0.1,1.6,0.9,3.4,0.9c0,0,0,0,0,0c0.7,0,1.4-0.1,2-0.4c0.1,0,0.8-0.3,1.6-0.9l0.5-0.4v-6.1l-2.1,1.7
			C183.6,142.5,183.2,142.9,182.8,143.3z"/>
		<path class="st2" d="M182.8,152.2c-0.1,0.1-0.8,0.7-1.9,0l-0.1-0.1c0,0-0.6-0.3-1.9-1.4c-0.1-0.1-2.7-2.4-5.3-2.3
			c-0.5,0-2.4,0-4.2,1.7l-1.3,1.2c-0.3,0.3-0.9,0.7-1.1,0.6l-0.3-0.1c-0.2-0.1-0.7-0.4-1.6-1.1c-0.2-0.2-2.2-1.7-4-2
			c-0.4-0.1-3-0.6-5.2,0.6c-0.2,0.1-1,0.5-2.4,1.8l-0.1,0.1c-0.2,0.2-0.8,0.7-1.3,0.7l-0.1,0c0,0-0.5,0-1.2-0.4
			c-0.2-0.1-0.8-0.5-1.8-1.3c-0.3-0.2-2.8-2.4-5.3-2.3c-0.5,0-2.4,0-4.2,1.7l-1.3,1.2c-0.3,0.3-0.9,0.7-1.1,0.6l-0.3-0.1
			c-0.2-0.1-0.7-0.4-1.6-1.1c0,0-0.7-0.6-1.7-1.1l-1.9-1v5.3l0.5,0.4c0.3,0.2,0.7,0.5,1,0.7c0.3,0.3,2.6,2.1,5.1,1.5
			c0.4-0.1,1.8-0.4,3.1-1.7c0.3-0.3,1.2-1.2,1.9-1.6c0,0,0.5-0.3,1.2,0.1c0,0,0.9,0.5,1.7,1.2c0.1,0.1,0.9,0.7,1.7,1.2v0.1l0.6,0.4
			c0.2,0.1,0.3,0.2,0.4,0.2l0.1,0c0,0,0.2,0.1,0.4,0.2c0.4,0.2,1.1,0.5,2,0.6c1.1,0.2,2.1,0.1,3-0.3c0.1,0,0.8-0.3,1.6-0.9l0.5-0.4
			v-0.1c0.1-0.1,0.2-0.1,0.2-0.2c0.5-0.5,1.6-1.4,2.3-1.4l0.1,0c0.1,0,1.3-0.1,2.3,0.5c0,0,0.9,0.5,1.8,1.3c0.3,0.2,2.5,2.1,5.1,1.5
			c0.4-0.1,1.8-0.4,3.1-1.7c0.3-0.3,1.2-1.2,1.9-1.6c0,0,0.5-0.3,1.2,0.1c0,0,0.9,0.5,1.7,1.1c0.1,0.1,1.9,1.4,2.8,1.9
			c0.2,0.1,1.6,0.9,3.4,0.9c0.7,0,1.4-0.1,2-0.4c0,0,0.7-0.3,1.6-0.9l0.5-0.4v-6.1l-2.1,1.7C183.6,151.5,183.2,151.8,182.8,152.2z"
			/>
	</g>
	<circle class="st2" cx="141" cy="164.1" r="4.2"/>
	
		<ellipse transform="matrix(0.7071 -0.7071 0.7071 0.7071 -64.3142 173.0065)" class="st2" cx="176.7" cy="164.1" rx="4.2" ry="4.2"/>
	<polygon class="st2" points="148,159 149.1,169.3 150,169.3 149,159 	"/>
	<polygon class="st2" points="150.5,159 151.4,169.3 152.3,169.3 151.6,159 	"/>
	<polygon class="st2" points="153.1,159 153.7,169.3 154.6,169.3 154.2,159 	"/>
	<polygon class="st2" points="155.7,159 156,169.3 157,169.3 156.7,159 	"/>
	<polygon class="st2" points="158.4,169.3 159.3,169.3 159.3,159 158.3,159 	"/>
	<polygon class="st2" points="160.7,169.3 161.6,169.3 161.9,159 160.9,159 	"/>
	<polygon class="st2" points="163,169.3 163.9,169.3 164.5,159 163.5,159 	"/>
	<polygon class="st2" points="165.3,169.3 166.2,169.3 167.1,159 166.1,159 	"/>
	<polygon class="st2" points="167.6,169.3 168.5,169.3 169.7,159 168.7,159 	"/>
	<path class="st8" d="M259.4,139.3c-1.2,0.7-2.1,1.4-2.7,2.1l-0.2-2.7h-5.9v25.5h6.3v-17.4c0.4-0.7,1-1.3,1.9-1.8
		c0.9-0.5,1.9-0.7,2.9-0.7c0.4,0,0.7,0,1.1,0.1c0.4,0,0.7,0.1,1.1,0.2l0.5-6.2c-0.3-0.1-0.7-0.1-1.1-0.1
		C261.8,138.2,260.6,138.5,259.4,139.3z"/>
	<path class="st8" d="M220.3,152.5c-0.6-0.6-1.3-1.1-2.2-1.6c-0.9-0.5-1.9-1-3.1-1.4c-1.8-0.7-3.2-1.3-4-1.8
		c-0.8-0.5-1.3-1.2-1.3-2.2c0-0.8,0.3-1.4,0.9-1.9c0.6-0.4,1.4-0.7,2.5-0.7c1.4,0,2.6,0.3,3.8,0.8c1.2,0.5,2.3,1.2,3.4,2l0.6-5.4
		c-1.1-0.6-2.3-1.1-3.6-1.5c-1.3-0.4-2.7-0.5-4.3-0.5c-1.9,0-3.6,0.3-5,0.9c-1.4,0.6-2.5,1.5-3.3,2.6c-0.8,1.1-1.1,2.4-1.1,3.9
		c0,1.4,0.3,2.6,0.9,3.6c0.6,1,1.4,1.8,2.5,2.5c1.1,0.7,2.4,1.3,4,1.9c1,0.4,1.9,0.8,2.6,1.1c0.7,0.3,1.2,0.7,1.6,1.1
		c0.3,0.4,0.5,1,0.5,1.6c0,0.9-0.3,1.5-1,1.9c-0.7,0.4-1.6,0.6-2.9,0.6c-1.4,0-2.7-0.2-4-0.7c-1.3-0.5-2.6-1.1-3.9-1.8l-0.6,5.4
		c1.4,0.6,2.7,1.1,4.1,1.4c1.4,0.3,2.9,0.5,4.6,0.5c2.1,0,4-0.3,5.4-0.9c1.5-0.6,2.6-1.5,3.4-2.6c0.8-1.1,1.2-2.5,1.2-4.1
		c0-1-0.1-1.9-0.4-2.6C221.3,153.7,220.8,153.1,220.3,152.5z"/>
	<path class="st8" d="M241.9,159.1c-1,0.3-2,0.4-3,0.4c-2.3,0-4.2-0.8-5.6-2.3c-1.4-1.5-2.1-3.4-2.1-5.7c0-2.4,0.7-4.3,2-5.8
		c1.3-1.5,3.2-2.2,5.7-2.2c1.1,0,2.1,0.1,3.1,0.4c1,0.3,1.9,0.6,2.6,1l0.5-5.1c-0.8-0.5-1.8-0.8-3-1.2c-1.2-0.3-2.4-0.5-3.9-0.5
		c-3,0-5.5,0.6-7.5,1.8c-2,1.2-3.5,2.8-4.5,4.8c-1,2-1.5,4.2-1.5,6.7c0,2.4,0.5,4.6,1.5,6.6c1,2,2.5,3.6,4.5,4.8
		c2,1.2,4.4,1.8,7.4,1.8c1.4,0,2.7-0.1,3.9-0.4c1.2-0.3,2.3-0.7,3.2-1.1l-0.6-5.4C243.8,158.3,242.8,158.8,241.9,159.1z"/>
	<rect x="267.4" y="138.7" class="st8" width="6.3" height="25.5"/>
	<rect x="267.4" y="128.5" class="st8" width="6.3" height="6.3"/>
	<path class="st8" d="M299.3,140.1c-1.7-1.2-3.8-1.8-6.3-1.8c-2,0-3.7,0.4-5,1.1c-0.9,0.5-1.7,1-2.5,1.7l-0.7-2.3h-5.1v37.8h6.3
		v-13.9c0.7,0.5,1.4,0.9,2.1,1.3c1.2,0.5,2.9,0.8,4.8,0.8c2.5,0,4.6-0.6,6.3-1.8c1.7-1.2,3-2.8,3.9-4.8c0.9-2,1.3-4.2,1.3-6.6
		c0-2.4-0.4-4.6-1.3-6.6C302.2,142.9,301,141.3,299.3,140.1z M296.4,157.3c-1,1.5-2.5,2.2-4.4,2.2c-1.5,0-2.7-0.3-3.6-1
		c-0.9-0.7-1.6-1.6-2.1-2.8c-0.4-1.2-0.7-2.6-0.7-4.2c0-1.6,0.2-3,0.7-4.2c0.4-1.2,1.1-2.1,2.1-2.8c0.9-0.7,2.1-1,3.6-1
		c1.9,0,3.4,0.7,4.4,2.2c1,1.5,1.6,3.4,1.6,5.8C298,153.9,297.4,155.8,296.4,157.3z"/>
	<path class="st8" d="M316.3,132.4l-6.3,0.7v5.6h-3.1l-0.6,5.2h3.6V158c0,1.1,0.2,2.2,0.7,3.2c0.5,1,1.2,1.9,2.2,2.5
		c1,0.7,2.3,1,3.9,1h4.5l0.6-5.2h-1.7c-1.2,0-2.1-0.1-2.6-0.2c-0.5-0.1-0.9-0.5-1-1.1c-0.2-0.6-0.2-1.5-0.2-2.8v-11.5h5.6v-5.2h-5.6
		V132.4z"/>
	<rect x="325.4" y="157.3" class="st8" width="6.6" height="6.9"/>
	<path class="st8" d="M344.5,132.4l-6.3,0.7v5.6h-3.1l-0.6,5.2h3.6V158c0,1.1,0.2,2.2,0.7,3.2c0.5,1,1.2,1.9,2.2,2.5
		c1,0.7,2.3,1,3.9,1h4.5l0.6-5.2h-1.7c-1.2,0-2.1-0.1-2.6-0.2c-0.5-0.1-0.9-0.5-1-1.1c-0.2-0.6-0.2-1.5-0.2-2.8v-11.5h5.6v-5.2h-5.6
		V132.4z"/>
	<polygon class="st8" points="370.2,138.7 363.9,156.3 357.6,138.7 351.4,138.7 361.2,164.2 366.6,164.2 376.4,138.7 	"/>
</g>
</svg>
