<?xml version="1.0" encoding="utf-8"?>
<!-- Generator: Adobe Illustrator 28.0.0, SVG Export Plug-In . SVG Version: 6.00 Build 0)  -->
<svg version="1.1" id="Layer_4" xmlns="http://www.w3.org/2000/svg" xmlns:xlink="http://www.w3.org/1999/xlink" x="0px" y="0px"
	 viewBox="0 0 500 300" style="enable-background:new 0 0 500 300;" xml:space="preserve">
<style type="text/css">
	
		.st0{clip-path:url(#SVGID_00000134230941495101218490000016114120268126512814_);fill:url(#SVGID_00000148639559861922672740000012696570602135355555_);enable-background:new    ;}
	.st1{display:none;clip-path:url(#SVGID_00000134230941495101218490000016114120268126512814_);}
	.st2{display:inline;}
	.st3{clip-path:url(#SVGID_00000033342129045196463100000016483008267899044755_);}
	.st4{fill-rule:evenodd;clip-rule:evenodd;fill:url(#SVGID_00000054237987997201271050000017763379546143896982_);}
	.st5{fill:#FFFFFF;}
	
		.st6{display:none;clip-path:url(#SVGID_00000032634401330192257690000000410516581269359539_);fill-rule:evenodd;clip-rule:evenodd;fill:url(#SVGID_00000063635756002678114410000001612161449573228455_);}
	.st7{opacity:0.59;clip-path:url(#SVGID_00000134230941495101218490000016114120268126512814_);}
	.st8{clip-path:url(#SVGID_00000157286441655807220010000016212776195719133318_);}
	.st9{fill-rule:evenodd;clip-rule:evenodd;fill:url(#SVGID_00000089555001993506287920000016438817357995136406_);}
	
		.st10{display:none;clip-path:url(#SVGID_00000005972098797241888590000012207172019930199446_);fill-rule:evenodd;clip-rule:evenodd;fill:url(#SVGID_00000148650472453006633430000012096767962601183396_);}
	.st11{display:none;}
	.st12{display:inline;fill:#FFFFFF;}
	.st13{display:inline;fill:#1D1C25;stroke:url(#SVGID_00000078728823939248140500000004263805981393932416_);stroke-width:0.63;}
	.st14{display:inline;fill:url(#SVGID_00000145744165288403056620000004882842633030485413_);}
	.st15{clip-path:url(#SVGID_00000169525154953998618060000012966494130068437170_);}
	.st16{fill-rule:evenodd;clip-rule:evenodd;fill:url(#SVGID_00000121963582681546401110000006306648161984123795_);}
	
		.st17{display:none;clip-path:url(#SVGID_00000060031804086603815720000007521343772764093112_);fill-rule:evenodd;clip-rule:evenodd;fill:url(#SVGID_00000140006367697381623370000000988023009278546364_);}
</style>
<g>
	<defs>
		<rect id="SVGID_1_" width="500" height="300"/>
	</defs>
	<clipPath id="SVGID_00000159464638762090439720000017128061666078323588_">
		<use xlink:href="#SVGID_1_"  style="overflow:visible;"/>
	</clipPath>
	
		<linearGradient id="SVGID_00000134209959052412358970000010609301257892975792_" gradientUnits="userSpaceOnUse" x1="50" y1="350" x2="450" y2="-50">
		<stop  offset="0" style="stop-color:#1D1949"/>
		<stop  offset="0.8995" style="stop-color:#000105"/>
	</linearGradient>
	
		<rect style="clip-path:url(#SVGID_00000159464638762090439720000017128061666078323588_);fill:url(#SVGID_00000134209959052412358970000010609301257892975792_);enable-background:new    ;" width="500" height="300"/>
	<g style="display:none;clip-path:url(#SVGID_00000159464638762090439720000017128061666078323588_);">
		<g class="st2">
			<defs>
				<rect id="SVGID_00000093167045735676872390000014089365962236101795_" x="181.8" y="108.3" width="172.3" height="62.3"/>
			</defs>
			<clipPath id="SVGID_00000132045760987534828110000010278851477385153681_">
				<use xlink:href="#SVGID_00000093167045735676872390000014089365962236101795_"  style="overflow:visible;"/>
			</clipPath>
			<g style="clip-path:url(#SVGID_00000132045760987534828110000010278851477385153681_);">
				
					<linearGradient id="SVGID_00000180361305297092771970000011636063295082088342_" gradientUnits="userSpaceOnUse" x1="204.48" y1="925.4974" x2="234.7824" y2="897.9324" gradientTransform="matrix(1 0 0 1 0 -778)">
					<stop  offset="0" style="stop-color:#15BCFF"/>
					<stop  offset="0.4854" style="stop-color:#3073EC"/>
					<stop  offset="1" style="stop-color:#B030EC"/>
				</linearGradient>
				<path style="fill-rule:evenodd;clip-rule:evenodd;fill:url(#SVGID_00000180361305297092771970000011636063295082088342_);" d="
					M181.8,139.5c0,17.2,14.1,31.2,31.4,31.2c4.4,0,8.6-0.9,12.5-2.6c-1.6-0.2-3.1-0.4-4.5-0.7c-3.3-0.7-6.4-1.8-9.1-3.3
					c-5.8-3-9.8-7.5-12.2-13.3h-10.5l3.2-7.5h5.4c-0.2-1.6-0.3-3-0.3-4.4s0-2.7,0.1-3.8h-8.5l3.2-7.4h6.8c2.2-6.3,6.1-11.1,12-14.5
					c3-1.8,6.3-3,9.8-3.8c-2.5-0.7-5.2-1-7.9-1C195.9,108.3,181.8,122.2,181.8,139.5z M231.7,114.3c-9.6,1.2-19.2,5.2-22.8,13.4H238
					l-3.2,7.4h-27.7c-0.1,1.1-0.2,2.4-0.2,4s0.1,3,0.4,4.2H231l-3.2,7.5h-17.5c4,6.5,14.1,10.7,24.7,11.2c6-5.7,9.7-13.7,9.7-22.5
					C244.6,129.1,239.5,120,231.7,114.3z"/>
				<path class="st5" d="M266.7,152.5c-1.7,0-3.1-0.4-4.4-1.1c-1.3-0.7-1.9-2.2-1.9-4.5v-14.3c0-2.1,0.6-3.6,1.7-4.5
					c1.2-0.9,2.6-1.4,4.2-1.4c3.6,0,7.3,0.1,11.1,0.4v4.3h-9.6c-1.5,0-2.3,0.7-2.3,2.1v3.7l10.2,0.3v4l-10.2,0.3v3.5
					c0,1.5,0.7,2.3,2.2,2.3h9.7v4.3C274.4,152.3,270.8,152.5,266.7,152.5z"/>
				<path class="st5" d="M294.5,152.5c-3.2,0-5.7-0.6-7.5-1.8c-1.7-1.2-2.6-3.4-2.6-6.6v-17.4h5.2V144c0,1.4,0.4,2.3,1.2,2.9
					c0.8,0.6,2.1,0.9,3.7,0.9s2.8-0.3,3.7-0.9c0.8-0.6,1.2-1.6,1.2-2.9v-17.3h5.2v17.4c0,3.2-0.9,5.4-2.6,6.6
					C300.1,151.9,297.7,152.5,294.5,152.5z"/>
				<path class="st5" d="M312.1,126.7h10.7c2.3,0,4.1,0.6,5.4,1.8s2,3.3,2,6.4c0,2.1-0.4,3.7-1.1,4.8c-0.7,1-1.7,1.8-3,2.4l4.8,10.3
					h-5.3l-4.1-9.5c-1.1,0-2.5,0-4.2-0.1v9.6h-5.2L312.1,126.7L312.1,126.7z M321.9,138.7c1,0,1.8-0.3,2.3-0.8
					c0.5-0.6,0.8-1.6,0.8-3s-0.3-2.3-0.8-2.8s-1.3-0.8-2.3-0.8h-4.6v7.4L321.9,138.7L321.9,138.7z"/>
				<path class="st5" d="M345.2,152.5c-1.3,0-2.7-0.1-4.3-0.2c-1.5-0.2-2.8-0.4-3.8-0.6v-4c2.1,0.2,4.7,0.3,7.8,0.3
					c1.4,0,2.5-0.2,3.2-0.6c0.7-0.4,1.1-1.1,1.1-2v-1c0-0.8-0.2-1.3-0.7-1.7c-0.4-0.4-1.1-0.6-1.9-0.6h-2.2c-2.6,0-4.5-0.6-5.7-1.7
					c-1.3-1.1-1.9-2.9-1.9-5.4v-1.2c0-4.8,2.8-7.2,8.3-7.2c1.3,0,2.6,0.1,4,0.3s2.6,0.4,3.8,0.6v4c-3.2-0.2-5.6-0.3-7.2-0.3
					c-1.3,0-2.3,0.2-3,0.6c-0.7,0.4-1,1.1-1,2.2v0.7c0,0.9,0.2,1.5,0.7,1.9s1.3,0.6,2.3,0.6h2.5c2.2,0,3.9,0.6,5.1,1.8
					s1.8,2.8,1.8,4.7v1.5c0,1.9-0.4,3.4-1.1,4.5s-1.7,1.8-3,2.2C348.8,152.3,347.1,152.5,345.2,152.5z"/>
			</g>
		</g>
		<g class="st2">
			<defs>
				<rect id="SVGID_00000016076920984224189340000005404773737203885187_" x="181.8" y="108.3" width="172.3" height="62.3"/>
			</defs>
			<clipPath id="SVGID_00000145048889450890077510000012729294098781764237_">
				<use xlink:href="#SVGID_00000016076920984224189340000005404773737203885187_"  style="overflow:visible;"/>
			</clipPath>
			
				<linearGradient id="SVGID_00000161590669783955509710000010043838652065177752_" gradientUnits="userSpaceOnUse" x1="204.6127" y1="924.4439" x2="234.3637" y2="897.6076" gradientTransform="matrix(1 0 0 1 0 -778)">
				<stop  offset="0" style="stop-color:#15BCFF"/>
				<stop  offset="0.4854" style="stop-color:#3073EC"/>
				<stop  offset="1" style="stop-color:#B030EC"/>
			</linearGradient>
			
				<path style="display:none;clip-path:url(#SVGID_00000145048889450890077510000012729294098781764237_);fill-rule:evenodd;clip-rule:evenodd;fill:url(#SVGID_00000161590669783955509710000010043838652065177752_);" d="
				M182.6,138.6c0,16.9,13.7,30.6,30.6,30.6c4.3,0,8.4-0.9,12.1-2.5c-1.6-0.2-3.1-0.4-4.4-0.7c-3.2-0.7-6.2-1.8-8.9-3.2
				c-5.6-3-9.6-7.4-11.9-13.1H190l3.1-7.3h5.3c-0.2-1.5-0.3-3-0.3-4.3c0-1.4,0-2.7,0.1-3.8H190l3.1-7.3h6.6
				c2.1-6.2,6-10.9,11.7-14.3c2.9-1.7,6.1-3,9.6-3.8c-2.5-0.6-5.1-1-7.7-1C196.3,108,182.6,121.7,182.6,138.6z M231.3,113.9
				c-9.4,1.2-18.8,5.1-22.2,13.1h28.3l-3.1,7.3h-27c-0.1,1.1-0.2,2.4-0.2,4s0.1,2.9,0.4,4.1h23.1l-3.1,7.3h-17
				c3.9,6.4,13.7,10.5,24,11c5.8-5.6,9.4-13.4,9.4-22.1C243.8,128.5,238.9,119.5,231.3,113.9z"/>
		</g>
	</g>
	<g style="opacity:0.59;clip-path:url(#SVGID_00000159464638762090439720000017128061666078323588_);">
		<g>
			<defs>
				<rect id="SVGID_00000147920405065345774250000006502816181774818981_" x="324.2" y="17" width="745.5" height="269.6"/>
			</defs>
			<clipPath id="SVGID_00000057121306765880366970000004783808258417786555_">
				<use xlink:href="#SVGID_00000147920405065345774250000006502816181774818981_"  style="overflow:visible;"/>
			</clipPath>
			<g style="clip-path:url(#SVGID_00000057121306765880366970000004783808258417786555_);">
				
					<linearGradient id="SVGID_00000019646368572646381450000014953214016648573333_" gradientUnits="userSpaceOnUse" x1="422.1502" y1="964.5454" x2="553.2581" y2="845.2813" gradientTransform="matrix(1 0 0 1 0 -778)">
					<stop  offset="0" style="stop-color:#19193A"/>
					<stop  offset="0.9575" style="stop-color:#1D1949"/>
					<stop  offset="1" style="stop-color:#B030EC"/>
				</linearGradient>
				<path style="fill-rule:evenodd;clip-rule:evenodd;fill:url(#SVGID_00000019646368572646381450000014953214016648573333_);" d="
					M324.2,152c0,74.4,61,135,135.9,135c19,0,37.2-3.9,54.1-11.2c-6.9-0.9-13.4-1.7-19.5-3c-14.3-3-27.7-7.8-39.4-14.3
					c-25.1-13-42.4-32.4-52.8-57.5H357l13.8-32.4h23.4c-0.9-6.9-1.3-13-1.3-19c0-6.1,0-11.7,0.4-16.4h-36.8l13.8-32h29.4
					c9.5-27.3,26.4-48,51.9-62.7c13-7.8,27.3-13,42.4-16.4c-10.8-3-22.5-4.3-34.2-4.3C385.2,17,324.2,77.2,324.2,152z M540.1,43
					c-41.5,5.2-83.1,22.5-98.6,58h125.9l-13.8,32H433.6c-0.4,4.8-0.9,10.4-0.9,17.3s0.4,13,1.7,18.2H537l-13.8,32.4h-75.7
					c17.3,28.1,61,46.3,106.9,48.5c26-24.7,42-59.3,42-97.3C595.9,107,573.8,67.6,540.1,43z"/>
				<path class="st5" d="M691.5,208.3c-7.4,0-13.4-1.7-19-4.8c-5.6-3-8.2-9.5-8.2-19.5v-61.9c0-9.1,2.6-15.6,7.4-19.5
					c5.2-3.9,11.2-6.1,18.2-6.1c15.6,0,31.6,0.4,48,1.7V117h-41.5c-6.5,0-10,3-10,9.1v16l44.1,1.3v17.3l-44.1,1.3v15.1
					c0,6.5,3,10,9.5,10h42v18.6C724.8,207.4,709.2,208.3,691.5,208.3z"/>
				<path class="st5" d="M811.8,208.3c-13.8,0-24.7-2.6-32.4-7.8c-7.4-5.2-11.2-14.7-11.2-28.6V96.6h22.5v74.9
					c0,6.1,1.7,10,5.2,12.5c3.5,2.6,9.1,3.9,16,3.9s12.1-1.3,16-3.9c3.5-2.6,5.2-6.9,5.2-12.5V96.6h22.5v75.3
					c0,13.8-3.9,23.4-11.2,28.6C836,205.7,825.6,208.3,811.8,208.3z"/>
				<path class="st5" d="M887.9,96.6h46.3c10,0,17.7,2.6,23.4,7.8c5.6,5.2,8.7,14.3,8.7,27.7c0,9.1-1.7,16-4.8,20.8
					c-3,4.3-7.4,7.8-13,10.4l20.8,44.6h-22.9l-17.7-41.1c-4.8,0-10.8,0-18.2-0.4v41.5h-22.5L887.9,96.6L887.9,96.6z M930.3,148.6
					c4.3,0,7.8-1.3,10-3.5c2.2-2.6,3.5-6.9,3.5-13c0-6.1-1.3-10-3.5-12.1s-5.6-3.5-10-3.5h-19.9v32L930.3,148.6L930.3,148.6z"/>
				<path class="st5" d="M1031.1,208.3c-5.6,0-11.7-0.4-18.6-0.9c-6.5-0.9-12.1-1.7-16.4-2.6v-17.3c9.1,0.9,20.3,1.3,33.7,1.3
					c6.1,0,10.8-0.9,13.8-2.6c3-1.7,4.8-4.8,4.8-8.7v-4.3c0-3.5-0.9-5.6-3-7.4c-1.7-1.7-4.8-2.6-8.2-2.6h-9.5
					c-11.2,0-19.5-2.6-24.7-7.4c-5.6-4.8-8.2-12.5-8.2-23.4v-5.2c0-20.8,12.1-31.2,35.9-31.2c5.6,0,11.2,0.4,17.3,1.3
					s11.2,1.7,16.4,2.6v17.3c-13.8-0.9-24.2-1.3-31.2-1.3c-5.6,0-10,0.9-13,2.6c-3,1.7-4.3,4.8-4.3,9.5v3c0,3.9,0.9,6.5,3,8.2
					c2.2,1.7,5.6,2.6,10,2.6h10.8c9.5,0,16.9,2.6,22.1,7.8c5.2,5.2,7.8,12.1,7.8,20.3v6.5c0,8.2-1.7,14.7-4.8,19.5s-7.4,7.8-13,9.5
					C1046.7,207.4,1039.4,208.3,1031.1,208.3z"/>
			</g>
		</g>
		<g>
			<defs>
				<rect id="SVGID_00000030481961767361626710000015908782021506893702_" x="324.2" y="17" width="745.5" height="269.6"/>
			</defs>
			<clipPath id="SVGID_00000062181878408095796470000004298445294931570086_">
				<use xlink:href="#SVGID_00000030481961767361626710000015908782021506893702_"  style="overflow:visible;"/>
			</clipPath>
			
				<linearGradient id="SVGID_00000151513931038195364500000001276330723576597893_" gradientUnits="userSpaceOnUse" x1="422.7243" y1="959.9874" x2="551.4465" y2="843.876" gradientTransform="matrix(1 0 0 1 0 -778)">
				<stop  offset="0" style="stop-color:#15BCFF"/>
				<stop  offset="0.4854" style="stop-color:#3073EC"/>
				<stop  offset="1" style="stop-color:#B030EC"/>
			</linearGradient>
			
				<path style="display:none;clip-path:url(#SVGID_00000062181878408095796470000004298445294931570086_);fill-rule:evenodd;clip-rule:evenodd;fill:url(#SVGID_00000151513931038195364500000001276330723576597893_);" d="
				M327.6,148.1c0,73.1,59.3,132.4,132.4,132.4c18.6,0,36.3-3.9,52.4-10.8c-6.9-0.9-13.4-1.7-19-3c-13.8-3-26.8-7.8-38.5-13.8
				c-24.2-13-41.5-32-51.5-56.7h-43.7l13.4-31.6H396c-0.9-6.5-1.3-13-1.3-18.6c0-6.1,0-11.7,0.4-16.4h-35.5l13.4-31.6h28.6
				c9.1-26.8,26-47.2,50.6-61.9c12.5-7.4,26.4-13,41.5-16.4c-10.8-2.6-22.1-4.3-33.3-4.3C386.9,15.7,327.6,75,327.6,148.1z
				 M538.3,41.3c-40.7,5.2-81.3,22.1-96.1,56.7h122.4l-13.4,31.6H434.5c-0.4,4.8-0.9,10.4-0.9,17.3s0.4,12.5,1.7,17.7h99.9
				l-13.4,31.6h-73.6c16.9,27.7,59.3,45.4,103.8,47.6c25.1-24.2,40.7-58,40.7-95.6C592.4,104.4,571.2,65.5,538.3,41.3z"/>
		</g>
	</g>
</g>
<g class="st11">
	<path class="st12" d="M204.6,163.3c-1.7,0-3.3-0.3-4.7-0.9c-1.4-0.6-2.4-1.5-3.2-2.6s-1.2-2.4-1.2-3.8h3.7c0.1,1.2,0.6,2.3,1.5,3.1
		s2.2,1.2,3.9,1.2s2.9-0.4,3.9-1.2s1.4-1.9,1.4-3.2c0-1-0.3-1.8-0.8-2.5c-0.6-0.6-1.2-1.1-2.1-1.4s-2-0.7-3.4-1.1
		c-1.7-0.4-3.1-0.9-4.2-1.4c-1-0.4-1.9-1.2-2.7-2.1c-0.7-1-1.1-2.3-1.1-3.9c0-1.4,0.4-2.7,1.1-3.8c0.7-1.1,1.8-2,3.1-2.6
		s2.9-0.9,4.6-0.9c2.5,0,4.5,0.6,6.1,1.9c1.6,1.2,2.5,2.9,2.7,4.9h-3.8c-0.1-1-0.7-1.9-1.6-2.6c-0.9-0.8-2.2-1.2-3.7-1.2
		c-1.4,0-2.6,0.4-3.5,1.1c-0.9,0.7-1.4,1.8-1.4,3.1c0,1,0.3,1.7,0.8,2.4c0.6,0.6,1.2,1.1,2,1.4c0.8,0.3,1.9,0.7,3.4,1.1
		c1.7,0.5,3.1,1,4.2,1.4c1.1,0.4,2,1.2,2.7,2.2c0.8,1,1.1,2.3,1.1,3.9c0,1.3-0.3,2.5-1,3.6s-1.7,2.1-3,2.8S206.4,163.3,204.6,163.3
		L204.6,163.3z M221.9,146.1c0.7-1.2,1.7-2.2,3-3c1.4-0.8,2.9-1.2,4.7-1.2s3.5,0.4,5,1.3c1.5,0.9,2.7,2.1,3.6,3.8
		c0.9,1.6,1.3,3.4,1.3,5.6s-0.4,4-1.3,5.6s-2.1,2.9-3.6,3.8c-1.5,0.9-3.2,1.4-5,1.4s-3.3-0.4-4.7-1.2c-1.3-0.8-2.4-1.8-3.1-3v13.7
		h-3.4v-30.6h3.4v3.8H221.9z M236,152.6c0-1.6-0.3-2.9-0.9-4.1c-0.6-1.2-1.5-2.1-2.6-2.6c-1.1-0.6-2.2-0.9-3.5-0.9s-2.4,0.3-3.5,0.9
		c-1.1,0.6-1.9,1.5-2.6,2.7c-0.6,1.2-0.9,2.5-0.9,4.1s0.3,2.9,0.9,4.1c0.7,1.2,1.5,2.1,2.6,2.7c1.1,0.6,2.3,0.9,3.5,0.9
		s2.5-0.3,3.5-0.9c1.1-0.6,1.9-1.5,2.6-2.7C235.6,155.6,236,154.2,236,152.6L236,152.6z M263,151.9c0,0.7,0,1.4-0.1,2.1h-16.6
		c0.1,2.1,0.8,3.6,2.1,4.8c1.3,1.1,2.8,1.7,4.7,1.7c1.5,0,2.7-0.3,3.7-1s1.7-1.6,2.1-2.8h3.7c-0.6,2-1.7,3.6-3.3,4.9
		c-1.7,1.2-3.7,1.9-6.2,1.9c-2,0-3.7-0.4-5.3-1.3c-1.5-0.9-2.8-2.1-3.6-3.8c-0.9-1.6-1.3-3.5-1.3-5.7s0.4-4,1.3-5.6
		c0.9-1.6,2.1-2.9,3.6-3.7c1.6-0.9,3.4-1.3,5.4-1.3s3.7,0.4,5.2,1.3s2.7,2.1,3.5,3.6C262.6,148.3,263,150,263,151.9L263,151.9z
		 M259.4,151.1c0-1.3-0.3-2.4-0.9-3.4s-1.4-1.7-2.4-2.2s-2.1-0.8-3.3-0.8c-1.7,0-3.2,0.6-4.5,1.7c-1.2,1.1-1.9,2.6-2.1,4.6
		L259.4,151.1L259.4,151.1z M266.2,152.6c0-2.1,0.4-4,1.3-5.6s2-2.9,3.6-3.8c1.5-0.9,3.3-1.3,5.3-1.3c2.5,0,4.6,0.6,6.3,1.9
		c1.7,1.2,2.8,3,3.3,5.1h-3.7c-0.4-1.3-1-2.3-2.1-3c-1-0.7-2.3-1.1-3.8-1.1c-2,0-3.6,0.7-4.8,2.1c-1.2,1.3-1.8,3.2-1.8,5.7
		s0.6,4.4,1.8,5.8c1.2,1.4,2.8,2.1,4.8,2.1c1.5,0,2.8-0.4,3.8-1.1c1-0.7,1.7-1.7,2.1-3h3.7c-0.6,2.1-1.7,3.8-3.3,5.1
		c-1.7,1.3-3.8,1.9-6.2,1.9c-2,0-3.7-0.4-5.3-1.3c-1.5-0.9-2.7-2.1-3.6-3.8S266.2,154.8,266.2,152.6L266.2,152.6z M294.7,145.1v12.2
		c0,1,0.2,1.7,0.6,2.2c0.4,0.4,1.2,0.6,2.2,0.6h2.5v2.9h-3c-1.9,0-3.4-0.4-4.3-1.3c-1-0.9-1.4-2.3-1.4-4.4v-12.2h-2.7v-2.8h2.7V137
		h3.5v5.2h5.4v2.8h-5.5V145.1z M307.8,145.6c0.6-1.2,1.5-2.1,2.6-2.8s2.5-1,4.1-1v3.6h-0.9c-3.9,0-5.8,2.1-5.8,6.3V163h-3.5v-20.8
		h3.5L307.8,145.6L307.8,145.6z M337.4,151.9c0,0.7,0,1.4-0.1,2.1h-16.6c0.1,2.1,0.8,3.6,2.1,4.8c1.3,1.1,2.8,1.7,4.7,1.7
		c1.5,0,2.7-0.3,3.7-1s1.7-1.6,2.1-2.8h3.7c-0.6,2-1.7,3.6-3.3,4.9c-1.7,1.2-3.7,1.9-6.2,1.9c-2,0-3.7-0.4-5.3-1.3
		c-1.5-0.9-2.8-2.1-3.6-3.8c-0.9-1.6-1.3-3.5-1.3-5.7s0.4-4,1.3-5.6s2.1-2.9,3.6-3.7c1.6-0.9,3.4-1.3,5.4-1.3s3.7,0.4,5.2,1.3
		c1.5,0.9,2.7,2.1,3.5,3.6C337,148.3,337.4,150,337.4,151.9L337.4,151.9z M333.8,151.1c0-1.3-0.3-2.4-0.9-3.4s-1.4-1.7-2.4-2.2
		s-2.1-0.8-3.3-0.8c-1.7,0-3.2,0.6-4.5,1.7c-1.2,1.1-1.9,2.6-2.1,4.6L333.8,151.1L333.8,151.1z M367.7,157.1h-11.5L354,163h-3.6
		l9.5-26.2h4l9.5,26.2h-3.6L367.7,157.1z M366.7,154.4l-4.8-13.3l-4.8,13.3H366.7L366.7,154.4z M381,136.6V163h-3.5v-26.4H381z"/>
	
		<linearGradient id="SVGID_00000178894432217263435560000011569677939702266519_" gradientUnits="userSpaceOnUse" x1="-446.8522" y1="-370.2231" x2="-383.1122" y2="-413.8431" gradientTransform="matrix(1 0 0 -1 564 -242)">
		<stop  offset="0" style="stop-color:#917EFE"/>
		<stop  offset="1" style="stop-color:#FFFFFF"/>
	</linearGradient>
	
		<circle style="display:inline;fill:#1D1C25;stroke:url(#SVGID_00000178894432217263435560000011569677939702266519_);stroke-width:0.63;" cx="149.7" cy="150.5" r="30.7"/>
	
		<linearGradient id="SVGID_00000010989553444308346560000011994185274482562718_" gradientUnits="userSpaceOnUse" x1="-414.5114" y1="-374.4601" x2="-414.5014" y2="-404.4601" gradientTransform="matrix(1 0 0 -1 564 -242)">
		<stop  offset="0" style="stop-color:#917EFE"/>
		<stop  offset="1" style="stop-color:#FFFFFF"/>
	</linearGradient>
	<path style="display:inline;fill:url(#SVGID_00000010989553444308346560000011994185274482562718_);" d="M143.9,163
		c-1-1.8-2.4-3.2-4-4.5C141.8,158.8,144,161.3,143.9,163z M154.6,163c1-1.8,2.4-3.2,3.9-4.5C156.7,158.9,154.6,161.2,154.6,163z
		 M158.9,142.5c-0.7-1.2-1.2-2.4-1.5-3.7C156.8,139.9,157.8,142.1,158.9,142.5z M141.8,138.9c-0.5,1.1-1,2.4-1.4,3.6
		C141.6,141.9,142.2,140,141.8,138.9z M163,150.1c-0.4,6.8-9.3,7.9-9.1,14.1c-0.9-0.8-1.2-1.9-0.8-3.1c0,0,0,0-0.1,0
		c-0.7,1.4-1.1,3-0.8,4.5c0.1,0.4-0.1,0.2-0.3,0l0,0c-0.4-0.7-0.6-1.5-0.7-2.2h-0.1c-0.6,1.8-0.7,3.7-1.6,5.4
		c-0.4-1.6-1-3.1-1.3-4.7c-0.1-0.2-0.3-0.8-0.3-0.8s-0.1,0.6-0.1,0.8c0.1,0.8-0.4,1.4-0.8,1.9c-0.2-1.2-0.1-2.5-0.4-3.7l0,0
		c-0.1-0.1-0.3-0.6-0.4-0.8c0.1,1-0.2,2-1,2.8c0.2-4.8-5-6.5-7.4-9.8c-2.5-3.5-2.9-9.4,0.9-12.1c-1.4,2.2-0.9,4.8,0.4,6.9
		c0.1,0.1,0.3,0.3,0.3,0.1c-0.7-1.5-0.4-3.2,0.4-4.6c2.2-2.1,2.9-5,3.4-8.1c1.8,2.6,0.9,6-0.6,8.4l0,0c0,0.1-0.1,0.1-0.1,0.2
		c4.2-2.3,5.4-8.4,6.8-12.8c1.2,4,2.2,8,4.9,11.3c0.6,0.6,1.3,1.1,1.9,1.6c-1.4-2.6-2.3-5.8-0.9-8.6c0.1,0,0.1,0,0.2,0
		c0.5,2.6,0.9,5.6,3,7.5c1.1,1.4,1.4,3.1,0.9,4.8c-0.1,0.1,0,0.2,0,0.3c0.1,0.1,0.1-0.1,0.2-0.1c1.4-2.1,1.7-4.7,0.5-6.9
		C162.7,144.1,163.4,147.2,163,150.1L163,150.1L163,150.1z M152.2,154.1c-0.1,0.1-0.1,0.2-0.1,0.3c2,0,4.2-1.1,5.1-2.8
		c0.3-0.7,0.8-1.7,0.5-2.5C155.6,150.5,153.8,152.3,152.2,154.1L152.2,154.1L152.2,154.1z M145.7,146.2
		C145.7,146.2,145.7,146.3,145.7,146.2c1.9-0.9,2.9-2.5,3.9-4.2c1,1.7,2,3.3,3.8,4.2c0,0,0-0.1,0.1-0.1c-2-1.7-2.9-4.3-3.9-6.7
		C148.7,142,147.7,144.5,145.7,146.2L145.7,146.2L145.7,146.2z M142.2,152c1.4,2,3.9,2.6,5.1,2.5c-1.7-2-3.5-4.1-5.9-5.3
		C141.3,149.9,141.5,150.5,142.2,152L142.2,152z M159.2,151.3C159.2,151.3,159.1,151.3,159.2,151.3c-3.3,7.1-8.1,4.4-9.7,9.5
		c-2.3-5.4-7-2.9-9.6-9.6c0,0-0.1,0-0.1,0.1c2.2,8.2,8.4,3.8,9.7,12.2h0.1c0-0.3,0.1-0.5,0.1-0.8
		C150.8,155.4,156.9,159.5,159.2,151.3L159.2,151.3L159.2,151.3z"/>
</g>
<image style="display:none;overflow:visible;enable-background:new    ;" width="276" height="100" xlink:href="eurs-logo2x.png"  transform="matrix(0.6208 0 0 0.6208 164.325 119.6501)">
</image>
<g>
	<g>
		<defs>
			<rect id="SVGID_00000176015544485518695740000002154032703763074211_" x="163.8" y="119.9" width="172.3" height="62.3"/>
		</defs>
		<clipPath id="SVGID_00000137827537924278001610000009546750916949756575_">
			<use xlink:href="#SVGID_00000176015544485518695740000002154032703763074211_"  style="overflow:visible;"/>
		</clipPath>
		<g style="clip-path:url(#SVGID_00000137827537924278001610000009546750916949756575_);">
			
				<linearGradient id="SVGID_00000149374920954326079090000000136407661926587811_" gradientUnits="userSpaceOnUse" x1="186.4465" y1="937.0805" x2="216.7489" y2="909.5155" gradientTransform="matrix(1 0 0 1 0 -778)">
				<stop  offset="0" style="stop-color:#15BCFF"/>
				<stop  offset="0.4854" style="stop-color:#3073EC"/>
				<stop  offset="1" style="stop-color:#B030EC"/>
			</linearGradient>
			<path style="fill-rule:evenodd;clip-rule:evenodd;fill:url(#SVGID_00000149374920954326079090000000136407661926587811_);" d="
				M163.8,151.1c0,17.2,14.1,31.2,31.4,31.2c4.4,0,8.6-0.9,12.5-2.6c-1.6-0.2-3.1-0.4-4.5-0.7c-3.3-0.7-6.4-1.8-9.1-3.3
				c-5.8-3-9.8-7.5-12.2-13.3h-10.5l3.2-7.5h5.4c-0.2-1.6-0.3-3-0.3-4.4s0-2.7,0.1-3.8h-8.5l3.2-7.4h6.8c2.2-6.3,6.1-11.1,12-14.5
				c3-1.8,6.3-3,9.8-3.8c-2.5-0.7-5.2-1-7.9-1C177.9,119.9,163.8,133.8,163.8,151.1z M213.7,125.9c-9.6,1.2-19.2,5.2-22.8,13.4H220
				l-3.2,7.4h-27.7c-0.1,1.1-0.2,2.4-0.2,4s0.1,3,0.4,4.2H213l-3.2,7.5h-17.5c4,6.5,14.1,10.7,24.7,11.2c6-5.7,9.7-13.7,9.7-22.5
				C226.6,140.7,221.5,131.6,213.7,125.9z"/>
			<path class="st5" d="M248.7,164.1c-1.7,0-3.1-0.4-4.4-1.1c-1.3-0.7-1.9-2.2-1.9-4.5v-14.3c0-2.1,0.6-3.6,1.7-4.5
				c1.2-0.9,2.6-1.4,4.2-1.4c3.6,0,7.3,0.1,11.1,0.4v4.3h-9.6c-1.5,0-2.3,0.7-2.3,2.1v3.7l10.2,0.3v4l-10.2,0.3v3.5
				c0,1.5,0.7,2.3,2.2,2.3h9.7v4.3C256.4,163.9,252.8,164.1,248.7,164.1z"/>
			<path class="st5" d="M276.5,164.1c-3.2,0-5.7-0.6-7.5-1.8c-1.7-1.2-2.6-3.4-2.6-6.6v-17.4h5.2v17.3c0,1.4,0.4,2.3,1.2,2.9
				c0.8,0.6,2.1,0.9,3.7,0.9s2.8-0.3,3.7-0.9c0.8-0.6,1.2-1.6,1.2-2.9v-17.3h5.2v17.4c0,3.2-0.9,5.4-2.6,6.6
				C282.1,163.5,279.7,164.1,276.5,164.1z"/>
			<path class="st5" d="M294.1,138.3h10.7c2.3,0,4.1,0.6,5.4,1.8s2,3.3,2,6.4c0,2.1-0.4,3.7-1.1,4.8c-0.7,1-1.7,1.8-3,2.4l4.8,10.3
				h-5.3l-4.1-9.5c-1.1,0-2.5,0-4.2-0.1v9.6h-5.2L294.1,138.3L294.1,138.3z M303.9,150.3c1,0,1.8-0.3,2.3-0.8c0.5-0.6,0.8-1.6,0.8-3
				s-0.3-2.3-0.8-2.8s-1.3-0.8-2.3-0.8h-4.6v7.4L303.9,150.3L303.9,150.3z"/>
			<path class="st5" d="M327.2,164.1c-1.3,0-2.7-0.1-4.3-0.2c-1.5-0.2-2.8-0.4-3.8-0.6v-4c2.1,0.2,4.7,0.3,7.8,0.3
				c1.4,0,2.5-0.2,3.2-0.6c0.7-0.4,1.1-1.1,1.1-2v-1c0-0.8-0.2-1.3-0.7-1.7c-0.4-0.4-1.1-0.6-1.9-0.6h-2.2c-2.6,0-4.5-0.6-5.7-1.7
				c-1.3-1.1-1.9-2.9-1.9-5.4v-1.2c0-4.8,2.8-7.2,8.3-7.2c1.3,0,2.6,0.1,4,0.3s2.6,0.4,3.8,0.6v4c-3.2-0.2-5.6-0.3-7.2-0.3
				c-1.3,0-2.3,0.2-3,0.6c-0.7,0.4-1,1.1-1,2.2v0.7c0,0.9,0.2,1.5,0.7,1.9s1.3,0.6,2.3,0.6h2.5c2.2,0,3.9,0.6,5.1,1.8
				s1.8,2.8,1.8,4.7v1.5c0,1.9-0.4,3.4-1.1,4.5s-1.7,1.8-3,2.2C330.8,163.9,329.1,164.1,327.2,164.1z"/>
		</g>
	</g>
	<g>
		<defs>
			<rect id="SVGID_00000016789492085776486490000012716154819172187800_" x="163.8" y="119.9" width="172.3" height="62.3"/>
		</defs>
		<clipPath id="SVGID_00000067226930713126873980000011318259252674480822_">
			<use xlink:href="#SVGID_00000016789492085776486490000012716154819172187800_"  style="overflow:visible;"/>
		</clipPath>
		
			<linearGradient id="SVGID_00000116918478360758206620000009869128968633777337_" gradientUnits="userSpaceOnUse" x1="186.5792" y1="936.027" x2="216.3302" y2="909.1907" gradientTransform="matrix(1 0 0 1 0 -778)">
			<stop  offset="0" style="stop-color:#15BCFF"/>
			<stop  offset="0.4854" style="stop-color:#3073EC"/>
			<stop  offset="1" style="stop-color:#B030EC"/>
		</linearGradient>
		
			<path style="display:none;clip-path:url(#SVGID_00000067226930713126873980000011318259252674480822_);fill-rule:evenodd;clip-rule:evenodd;fill:url(#SVGID_00000116918478360758206620000009869128968633777337_);" d="
			M164.6,150.2c0,16.9,13.7,30.6,30.6,30.6c4.3,0,8.4-0.9,12.1-2.5c-1.6-0.2-3.1-0.4-4.4-0.7c-3.2-0.7-6.2-1.8-8.9-3.2
			c-5.6-3-9.6-7.4-11.9-13.1H172l3.1-7.3h5.3c-0.2-1.5-0.3-3-0.3-4.3c0-1.4,0-2.7,0.1-3.8H172l3.1-7.3h6.6c2.1-6.2,6-10.9,11.7-14.3
			c2.9-1.7,6.1-3,9.6-3.8c-2.5-0.6-5.1-1-7.7-1C178.3,119.6,164.6,133.3,164.6,150.2z M213.3,125.5c-9.4,1.2-18.8,5.1-22.2,13.1
			h28.3l-3.1,7.3h-27c-0.1,1.1-0.2,2.4-0.2,4s0.1,2.9,0.4,4.1h23.1l-3.1,7.3h-17c3.9,6.4,13.7,10.5,24,11c5.8-5.6,9.4-13.4,9.4-22.1
			C225.8,140.1,220.9,131.1,213.3,125.5z"/>
	</g>
</g>
</svg>
