<?xml version="1.0" encoding="utf-8"?>
<!-- Generator: Adobe Illustrator 28.4.1, SVG Export Plug-In . SVG Version: 6.00 Build 0)  -->
<svg version="1.1" id="Layer_4" xmlns="http://www.w3.org/2000/svg" xmlns:xlink="http://www.w3.org/1999/xlink" x="0px" y="0px"
	 viewBox="0 0 500 300" style="enable-background:new 0 0 500 300;" xml:space="preserve">
<style type="text/css">
	
		.st0{clip-path:url(#SVGID_00000041283671480473190640000006374551625990902956_);fill:url(#SVGID_00000018959519438693317230000006328873380069130152_);}
	
		.st1{opacity:0.15;clip-path:url(#SVGID_00000044890880309652401420000004505803917819767202_);fill:url(#SVGID_00000086691155664182619550000010645448822239748238_);}
	.st2{display:none;}
	.st3{display:inline;}
	.st4{display:none;clip-path:url(#SVGID_00000080208721192839064980000016143462580743723435_);}
	.st5{clip-path:url(#SVGID_00000180366373475961943280000011856455912612632206_);}
	.st6{fill-rule:evenodd;clip-rule:evenodd;fill:url(#SVGID_00000111891393130201020370000013843459340472639882_);}
	.st7{fill:#FFFFFF;}
	
		.st8{display:none;clip-path:url(#SVGID_00000110452101299413735550000017544492591861600158_);fill-rule:evenodd;clip-rule:evenodd;fill:url(#SVGID_00000052087377370025406600000010757572312968883119_);}
	.st9{opacity:0.59;clip-path:url(#SVGID_00000085970077390004536740000005009176105705096114_);}
	
		.st10{display:none;clip-path:url(#SVGID_00000041273289412631051390000001616197894676971948_);fill-rule:evenodd;clip-rule:evenodd;fill:url(#SVGID_00000110441865732827187090000008213743841183633596_);}
	.st11{fill:none;}
	.st12{display:inline;fill:#FFFFFF;}
	.st13{display:inline;fill:#1D1C25;stroke:url(#SVGID_00000079486195085819512450000003638444405201483709_);stroke-width:0.63;}
	.st14{display:inline;fill:url(#SVGID_00000173135372373701301580000003800401245376375176_);}
	.st15{fill:url(#SVGID_00000018212800407260033840000014040476756933947294_);}
</style>
<g>
	<g>
		<g>
			<g>
				<g>
					<g>
						<g>
							<g>
								<g>
									<defs>
										<rect id="SVGID_1_" y="0" width="500" height="300"/>
									</defs>
									<clipPath id="SVGID_00000104707035391526394440000004155521264289418151_">
										<use xlink:href="#SVGID_1_"  style="overflow:visible;"/>
									</clipPath>
									
										<linearGradient id="SVGID_00000134233204572756798330000006617642557530133121_" gradientUnits="userSpaceOnUse" x1="0" y1="150" x2="500" y2="150">
										<stop  offset="0" style="stop-color:#1D1100"/>
										<stop  offset="0.9608" style="stop-color:#000105"/>
									</linearGradient>
									
										<rect y="0" style="clip-path:url(#SVGID_00000104707035391526394440000004155521264289418151_);fill:url(#SVGID_00000134233204572756798330000006617642557530133121_);" width="500" height="300"/>
								</g>
							</g>
							<g>
								<g>
									<defs>
										<rect id="SVGID_00000012432189399222263650000008272654959143371648_" y="0" width="500" height="300"/>
									</defs>
									<clipPath id="SVGID_00000131345357764918686220000011409094647953168571_">
										<use xlink:href="#SVGID_00000012432189399222263650000008272654959143371648_"  style="overflow:visible;"/>
									</clipPath>
									
										<linearGradient id="SVGID_00000113354294775543238440000006376038109985019268_" gradientUnits="userSpaceOnUse" x1="432.899" y1="-13.5746" x2="432.899" y2="400.1617" gradientTransform="matrix(1 0 0 -1 0 299.8898)">
										<stop  offset="0" style="stop-color:#FFAA33"/>
										<stop  offset="1" style="stop-color:#FF9A0D"/>
									</linearGradient>
									
										<path style="opacity:0.15;clip-path:url(#SVGID_00000131345357764918686220000011409094647953168571_);fill:url(#SVGID_00000113354294775543238440000006376038109985019268_);" d="
										M473.4,30.3v163c-0.2,10.4-4.5,20.1-11.9,27.5c-7.6,7.6-17.8,11.8-28.6,11.8c-22.3,0-40.4-18.1-40.4-40.4V30.3l40.4-20.2
										L473.4,30.3L473.4,30.3z M447.4,251.1c-14.2,13.3-33.3,21.5-54.1,21.7c-44.7,0.4-81.4-36.9-81.4-81.6V127h-0.3V83.3
										c0-7.6,4.3-14.7,11.2-18l49.5-24.8v150.9c0,33.5,27.4,61.6,60.9,61.6C438,252.9,442.8,252.3,447.4,251.1L447.4,251.1z
										 M554.3,83.2V191c0,66.9-53.7,122.1-120.6,122.5c-28.6,0.2-55.1-9.6-75.9-26c10.6,3.9,21.9,6,33.8,6.1
										c56.3,0.5,102.4-46.1,102.4-102.4V40.6l49.2,24.6C549.9,68.6,554.3,75.7,554.3,83.2L554.3,83.2L554.3,83.2z"/>
								</g>
							</g>
						</g>
					</g>
				</g>
			</g>
		</g>
	</g>
	<g class="st2">
		<g>
			<g class="st3">
				<g>
					<g>
						<g>
							<g>
								<g>
									<defs>
										<rect id="SVGID_00000003824493160149402070000017247132484117146790_" y="0" width="500" height="300"/>
									</defs>
									<clipPath id="SVGID_00000150087758234831880160000006483074443039530897_">
										<use xlink:href="#SVGID_00000003824493160149402070000017247132484117146790_"  style="overflow:visible;"/>
									</clipPath>
									<g style="display:none;clip-path:url(#SVGID_00000150087758234831880160000006483074443039530897_);">
										<g class="st3">
											<g>
												<g>
													<g>
														<g>
															<g>
																<g>
																	<g>
																		<g>
																			<defs>
																				
																					<rect id="SVGID_00000016047657243118933370000017213498701303240105_" x="181.8" y="108.3" width="172.3" height="62.3"/>
																			</defs>
																			<clipPath id="SVGID_00000065759396704860906630000010637992183274120110_">
																				<use xlink:href="#SVGID_00000016047657243118933370000017213498701303240105_"  style="overflow:visible;"/>
																			</clipPath>
																			<g style="clip-path:url(#SVGID_00000065759396704860906630000010637992183274120110_);">
																				
																					<linearGradient id="SVGID_00000108279583855310353240000015866653057828642206_" gradientUnits="userSpaceOnUse" x1="204.4565" y1="3329.4714" x2="234.7588" y2="3301.9065" gradientTransform="matrix(1 0 0 1 0 -3182)">
																					<stop  offset="0" style="stop-color:#15BCFF"/>
																					<stop  offset="0.4854" style="stop-color:#3073EC"/>
																					<stop  offset="1" style="stop-color:#B030EC"/>
																				</linearGradient>
																				
																					<path style="fill-rule:evenodd;clip-rule:evenodd;fill:url(#SVGID_00000108279583855310353240000015866653057828642206_);" d="
																					M181.8,139.5c0,17.2,14.1,31.2,31.4,31.2c4.4,0,8.6-0.9,12.5-2.6c-1.6-0.2-3.1-0.4-4.5-0.7
																					c-3.3-0.7-6.4-1.8-9.1-3.3c-5.8-3-9.8-7.5-12.2-13.3h-10.5l3.2-7.5h5.4c-0.2-1.6-0.3-3-0.3-4.4s0-2.7,0.1-3.8
																					h-8.5l3.2-7.4h6.8c2.2-6.3,6.1-11.1,12-14.5c3-1.8,6.3-3,9.8-3.8c-2.5-0.7-5.2-1-7.9-1
																					C195.9,108.3,181.8,122.2,181.8,139.5z M231.7,114.3c-9.6,1.2-19.2,5.2-22.8,13.4H238l-3.2,7.4h-27.7
																					c-0.1,1.1-0.2,2.4-0.2,4s0.1,3,0.4,4.2H231l-3.2,7.5h-17.5c4,6.5,14.1,10.7,24.7,11.2c6-5.7,9.7-13.7,9.7-22.5
																					C244.6,129.1,239.5,120,231.7,114.3z"/>
																				<path class="st7" d="M266.7,152.5c-1.7,0-3.1-0.4-4.4-1.1c-1.3-0.7-1.9-2.2-1.9-4.5v-14.3
																					c0-2.1,0.6-3.6,1.7-4.5c1.2-0.9,2.6-1.4,4.2-1.4c3.6,0,7.3,0.1,11.1,0.4v4.3h-9.6c-1.5,0-2.3,0.7-2.3,2.1v3.7
																					l10.2,0.3v4l-10.2,0.3v3.5c0,1.5,0.7,2.3,2.2,2.3h9.7v4.3C274.4,152.3,270.8,152.5,266.7,152.5z"/>
																				<path class="st7" d="M294.5,152.5c-3.2,0-5.7-0.6-7.5-1.8c-1.7-1.2-2.6-3.4-2.6-6.6v-17.4h5.2V144
																					c0,1.4,0.4,2.3,1.2,2.9c0.8,0.6,2.1,0.9,3.7,0.9s2.8-0.3,3.7-0.9c0.8-0.6,1.2-1.6,1.2-2.9v-17.3h5.2v17.4
																					c0,3.2-0.9,5.4-2.6,6.6C300.1,151.9,297.7,152.5,294.5,152.5z"/>
																				<path class="st7" d="M312.1,126.7h10.7c2.3,0,4.1,0.6,5.4,1.8c1.3,1.2,2,3.3,2,6.4c0,2.1-0.4,3.7-1.1,4.8
																					c-0.7,1-1.7,1.8-3,2.4l4.8,10.3h-5.3l-4.1-9.5c-1.1,0-2.5,0-4.2-0.1v9.6h-5.2L312.1,126.7L312.1,126.7z
																					 M321.9,138.7c1,0,1.8-0.3,2.3-0.8c0.5-0.6,0.8-1.6,0.8-3s-0.3-2.3-0.8-2.8s-1.3-0.8-2.3-0.8h-4.6v7.4
																					L321.9,138.7L321.9,138.7z"/>
																				<path class="st7" d="M345.2,152.5c-1.3,0-2.7-0.1-4.3-0.2c-1.5-0.2-2.8-0.4-3.8-0.6v-4c2.1,0.2,4.7,0.3,7.8,0.3
																					c1.4,0,2.5-0.2,3.2-0.6c0.7-0.4,1.1-1.1,1.1-2v-1c0-0.8-0.2-1.3-0.7-1.7c-0.4-0.4-1.1-0.6-1.9-0.6h-2.2
																					c-2.6,0-4.5-0.6-5.7-1.7c-1.3-1.1-1.9-2.9-1.9-5.4v-1.2c0-4.8,2.8-7.2,8.3-7.2c1.3,0,2.6,0.1,4,0.3
																					s2.6,0.4,3.8,0.6v4c-3.2-0.2-5.6-0.3-7.2-0.3c-1.3,0-2.3,0.2-3,0.6c-0.7,0.4-1,1.1-1,2.2v0.7
																					c0,0.9,0.2,1.5,0.7,1.9s1.3,0.6,2.3,0.6h2.5c2.2,0,3.9,0.6,5.1,1.8s1.8,2.8,1.8,4.7v1.5c0,1.9-0.4,3.4-1.1,4.5
																					s-1.7,1.8-3,2.2C348.8,152.3,347.1,152.5,345.2,152.5z"/>
																			</g>
																		</g>
																	</g>
																</g>
															</g>
														</g>
													</g>
												</g>
											</g>
										</g>
										<g class="st3">
											<g>
												<g>
													<g>
														<g>
															<g>
																<g>
																	<g>
																		<g>
																			<defs>
																				
																					<rect id="SVGID_00000031911882094111475660000007784790311374185395_" x="181.8" y="108.3" width="172.3" height="62.3"/>
																			</defs>
																			<clipPath id="SVGID_00000002368700523726965740000017977755327560754059_">
																				<use xlink:href="#SVGID_00000031911882094111475660000007784790311374185395_"  style="overflow:visible;"/>
																			</clipPath>
																			
																				<linearGradient id="SVGID_00000072280841722826601480000016885999461923173024_" gradientUnits="userSpaceOnUse" x1="204.5892" y1="3328.418" x2="234.3403" y2="3301.5815" gradientTransform="matrix(1 0 0 1 0 -3182)">
																				<stop  offset="0" style="stop-color:#15BCFF"/>
																				<stop  offset="0.4854" style="stop-color:#3073EC"/>
																				<stop  offset="1" style="stop-color:#B030EC"/>
																			</linearGradient>
																			
																				<path style="display:none;clip-path:url(#SVGID_00000002368700523726965740000017977755327560754059_);fill-rule:evenodd;clip-rule:evenodd;fill:url(#SVGID_00000072280841722826601480000016885999461923173024_);" d="
																				M182.6,138.6c0,16.9,13.7,30.6,30.6,30.6c4.3,0,8.4-0.9,12.1-2.5c-1.6-0.2-3.1-0.4-4.4-0.7
																				c-3.2-0.7-6.2-1.8-8.9-3.2c-5.6-3-9.6-7.4-11.9-13.1H190l3.1-7.3h5.3c-0.2-1.5-0.3-3-0.3-4.3
																				c0-1.4,0-2.7,0.1-3.8H190l3.1-7.3h6.6c2.1-6.2,6-10.9,11.7-14.3c2.9-1.7,6.1-3,9.6-3.8c-2.5-0.6-5.1-1-7.7-1
																				C196.3,108,182.6,121.7,182.6,138.6z M231.3,113.9c-9.4,1.2-18.8,5.1-22.2,13.1h28.3l-3.1,7.3h-27
																				c-0.1,1.1-0.2,2.4-0.2,4s0.1,2.9,0.4,4.1h23.1l-3.1,7.3h-17c3.9,6.4,13.7,10.5,24,11c5.8-5.6,9.4-13.4,9.4-22.1
																				C243.8,128.5,238.9,119.5,231.3,113.9z"/>
																		</g>
																	</g>
																</g>
															</g>
														</g>
													</g>
												</g>
											</g>
										</g>
									</g>
								</g>
							</g>
						</g>
					</g>
				</g>
			</g>
		</g>
	</g>
	<g class="st2">
		<g class="st3">
			<g>
				<g>
					<g>
						<g>
							<g>
								<g>
									<defs>
										<rect id="SVGID_00000093175840820441592310000004146310514337323182_" y="0" width="500" height="300"/>
									</defs>
									<clipPath id="SVGID_00000165199445841849468400000011867327779903423616_">
										<use xlink:href="#SVGID_00000093175840820441592310000004146310514337323182_"  style="overflow:visible;"/>
									</clipPath>
									<g style="opacity:0.59;clip-path:url(#SVGID_00000165199445841849468400000011867327779903423616_);">
										<g>
											<g>
												<g>
													<g>
														<g>
															<g>
																<g>
																	<g>
																		<g>
																			<defs>
																				
																					<rect id="SVGID_00000158739223770884901060000015697733792651211938_" x="324.2" y="17" width="745.5" height="269.6"/>
																			</defs>
																			<clipPath id="SVGID_00000135682541231456764050000003108673758062457733_">
																				<use xlink:href="#SVGID_00000158739223770884901060000015697733792651211938_"  style="overflow:visible;"/>
																			</clipPath>
																			
																				<linearGradient id="SVGID_00000001660178008280454390000017069919409207057060_" gradientUnits="userSpaceOnUse" x1="422.6938" y1="3363.9536" x2="551.416" y2="3247.8423" gradientTransform="matrix(1 0 0 1 0 -3182)">
																				<stop  offset="0" style="stop-color:#15BCFF"/>
																				<stop  offset="0.4854" style="stop-color:#3073EC"/>
																				<stop  offset="1" style="stop-color:#B030EC"/>
																			</linearGradient>
																			
																				<path style="display:none;clip-path:url(#SVGID_00000135682541231456764050000003108673758062457733_);fill-rule:evenodd;clip-rule:evenodd;fill:url(#SVGID_00000001660178008280454390000017069919409207057060_);" d="
																				M327.6,148.1c0,73.1,59.3,132.4,132.4,132.4c18.6,0,36.3-3.9,52.4-10.8c-6.9-0.9-13.4-1.7-19-3
																				c-13.8-3-26.8-7.8-38.5-13.8c-24.2-13-41.5-32-51.5-56.7h-43.7l13.4-31.6H396c-0.9-6.5-1.3-13-1.3-18.6
																				c0-6.1,0-11.7,0.4-16.4h-35.5L373,98h28.6c9.1-26.8,26-47.2,50.6-61.9c12.5-7.4,26.4-13,41.5-16.4
																				c-10.8-2.6-22.1-4.3-33.3-4.3C386.9,15.7,327.6,75,327.6,148.1z M538.3,41.3C497.6,46.5,457,63.4,442.2,98h122.4
																				l-13.4,31.6H434.5c-0.4,4.8-0.9,10.4-0.9,17.3s0.4,12.5,1.7,17.7h99.9l-13.4,31.6h-73.6
																				c16.9,27.7,59.3,45.4,103.8,47.6c25.1-24.2,40.7-58,40.7-95.6C592.4,104.4,571.2,65.5,538.3,41.3z"/>
																		</g>
																	</g>
																</g>
															</g>
														</g>
													</g>
												</g>
											</g>
										</g>
									</g>
								</g>
							</g>
						</g>
					</g>
				</g>
			</g>
		</g>
	</g>
	<rect y="0" class="st11" width="500" height="300"/>
</g>
<g class="st2">
	<path class="st12" d="M204.6,163.3c-1.7,0-3.3-0.3-4.7-0.9c-1.4-0.6-2.4-1.5-3.2-2.6s-1.2-2.4-1.2-3.8h3.7c0.1,1.2,0.6,2.3,1.5,3.1
		s2.2,1.2,3.9,1.2s2.9-0.4,3.9-1.2s1.4-1.9,1.4-3.2c0-1-0.3-1.8-0.8-2.5c-0.6-0.6-1.2-1.1-2.1-1.4s-2-0.7-3.4-1.1
		c-1.7-0.4-3.1-0.9-4.2-1.4c-1-0.4-1.9-1.2-2.7-2.1c-0.7-1-1.1-2.3-1.1-3.9c0-1.4,0.4-2.7,1.1-3.8c0.7-1.1,1.8-2,3.1-2.6
		s2.9-0.9,4.6-0.9c2.5,0,4.5,0.6,6.1,1.9c1.6,1.2,2.5,2.9,2.7,4.9h-3.8c-0.1-1-0.7-1.9-1.6-2.6c-0.9-0.8-2.2-1.2-3.7-1.2
		c-1.4,0-2.6,0.4-3.5,1.1c-0.9,0.7-1.4,1.8-1.4,3.1c0,1,0.3,1.7,0.8,2.4c0.6,0.6,1.2,1.1,2,1.4c0.8,0.3,1.9,0.7,3.4,1.1
		c1.7,0.5,3.1,1,4.2,1.4c1.1,0.4,2,1.2,2.7,2.2c0.8,1,1.1,2.3,1.1,3.9c0,1.3-0.3,2.5-1,3.6s-1.7,2.1-3,2.8S206.4,163.3,204.6,163.3
		L204.6,163.3z M221.9,146.1c0.7-1.2,1.7-2.2,3-3c1.4-0.8,2.9-1.2,4.7-1.2s3.5,0.4,5,1.3c1.5,0.9,2.7,2.1,3.6,3.8
		c0.9,1.6,1.3,3.4,1.3,5.6s-0.4,4-1.3,5.6s-2.1,2.9-3.6,3.8c-1.5,0.9-3.2,1.4-5,1.4s-3.3-0.4-4.7-1.2c-1.3-0.8-2.4-1.8-3.1-3v13.7
		h-3.4v-30.6h3.4v3.8L221.9,146.1L221.9,146.1z M236,152.6c0-1.6-0.3-2.9-0.9-4.1c-0.6-1.2-1.5-2.1-2.6-2.6
		c-1.1-0.6-2.2-0.9-3.5-0.9s-2.4,0.3-3.5,0.9c-1.1,0.6-1.9,1.5-2.6,2.7c-0.6,1.2-0.9,2.5-0.9,4.1s0.3,2.9,0.9,4.1
		c0.7,1.2,1.5,2.1,2.6,2.7c1.1,0.6,2.3,0.9,3.5,0.9s2.5-0.3,3.5-0.9c1.1-0.6,1.9-1.5,2.6-2.7C235.6,155.6,236,154.2,236,152.6
		L236,152.6z M263,151.9c0,0.7,0,1.4-0.1,2.1h-16.6c0.1,2.1,0.8,3.6,2.1,4.8c1.3,1.1,2.8,1.7,4.7,1.7c1.5,0,2.7-0.3,3.7-1
		s1.7-1.6,2.1-2.8h3.7c-0.6,2-1.7,3.6-3.3,4.9c-1.7,1.2-3.7,1.9-6.2,1.9c-2,0-3.7-0.4-5.3-1.3c-1.5-0.9-2.8-2.1-3.6-3.8
		c-0.9-1.6-1.3-3.5-1.3-5.7s0.4-4,1.3-5.6c0.9-1.6,2.1-2.9,3.6-3.7c1.6-0.9,3.4-1.3,5.4-1.3s3.7,0.4,5.2,1.3s2.7,2.1,3.5,3.6
		C262.6,148.3,263,150,263,151.9L263,151.9z M259.4,151.1c0-1.3-0.3-2.4-0.9-3.4s-1.4-1.7-2.4-2.2s-2.1-0.8-3.3-0.8
		c-1.7,0-3.2,0.6-4.5,1.7c-1.2,1.1-1.9,2.6-2.1,4.6L259.4,151.1L259.4,151.1z M266.2,152.6c0-2.1,0.4-4,1.3-5.6s2-2.9,3.6-3.8
		c1.5-0.9,3.3-1.3,5.3-1.3c2.5,0,4.6,0.6,6.3,1.9c1.7,1.2,2.8,3,3.3,5.1h-3.7c-0.4-1.3-1-2.3-2.1-3c-1-0.7-2.3-1.1-3.8-1.1
		c-2,0-3.6,0.7-4.8,2.1c-1.2,1.3-1.8,3.2-1.8,5.7s0.6,4.4,1.8,5.8c1.2,1.4,2.8,2.1,4.8,2.1c1.5,0,2.8-0.4,3.8-1.1
		c1-0.7,1.7-1.7,2.1-3h3.7c-0.6,2.1-1.7,3.8-3.3,5.1c-1.7,1.3-3.8,1.9-6.2,1.9c-2,0-3.7-0.4-5.3-1.3c-1.5-0.9-2.7-2.1-3.6-3.8
		S266.2,154.8,266.2,152.6L266.2,152.6z M294.7,145.1v12.2c0,1,0.2,1.7,0.6,2.2c0.4,0.4,1.2,0.6,2.2,0.6h2.5v2.9h-3
		c-1.9,0-3.4-0.4-4.3-1.3c-1-0.9-1.4-2.3-1.4-4.4v-12.2h-2.7v-2.8h2.7V137h3.5v5.2h5.4v2.8h-5.5L294.7,145.1L294.7,145.1z
		 M307.8,145.6c0.6-1.2,1.5-2.1,2.6-2.8s2.5-1,4.1-1v3.6h-0.9c-3.9,0-5.8,2.1-5.8,6.3V163h-3.5v-20.8h3.5L307.8,145.6L307.8,145.6z
		 M337.4,151.9c0,0.7,0,1.4-0.1,2.1h-16.6c0.1,2.1,0.8,3.6,2.1,4.8c1.3,1.1,2.8,1.7,4.7,1.7c1.5,0,2.7-0.3,3.7-1s1.7-1.6,2.1-2.8
		h3.7c-0.6,2-1.7,3.6-3.3,4.9c-1.7,1.2-3.7,1.9-6.2,1.9c-2,0-3.7-0.4-5.3-1.3c-1.5-0.9-2.8-2.1-3.6-3.8c-0.9-1.6-1.3-3.5-1.3-5.7
		s0.4-4,1.3-5.6s2.1-2.9,3.6-3.7c1.6-0.9,3.4-1.3,5.4-1.3s3.7,0.4,5.2,1.3c1.5,0.9,2.7,2.1,3.5,3.6C337,148.3,337.4,150,337.4,151.9
		L337.4,151.9z M333.8,151.1c0-1.3-0.3-2.4-0.9-3.4s-1.4-1.7-2.4-2.2s-2.1-0.8-3.3-0.8c-1.7,0-3.2,0.6-4.5,1.7
		c-1.2,1.1-1.9,2.6-2.1,4.6L333.8,151.1L333.8,151.1z M367.7,157.1h-11.5L354,163h-3.6l9.5-26.2h4l9.5,26.2h-3.6L367.7,157.1z
		 M366.7,154.4l-4.8-13.3l-4.8,13.3H366.7L366.7,154.4z M381,136.6V163h-3.5v-26.4H381z"/>
	
		<linearGradient id="SVGID_00000050642308514075849160000009459977490951917470_" gradientUnits="userSpaceOnUse" x1="-446.8523" y1="-2774.2231" x2="-383.1123" y2="-2817.843" gradientTransform="matrix(1 0 0 -1 564 -2646)">
		<stop  offset="0" style="stop-color:#917EFE"/>
		<stop  offset="1" style="stop-color:#FFFFFF"/>
	</linearGradient>
	
		<circle style="display:inline;fill:#1D1C25;stroke:url(#SVGID_00000050642308514075849160000009459977490951917470_);stroke-width:0.63;" cx="149.7" cy="150.5" r="30.7"/>
	
		<linearGradient id="SVGID_00000121975165173326476340000005443340733882197655_" gradientUnits="userSpaceOnUse" x1="-414.5114" y1="-2778.46" x2="-414.5014" y2="-2808.4602" gradientTransform="matrix(1 0 0 -1 564 -2646)">
		<stop  offset="0" style="stop-color:#917EFE"/>
		<stop  offset="1" style="stop-color:#FFFFFF"/>
	</linearGradient>
	<path style="display:inline;fill:url(#SVGID_00000121975165173326476340000005443340733882197655_);" d="M143.9,163
		c-1-1.8-2.4-3.2-4-4.5C141.8,158.8,144,161.3,143.9,163z M154.6,163c1-1.8,2.4-3.2,3.9-4.5C156.7,158.9,154.6,161.2,154.6,163z
		 M158.9,142.5c-0.7-1.2-1.2-2.4-1.5-3.7C156.8,139.9,157.8,142.1,158.9,142.5z M141.8,138.9c-0.5,1.1-1,2.4-1.4,3.6
		C141.6,141.9,142.2,140,141.8,138.9z M163,150.1c-0.4,6.8-9.3,7.9-9.1,14.1c-0.9-0.8-1.2-1.9-0.8-3.1c0,0,0,0-0.1,0
		c-0.7,1.4-1.1,3-0.8,4.5c0.1,0.4-0.1,0.2-0.3,0l0,0c-0.4-0.7-0.6-1.5-0.7-2.2h-0.1c-0.6,1.8-0.7,3.7-1.6,5.4
		c-0.4-1.6-1-3.1-1.3-4.7c-0.1-0.2-0.3-0.8-0.3-0.8s-0.1,0.6-0.1,0.8c0.1,0.8-0.4,1.4-0.8,1.9c-0.2-1.2-0.1-2.5-0.4-3.7l0,0
		c-0.1-0.1-0.3-0.6-0.4-0.8c0.1,1-0.2,2-1,2.8c0.2-4.8-5-6.5-7.4-9.8c-2.5-3.5-2.9-9.4,0.9-12.1c-1.4,2.2-0.9,4.8,0.4,6.9
		c0.1,0.1,0.3,0.3,0.3,0.1c-0.7-1.5-0.4-3.2,0.4-4.6c2.2-2.1,2.9-5,3.4-8.1c1.8,2.6,0.9,6-0.6,8.4l0,0c0,0.1-0.1,0.1-0.1,0.2
		c4.2-2.3,5.4-8.4,6.8-12.8c1.2,4,2.2,8,4.9,11.3c0.6,0.6,1.3,1.1,1.9,1.6c-1.4-2.6-2.3-5.8-0.9-8.6c0.1,0,0.1,0,0.2,0
		c0.5,2.6,0.9,5.6,3,7.5c1.1,1.4,1.4,3.1,0.9,4.8c-0.1,0.1,0,0.2,0,0.3c0.1,0.1,0.1-0.1,0.2-0.1c1.4-2.1,1.7-4.7,0.5-6.9
		C162.7,144.1,163.4,147.2,163,150.1L163,150.1L163,150.1z M152.2,154.1c-0.1,0.1-0.1,0.2-0.1,0.3c2,0,4.2-1.1,5.1-2.8
		c0.3-0.7,0.8-1.7,0.5-2.5C155.6,150.5,153.8,152.3,152.2,154.1L152.2,154.1L152.2,154.1z M145.7,146.2
		C145.7,146.2,145.7,146.3,145.7,146.2c1.9-0.9,2.9-2.5,3.9-4.2c1,1.7,2,3.3,3.8,4.2c0,0,0-0.1,0.1-0.1c-2-1.7-2.9-4.3-3.9-6.7
		C148.7,142,147.7,144.5,145.7,146.2L145.7,146.2L145.7,146.2z M142.2,152c1.4,2,3.9,2.6,5.1,2.5c-1.7-2-3.5-4.1-5.9-5.3
		C141.3,149.9,141.5,150.5,142.2,152L142.2,152z M159.2,151.3C159.2,151.3,159.1,151.3,159.2,151.3c-3.3,7.1-8.1,4.4-9.7,9.5
		c-2.3-5.4-7-2.9-9.6-9.6c0,0-0.1,0-0.1,0.1c2.2,8.2,8.4,3.8,9.7,12.2h0.1c0-0.3,0.1-0.5,0.1-0.8
		C150.8,155.4,156.9,159.5,159.2,151.3L159.2,151.3L159.2,151.3z"/>
</g>
<g>
	
		<linearGradient id="SVGID_00000132793556182861039840000001102778806297493390_" gradientUnits="userSpaceOnUse" x1="169.2" y1="175.1398" x2="169.2" y2="124.6398" gradientTransform="matrix(1 0 0 -1 0 299.8898)">
		<stop  offset="0" style="stop-color:#FFAA33"/>
		<stop  offset="1" style="stop-color:#FF9A0D"/>
	</linearGradient>
	<path style="fill:url(#SVGID_00000132793556182861039840000001102778806297493390_);" d="M175.9,128.1v26.9l0,0
		c0,1.9-0.7,3.5-2,4.7c-1.3,1.3-3,2-4.7,2c-3.7,0-6.7-3-6.7-6.7v-26.9l6.7-3.4L175.9,128.1z M171.6,164.8c-0.7,0.3-1.5,0.3-2.4,0.3
		c-5.6,0-10.1-4.7-10.1-10.3v-25.1l-8.2,4c-1.2,0.7-1.9,1.7-1.9,3v7.2l0,0v10.8c0,7.4,6.2,13.6,13.5,13.5
		C166,168.3,169.2,167,171.6,164.8L171.6,164.8z M189.4,136.9c0-1.3-0.7-2.5-1.9-3l-8.2-4v25.1c0,9.3-7.6,17-17,17
		c-1.9,0-3.9-0.3-5.6-1c3.5,2.9,7.9,4.4,12.6,4.4c11.1,0,20-9.3,20-20.4V136.9L189.4,136.9z"/>
	<path class="st7" d="M320.5,165.3v-30.6h9.6v10.3h11.3v-10.3h9.6v30.5h-9.6v-11.3h-11.3v11.3h-9.6V165.3z"/>
	<path class="st7" d="M300.8,165.8c-9.1,0-16.2-7.1-16.2-16c0-8.9,7.1-16,16.2-16s15,5.9,16.2,13.8h-10.3c-0.8-2.5-3.2-4.2-5.9-4.2
		s-6.2,2.5-6.2,6.4s2.7,6.4,6.2,6.4s5-1.7,5.9-4.2H317C316,159.8,309.3,165.8,300.8,165.8z"/>
	<path class="st7" d="M270.7,165.3v-30.6h9.6v30.5h-9.6V165.3z"/>
	<path class="st7" d="M265,165.3h-6.1L244.6,151v14.3H235v-30.6h6.1l14.3,14.3v-14.3h9.6V165.3z"/>
	<path class="st7" d="M214.3,165.8c-7.6,0-14.8-4.5-14.8-15.1v-16h9.6v16c0,3,2,5.6,5.2,5.6s5.2-2.5,5.2-5.6v-16h9.6v16
		C229.1,161.3,221.9,165.8,214.3,165.8z"/>
</g>
</svg>
