<?xml version="1.0" encoding="utf-8"?>
<!-- Generator: Adobe Illustrator 28.4.1, SVG Export Plug-In . SVG Version: 6.00 Build 0)  -->
<svg version="1.1" id="Layer_4" xmlns="http://www.w3.org/2000/svg" xmlns:xlink="http://www.w3.org/1999/xlink" x="0px" y="0px"
	 viewBox="0 0 500 300" style="enable-background:new 0 0 500 300;" xml:space="preserve">
<style type="text/css">
	
		.st0{clip-path:url(#SVGID_00000119821449095343784030000004928184536540622240_);fill:url(#SVGID_00000177444882677550466250000006953222130003129505_);}
	.st1{opacity:0.26;clip-path:url(#SVGID_00000011745512944702846660000009176490601097386903_);}
	.st2{fill-rule:evenodd;clip-rule:evenodd;fill:#2BBDF7;}
	.st3{fill-rule:evenodd;clip-rule:evenodd;fill:#2B6DEF;}
	.st4{fill-rule:evenodd;clip-rule:evenodd;fill:#FFFFFF;}
	.st5{fill-rule:evenodd;clip-rule:evenodd;fill:#0CC19B;fill-opacity:0.5;}
	.st6{fill-rule:evenodd;clip-rule:evenodd;fill:#003CB2;}
	
		.st7{display:none;opacity:0.15;clip-path:url(#SVGID_00000158708772324499691080000002739898923744967310_);fill:url(#SVGID_00000181089400272505544160000017490688068681367431_);enable-background:new    ;}
	.st8{display:none;}
	.st9{display:inline;fill:#FFFFFF;}
	.st10{display:inline;fill:#1D1C25;stroke:url(#SVGID_00000111897352214076952220000014085905212803181750_);stroke-width:0.63;}
	.st11{display:inline;fill:url(#SVGID_00000151511432508272656710000018293662239852091802_);}
	.st12{fill:#FFFFFF;}
</style>
<g>
	<g>
		<g>
			<g>
				<g>
					<defs>
						<rect id="SVGID_1_" y="0" width="500" height="300"/>
					</defs>
					<clipPath id="SVGID_00000108301942857661663090000009759516416828163758_">
						<use xlink:href="#SVGID_1_"  style="overflow:visible;"/>
					</clipPath>
					
						<linearGradient id="SVGID_00000162343996261104654470000002797702419243503765_" gradientUnits="userSpaceOnUse" x1="-99.4167" y1="834.4155" x2="478.8408" y2="598.7289" gradientTransform="matrix(1 0 0 1 0 -542)">
						<stop  offset="7.775844e-03" style="stop-color:#291883"/>
						<stop  offset="0.9283" style="stop-color:#000105"/>
					</linearGradient>
					
						<rect y="0" style="clip-path:url(#SVGID_00000108301942857661663090000009759516416828163758_);fill:url(#SVGID_00000162343996261104654470000002797702419243503765_);" width="500" height="300"/>
				</g>
			</g>
		</g>
	</g>
	<g>
		<g>
			<g>
				<defs>
					<rect id="SVGID_00000018203588993786133020000018050790394605330821_" y="0" width="500" height="300"/>
				</defs>
				<clipPath id="SVGID_00000098906003961376534120000010031405807190216586_">
					<use xlink:href="#SVGID_00000018203588993786133020000018050790394605330821_"  style="overflow:visible;"/>
				</clipPath>
				<g style="opacity:0.26;clip-path:url(#SVGID_00000098906003961376534120000010031405807190216586_);">
					<path class="st2" d="M531.7,102.2L531.7,102.2l15.4,0.1c1.8-0.1,3.5-0.1,5.3,0l37.7,0.2c5.7,0.3,10.3,5.1,10.3,11
						c0,2.8-1,5.3-2.7,7.2l-18.4,32.1c-0.1,0.3-0.3,0.5-0.4,0.8l-45.4,79.6c-6.2,10.8-17.2,16.9-28.7,17.1l0,0l-0.5,0
						c-0.3,0-0.6,0-0.9,0L369,249.6h-15l0-0.3c11.4-1.6,21-8.9,25.8-19l0.1,0l65.9-115.8c3.7-7.4,11.3-12.4,20-12.4l-0.6,0l0,0
						H531.7z"/>
					<path class="st3" d="M426.4,45.3l118.7,0c5.7,0.3,10.3,5.1,10.3,11c0,2.4-0.7,4.5-2,6.3l-32,56.2l-34,59.7l0,0h0.3l-10.9,19.1
						c-9.2,16.1-4,36.5,11.5,46.3l1,0.6c4.4,2.5,9,4.5,13.8,5l0,0.8l-56.1-0.5l0,0.1h-97.3c-5.5-0.1-11.1-1.5-16.3-4.4
						c-16.7-9.4-22.7-30.6-13.5-47.5l73.8-134.7C400.3,50.9,413.4,44.3,426.4,45.3z"/>
					<path class="st4" d="M465.4,102.2l65.3,0.1l-9.5,16.6l-34,59.7l0,0h0.3l-10.9,19.1c-9.2,16.1-4,36.5,11.5,46.3l1,0.6
						c4.4,2.5,9,4.5,13.7,5l0,0.8l-56.1-0.5l0,0.1l-92.9,0c10.3-1.1,20-6.8,25.8-16.3l0.7-1.1l68.7-121.5c3.9-5.1,9.9-8.5,16.7-8.8
						L465.4,102.2z"/>
					<path class="st5" d="M465.4,102.2l65.3,0.1l-9.5,16.6l-34,59.7l0,0h0.3l-10.9,19.1c-9.2,16.1-4,36.5,11.5,46.3l1,0.6
						c4.4,2.5,9,4.5,13.7,5l0,0.8l-56.1-0.5l0,0.1l-92.9,0c10.3-1.1,20-6.8,25.8-16.3l0.7-1.1l68.7-121.5c3.9-5.1,9.9-8.5,16.7-8.8
						L465.4,102.2z"/>
					<path class="st6" d="M465.4,102.2l65.3,0.1l-9.5,16.6l-34,59.7l0,0h0.3l-10.9,19.1c-9.2,16.1-4,36.5,11.5,46.3l1,0.6
						c4.4,2.5,9,4.5,13.7,5l0,0.8l-56.1-0.5l0,0.1l-92.9,0c10.3-1.1,20-6.8,25.8-16.3l0.7-1.1l68.7-121.5c3.9-5.1,9.9-8.5,16.7-8.8
						L465.4,102.2z"/>
				</g>
			</g>
			<g>
				<defs>
					<rect id="SVGID_00000078724186454164526450000008174627182828356510_" y="0" width="500" height="300"/>
				</defs>
				<clipPath id="SVGID_00000057149083640283804000000010961160931196925069_">
					<use xlink:href="#SVGID_00000078724186454164526450000008174627182828356510_"  style="overflow:visible;"/>
				</clipPath>
				
					<linearGradient id="SVGID_00000157998821242444342650000017181115668809029822_" gradientUnits="userSpaceOnUse" x1="432.95" y1="-555.6132" x2="432.95" y2="-141.8768" gradientTransform="matrix(1 0 0 -1 0 -242.1102)">
					<stop  offset="0" style="stop-color:#FFAA33"/>
					<stop  offset="1" style="stop-color:#FF9A0D"/>
				</linearGradient>
				
					<path style="display:none;opacity:0.15;clip-path:url(#SVGID_00000057149083640283804000000010961160931196925069_);fill:url(#SVGID_00000157998821242444342650000017181115668809029822_);enable-background:new    ;" d="
					M473.4,30.3v163c-0.2,10.4-4.5,20.1-11.9,27.5c-7.6,7.6-17.8,11.8-28.6,11.8c-22.3,0-40.4-18.1-40.4-40.4V30.3l40.4-20.2
					L473.4,30.3L473.4,30.3z M447.4,251.1c-14.2,13.3-33.3,21.5-54.1,21.7c-44.7,0.4-81.4-36.9-81.4-81.6V127h-0.3V83.3
					c0-7.6,4.3-14.7,11.2-18l49.5-24.8v150.9c0,33.5,27.4,61.6,60.9,61.6C438,252.9,442.8,252.3,447.4,251.1L447.4,251.1z
					 M554.3,83.2V191c0,66.9-53.7,122.1-120.6,122.5c-28.6,0.2-55.1-9.6-75.9-26c10.6,3.9,21.9,6,33.8,6.1
					c56.3,0.5,102.4-46.1,102.4-102.4V40.6l49.2,24.6C549.9,68.6,554.3,75.7,554.3,83.2L554.3,83.2L554.3,83.2z"/>
			</g>
		</g>
	</g>
</g>
<g class="st8">
	<path class="st9" d="M204.6,163.3c-1.7,0-3.3-0.3-4.7-0.9c-1.4-0.6-2.4-1.5-3.2-2.6s-1.2-2.4-1.2-3.8h3.7c0.1,1.2,0.6,2.3,1.5,3.1
		s2.2,1.2,3.9,1.2s2.9-0.4,3.9-1.2s1.4-1.9,1.4-3.2c0-1-0.3-1.8-0.8-2.5c-0.6-0.6-1.2-1.1-2.1-1.4s-2-0.7-3.4-1.1
		c-1.7-0.4-3.1-0.9-4.2-1.4c-1-0.4-1.9-1.2-2.7-2.1c-0.7-1-1.1-2.3-1.1-3.9c0-1.4,0.4-2.7,1.1-3.8c0.7-1.1,1.8-2,3.1-2.6
		s2.9-0.9,4.6-0.9c2.5,0,4.5,0.6,6.1,1.9c1.6,1.2,2.5,2.9,2.7,4.9h-3.8c-0.1-1-0.7-1.9-1.6-2.6c-0.9-0.8-2.2-1.2-3.7-1.2
		c-1.4,0-2.6,0.4-3.5,1.1c-0.9,0.7-1.4,1.8-1.4,3.1c0,1,0.3,1.7,0.8,2.4c0.6,0.6,1.2,1.1,2,1.4c0.8,0.3,1.9,0.7,3.4,1.1
		c1.7,0.5,3.1,1,4.2,1.4c1.1,0.4,2,1.2,2.7,2.2c0.8,1,1.1,2.3,1.1,3.9c0,1.3-0.3,2.5-1,3.6s-1.7,2.1-3,2.8S206.4,163.3,204.6,163.3
		L204.6,163.3z M221.9,146.1c0.7-1.2,1.7-2.2,3-3c1.4-0.8,2.9-1.2,4.7-1.2s3.5,0.4,5,1.3c1.5,0.9,2.7,2.1,3.6,3.8
		c0.9,1.6,1.3,3.4,1.3,5.6s-0.4,4-1.3,5.6s-2.1,2.9-3.6,3.8c-1.5,0.9-3.2,1.4-5,1.4s-3.3-0.4-4.7-1.2c-1.3-0.8-2.4-1.8-3.1-3v13.7
		h-3.4v-30.6h3.4v3.8L221.9,146.1L221.9,146.1z M236,152.6c0-1.6-0.3-2.9-0.9-4.1c-0.6-1.2-1.5-2.1-2.6-2.6
		c-1.1-0.6-2.2-0.9-3.5-0.9s-2.4,0.3-3.5,0.9c-1.1,0.6-1.9,1.5-2.6,2.7c-0.6,1.2-0.9,2.5-0.9,4.1s0.3,2.9,0.9,4.1
		c0.7,1.2,1.5,2.1,2.6,2.7c1.1,0.6,2.3,0.9,3.5,0.9s2.5-0.3,3.5-0.9c1.1-0.6,1.9-1.5,2.6-2.7C235.6,155.6,236,154.2,236,152.6
		L236,152.6z M263,151.9c0,0.7,0,1.4-0.1,2.1h-16.6c0.1,2.1,0.8,3.6,2.1,4.8c1.3,1.1,2.8,1.7,4.7,1.7c1.5,0,2.7-0.3,3.7-1
		s1.7-1.6,2.1-2.8h3.7c-0.6,2-1.7,3.6-3.3,4.9c-1.7,1.2-3.7,1.9-6.2,1.9c-2,0-3.7-0.4-5.3-1.3c-1.5-0.9-2.8-2.1-3.6-3.8
		c-0.9-1.6-1.3-3.5-1.3-5.7s0.4-4,1.3-5.6c0.9-1.6,2.1-2.9,3.6-3.7c1.6-0.9,3.4-1.3,5.4-1.3s3.7,0.4,5.2,1.3s2.7,2.1,3.5,3.6
		C262.6,148.3,263,150,263,151.9L263,151.9z M259.4,151.1c0-1.3-0.3-2.4-0.9-3.4s-1.4-1.7-2.4-2.2s-2.1-0.8-3.3-0.8
		c-1.7,0-3.2,0.6-4.5,1.7c-1.2,1.1-1.9,2.6-2.1,4.6L259.4,151.1L259.4,151.1z M266.2,152.6c0-2.1,0.4-4,1.3-5.6s2-2.9,3.6-3.8
		c1.5-0.9,3.3-1.3,5.3-1.3c2.5,0,4.6,0.6,6.3,1.9c1.7,1.2,2.8,3,3.3,5.1h-3.7c-0.4-1.3-1-2.3-2.1-3c-1-0.7-2.3-1.1-3.8-1.1
		c-2,0-3.6,0.7-4.8,2.1c-1.2,1.3-1.8,3.2-1.8,5.7s0.6,4.4,1.8,5.8c1.2,1.4,2.8,2.1,4.8,2.1c1.5,0,2.8-0.4,3.8-1.1
		c1-0.7,1.7-1.7,2.1-3h3.7c-0.6,2.1-1.7,3.8-3.3,5.1c-1.7,1.3-3.8,1.9-6.2,1.9c-2,0-3.7-0.4-5.3-1.3c-1.5-0.9-2.7-2.1-3.6-3.8
		S266.2,154.8,266.2,152.6L266.2,152.6z M294.7,145.1v12.2c0,1,0.2,1.7,0.6,2.2c0.4,0.4,1.2,0.6,2.2,0.6h2.5v2.9h-3
		c-1.9,0-3.4-0.4-4.3-1.3c-1-0.9-1.4-2.3-1.4-4.4v-12.2h-2.7v-2.8h2.7V137h3.5v5.2h5.4v2.8h-5.5L294.7,145.1L294.7,145.1z
		 M307.8,145.6c0.6-1.2,1.5-2.1,2.6-2.8s2.5-1,4.1-1v3.6h-0.9c-3.9,0-5.8,2.1-5.8,6.3V163h-3.5v-20.8h3.5L307.8,145.6L307.8,145.6z
		 M337.4,151.9c0,0.7,0,1.4-0.1,2.1h-16.6c0.1,2.1,0.8,3.6,2.1,4.8c1.3,1.1,2.8,1.7,4.7,1.7c1.5,0,2.7-0.3,3.7-1s1.7-1.6,2.1-2.8
		h3.7c-0.6,2-1.7,3.6-3.3,4.9c-1.7,1.2-3.7,1.9-6.2,1.9c-2,0-3.7-0.4-5.3-1.3c-1.5-0.9-2.8-2.1-3.6-3.8c-0.9-1.6-1.3-3.5-1.3-5.7
		s0.4-4,1.3-5.6s2.1-2.9,3.6-3.7c1.6-0.9,3.4-1.3,5.4-1.3s3.7,0.4,5.2,1.3c1.5,0.9,2.7,2.1,3.5,3.6C337,148.3,337.4,150,337.4,151.9
		L337.4,151.9z M333.8,151.1c0-1.3-0.3-2.4-0.9-3.4s-1.4-1.7-2.4-2.2s-2.1-0.8-3.3-0.8c-1.7,0-3.2,0.6-4.5,1.7
		c-1.2,1.1-1.9,2.6-2.1,4.6L333.8,151.1L333.8,151.1z M367.7,157.1h-11.5L354,163h-3.6l9.5-26.2h4l9.5,26.2h-3.6L367.7,157.1z
		 M366.7,154.4l-4.8-13.3l-4.8,13.3H366.7L366.7,154.4z M381,136.6V163h-3.5v-26.4H381z"/>
	
		<linearGradient id="SVGID_00000155832544001211202860000002137486723430336679_" gradientUnits="userSpaceOnUse" x1="-446.8523" y1="-3316.2231" x2="-383.1123" y2="-3359.843" gradientTransform="matrix(1 0 0 -1 564 -3188)">
		<stop  offset="0" style="stop-color:#917EFE"/>
		<stop  offset="1" style="stop-color:#FFFFFF"/>
	</linearGradient>
	
		<circle style="display:inline;fill:#1D1C25;stroke:url(#SVGID_00000155832544001211202860000002137486723430336679_);stroke-width:0.63;" cx="149.7" cy="150.5" r="30.7"/>
	
		<linearGradient id="SVGID_00000065780003012583316580000007936279262992417934_" gradientUnits="userSpaceOnUse" x1="-414.5114" y1="-3320.46" x2="-414.5014" y2="-3350.4602" gradientTransform="matrix(1 0 0 -1 564 -3188)">
		<stop  offset="0" style="stop-color:#917EFE"/>
		<stop  offset="1" style="stop-color:#FFFFFF"/>
	</linearGradient>
	<path style="display:inline;fill:url(#SVGID_00000065780003012583316580000007936279262992417934_);" d="M143.9,163
		c-1-1.8-2.4-3.2-4-4.5C141.8,158.8,144,161.3,143.9,163z M154.6,163c1-1.8,2.4-3.2,3.9-4.5C156.7,158.9,154.6,161.2,154.6,163z
		 M158.9,142.5c-0.7-1.2-1.2-2.4-1.5-3.7C156.8,139.9,157.8,142.1,158.9,142.5z M141.8,138.9c-0.5,1.1-1,2.4-1.4,3.6
		C141.6,141.9,142.2,140,141.8,138.9z M163,150.1c-0.4,6.8-9.3,7.9-9.1,14.1c-0.9-0.8-1.2-1.9-0.8-3.1c0,0,0,0-0.1,0
		c-0.7,1.4-1.1,3-0.8,4.5c0.1,0.4-0.1,0.2-0.3,0l0,0c-0.4-0.7-0.6-1.5-0.7-2.2h-0.1c-0.6,1.8-0.7,3.7-1.6,5.4
		c-0.4-1.6-1-3.1-1.3-4.7c-0.1-0.2-0.3-0.8-0.3-0.8s-0.1,0.6-0.1,0.8c0.1,0.8-0.4,1.4-0.8,1.9c-0.2-1.2-0.1-2.5-0.4-3.7l0,0
		c-0.1-0.1-0.3-0.6-0.4-0.8c0.1,1-0.2,2-1,2.8c0.2-4.8-5-6.5-7.4-9.8c-2.5-3.5-2.9-9.4,0.9-12.1c-1.4,2.2-0.9,4.8,0.4,6.9
		c0.1,0.1,0.3,0.3,0.3,0.1c-0.7-1.5-0.4-3.2,0.4-4.6c2.2-2.1,2.9-5,3.4-8.1c1.8,2.6,0.9,6-0.6,8.4l0,0c0,0.1-0.1,0.1-0.1,0.2
		c4.2-2.3,5.4-8.4,6.8-12.8c1.2,4,2.2,8,4.9,11.3c0.6,0.6,1.3,1.1,1.9,1.6c-1.4-2.6-2.3-5.8-0.9-8.6c0.1,0,0.1,0,0.2,0
		c0.5,2.6,0.9,5.6,3,7.5c1.1,1.4,1.4,3.1,0.9,4.8c-0.1,0.1,0,0.2,0,0.3c0.1,0.1,0.1-0.1,0.2-0.1c1.4-2.1,1.7-4.7,0.5-6.9
		C162.7,144.1,163.4,147.2,163,150.1L163,150.1L163,150.1z M152.2,154.1c-0.1,0.1-0.1,0.2-0.1,0.3c2,0,4.2-1.1,5.1-2.8
		c0.3-0.7,0.8-1.7,0.5-2.5C155.6,150.5,153.8,152.3,152.2,154.1L152.2,154.1L152.2,154.1z M145.7,146.2
		C145.7,146.2,145.7,146.3,145.7,146.2c1.9-0.9,2.9-2.5,3.9-4.2c1,1.7,2,3.3,3.8,4.2c0,0,0-0.1,0.1-0.1c-2-1.7-2.9-4.3-3.9-6.7
		C148.7,142,147.7,144.5,145.7,146.2L145.7,146.2L145.7,146.2z M142.2,152c1.4,2,3.9,2.6,5.1,2.5c-1.7-2-3.5-4.1-5.9-5.3
		C141.3,149.9,141.5,150.5,142.2,152L142.2,152z M159.2,151.3C159.2,151.3,159.1,151.3,159.2,151.3c-3.3,7.1-8.1,4.4-9.7,9.5
		c-2.3-5.4-7-2.9-9.6-9.6c0,0-0.1,0-0.1,0.1c2.2,8.2,8.4,3.8,9.7,12.2h0.1c0-0.3,0.1-0.5,0.1-0.8
		C150.8,155.4,156.9,159.5,159.2,151.3L159.2,151.3L159.2,151.3z"/>
</g>
<g>
	<g>
		<path class="st12" d="M215.4,163.8c-4.7,0-8.3-1.3-11-3.8c-2.7-2.6-4.1-6.2-4.1-10.9v-20.5h9v19.7c0,2.4,0.5,4.3,1.6,5.5
			c1.1,1.3,2.6,1.9,4.5,1.9c1.9,0,3.3-0.6,4.4-1.9c1.1-1.3,1.6-3.1,1.6-5.5v-19.7h9v20.6c0,4.7-1.4,8.3-4.1,10.9
			C223.7,162.5,220,163.8,215.4,163.8z"/>
		<path class="st12" d="M234.4,163.2v-25.4h8.8v2.2c1.7-1.8,3.9-2.8,6.8-2.8c2.8,0,5,0.8,6.5,2.5c1.6,1.7,2.4,3.9,2.4,6.8v16.7h-8.8
			v-14.5c0-1.1-0.3-2-0.8-2.6c-0.6-0.7-1.4-1-2.5-1c-0.9,0-1.7,0.2-2.4,0.7c-0.6,0.5-1.1,1.2-1.3,2v15.4H234.4z"/>
		<path class="st12" d="M271.9,137.8v25.4h-8.8v-25.4H271.9z M272.6,130.9c0,1.4-0.5,2.5-1.5,3.4c-1,0.9-2.2,1.3-3.5,1.3
			s-2.6-0.4-3.5-1.3c-1-0.9-1.5-2.1-1.5-3.4c0-1.4,0.5-2.6,1.5-3.4c1-0.9,2.2-1.4,3.5-1.4s2.6,0.5,3.5,1.4
			C272.1,128.3,272.6,129.5,272.6,130.9z"/>
		<path class="st12" d="M276.4,163.2v-34.7h9.1v26.9H301v7.9H276.4z"/>
		<path class="st12" d="M319.5,154.3h8.2c-0.5,2.9-1.7,5.3-3.8,7c-2.1,1.7-4.8,2.5-8.1,2.5c-3.9,0-7-1.2-9.4-3.7
			c-2.4-2.4-3.5-5.7-3.5-9.6c0-3.9,1.2-7.1,3.6-9.6c2.4-2.5,5.4-3.7,9.1-3.7c3.8,0,6.8,1.2,9,3.5c2.1,2.3,3.2,5.4,3.2,9.3v2.2h-16.4
			c0.3,3.1,1.8,4.7,4.4,4.7C317.8,156.9,319,156,319.5,154.3z M315.6,144.1c-2.1,0-3.5,1.2-4.1,3.7h7.7c-0.1-1.1-0.4-2-1.1-2.7
			C317.5,144.5,316.7,144.1,315.6,144.1z"/>
		<path class="st12" d="M330.6,163.2v-25.4h8.8v2.2c1.7-1.8,3.9-2.8,6.8-2.8c2.8,0,5,0.8,6.5,2.5c1.6,1.7,2.4,3.9,2.4,6.8v16.7h-8.8
			v-14.5c0-1.1-0.3-2-0.8-2.6c-0.6-0.7-1.4-1-2.5-1c-0.9,0-1.7,0.2-2.4,0.7c-0.6,0.5-1.1,1.2-1.3,2v15.4H330.6z"/>
		<path class="st12" d="M375.5,163.2v-2c-0.6,0.7-1.5,1.3-2.7,1.9c-1.1,0.5-2.3,0.7-3.5,0.7c-3.5,0-6.3-1.2-8.3-3.7
			c-2-2.5-3-5.7-3-9.6s1-7,3-9.5c2-2.5,4.8-3.8,8.3-3.8c1.2,0,2.4,0.3,3.5,0.8c1.2,0.5,2.1,1.1,2.7,1.8v-13.3h8.8v36.7H375.5z
			 M375.5,153.8v-6.7c-0.3-0.7-0.9-1.2-1.6-1.7c-0.7-0.5-1.5-0.7-2.3-0.7c-1.5,0-2.7,0.5-3.5,1.6c-0.9,1.1-1.3,2.4-1.3,4.1
			c0,1.7,0.4,3,1.3,4.1c0.9,1.1,2,1.6,3.5,1.6C373.4,156.2,374.7,155.4,375.5,153.8z"/>
	</g>
	<g>
		<path class="st2" d="M173.8,130.5L173.8,130.5l4.2,0c0.5,0,1,0,1.4,0l10.2,0.1c1.6,0.1,2.8,1.4,2.8,3c0,0.8-0.3,1.4-0.7,2l-5,8.7
			c0,0.1-0.1,0.1-0.1,0.2L174.3,166c-1.7,2.9-4.7,4.6-7.8,4.6l0,0l-0.1,0c-0.1,0-0.2,0-0.2,0l-36.4-0.2h-4.1l0-0.1
			c3.1-0.4,5.7-2.4,7-5.1l0,0l17.8-31.4c1-2,3-3.4,5.4-3.4l-0.2,0l0,0H173.8z"/>
		<path class="st3" d="M145.3,115.1l32.1,0c1.6,0.1,2.8,1.4,2.8,3c0,0.6-0.2,1.2-0.5,1.7L171,135l-9.2,16.2l0,0h0.1l-2.9,5.2
			c-2.5,4.4-1.1,9.9,3.1,12.5l0.3,0.2c1.2,0.7,2.5,1.2,3.7,1.3l0,0.2l-15.2-0.1l0,0h-26.4c-1.5,0-3-0.4-4.4-1.2
			c-4.5-2.5-6.2-8.3-3.6-12.9l20-36.5C138.2,116.6,141.7,114.8,145.3,115.1z"/>
		<path class="st4" d="M155.8,130.5l17.7,0L171,135l-9.2,16.2l0,0h0.1l-2.9,5.2c-2.5,4.4-1.1,9.9,3.1,12.5l0.3,0.2
			c1.2,0.7,2.4,1.2,3.7,1.3l0,0.2l-15.2-0.1l0,0l-25.2,0c2.8-0.3,5.4-1.8,7-4.4l0.2-0.3l18.6-32.9
			C152.4,131.5,154,130.6,155.8,130.5L155.8,130.5z"/>
		<path class="st5" d="M155.8,130.5l17.7,0L171,135l-9.2,16.2l0,0h0.1l-2.9,5.2c-2.5,4.4-1.1,9.9,3.1,12.5l0.3,0.2
			c1.2,0.7,2.4,1.2,3.7,1.3l0,0.2l-15.2-0.1l0,0l-25.2,0c2.8-0.3,5.4-1.8,7-4.4l0.2-0.3l18.6-32.9
			C152.4,131.5,154,130.6,155.8,130.5L155.8,130.5z"/>
		<path class="st6" d="M155.8,130.5l17.7,0L171,135l-9.2,16.2l0,0h0.1l-2.9,5.2c-2.5,4.4-1.1,9.9,3.1,12.5l0.3,0.2
			c1.2,0.7,2.5,1.2,3.7,1.3l0,0.2l-15.2-0.1l0,0l-25.2,0c2.8-0.3,5.4-1.8,7-4.4l0.2-0.3l18.6-32.9
			C152.4,131.5,154,130.6,155.8,130.5L155.8,130.5z"/>
	</g>
</g>
</svg>
