<svg width="24" height="20" viewBox="0 0 24 20" fill="none" xmlns="http://www.w3.org/2000/svg">
<path d="M5.33333 0.667007L0 6.96652L5.33333 8.92154L8.44444 1.53591L5.33333 0.667007Z" fill="url(#paint0_linear_2509_3182)"/>
<path d="M8.44444 1.53591L5.33333 8.92154H18.6667L15.5556 1.53591H8.44444Z" fill="url(#paint1_linear_2509_3182)"/>
<path d="M5.33333 8.92154L12 20L18.6667 8.92154H5.33333Z" fill="url(#paint2_linear_2509_3182)"/>
<path d="M0 6.96652L12 20L5.33333 8.92154L0 6.96652Z" fill="url(#paint3_linear_2509_3182)"/>
<path d="M12 20L24 6.96652L18.6667 8.92154L12 20Z" fill="url(#paint4_linear_2509_3182)"/>
<path d="M24 6.96652L18.6667 0.667007L15.5556 1.53591L18.6667 8.92154L24 6.96652Z" fill="url(#paint5_linear_2509_3182)"/>
<path d="M5.33333 0.667007L8.44444 1.53591H15.5556L18.6667 0.667007L12 0L5.33333 0.667007Z" fill="url(#paint6_linear_2509_3182)"/>
<path d="M5.33333 0.667007L0 6.96652L5.33333 8.92154L8.44444 1.53591L5.33333 0.667007Z" fill="url(#paint7_linear_2509_3182)" style="mix-blend-mode:soft-light"/>
<path d="M8.44444 1.53591L5.33333 8.92154H18.6667L15.5556 1.53591H8.44444Z" fill="url(#paint8_linear_2509_3182)" style="mix-blend-mode:plus-lighter"/>
<path d="M5.33333 8.92154L12 20L18.6667 8.92154H5.33333Z" fill="url(#paint9_linear_2509_3182)" style="mix-blend-mode:overlay"/>
<path d="M0 6.96652L12 20L5.33333 8.92154L0 6.96652Z" fill="url(#paint10_linear_2509_3182)" style="mix-blend-mode:soft-light"/>
<path d="M12 20L24 6.96652L18.6667 8.92154L12 20Z" fill="url(#paint11_linear_2509_3182)" style="mix-blend-mode:overlay"/>
<path d="M24 6.96652L18.6667 0.667007L15.5556 1.53591L18.6667 8.92154L24 6.96652Z" fill="url(#paint12_linear_2509_3182)" style="mix-blend-mode:soft-light"/>
<path d="M5.33333 0.667007L8.44444 1.53591H15.5556L18.6667 0.667007L12 0L5.33333 0.667007Z" fill="url(#paint13_linear_2509_3182)" style="mix-blend-mode:soft-light"/>
<defs>
<linearGradient id="paint0_linear_2509_3182" x1="12" y1="19" x2="15.8247" y2="-0.0352139" gradientUnits="userSpaceOnUse">
<stop stop-color="#5B287A"/>
<stop offset="1" stop-color="#9B47A1"/>
</linearGradient>
<linearGradient id="paint1_linear_2509_3182" x1="12" y1="19" x2="15.8247" y2="-0.0352139" gradientUnits="userSpaceOnUse">
<stop stop-color="#5B287A"/>
<stop offset="1" stop-color="#9B47A1"/>
</linearGradient>
<linearGradient id="paint2_linear_2509_3182" x1="12" y1="19" x2="15.8247" y2="-0.0352139" gradientUnits="userSpaceOnUse">
<stop stop-color="#5B287A"/>
<stop offset="1" stop-color="#9B47A1"/>
</linearGradient>
<linearGradient id="paint3_linear_2509_3182" x1="12" y1="19" x2="15.8247" y2="-0.0352139" gradientUnits="userSpaceOnUse">
<stop stop-color="#5B287A"/>
<stop offset="1" stop-color="#9B47A1"/>
</linearGradient>
<linearGradient id="paint4_linear_2509_3182" x1="12" y1="19" x2="15.8247" y2="-0.0352139" gradientUnits="userSpaceOnUse">
<stop stop-color="#5B287A"/>
<stop offset="1" stop-color="#9B47A1"/>
</linearGradient>
<linearGradient id="paint5_linear_2509_3182" x1="12" y1="19" x2="15.8247" y2="-0.0352139" gradientUnits="userSpaceOnUse">
<stop stop-color="#5B287A"/>
<stop offset="1" stop-color="#9B47A1"/>
</linearGradient>
<linearGradient id="paint6_linear_2509_3182" x1="12" y1="19" x2="15.8247" y2="-0.0352139" gradientUnits="userSpaceOnUse">
<stop stop-color="#5B287A"/>
<stop offset="1" stop-color="#9B47A1"/>
</linearGradient>
<linearGradient id="paint7_linear_2509_3182" x1="8.4" y1="1.52941" x2="5.39422" y2="8.88568" gradientUnits="userSpaceOnUse">
<stop stop-color="#494949"/>
<stop offset="1" stop-color="#E9E9E9"/>
</linearGradient>
<linearGradient id="paint8_linear_2509_3182" x1="12" y1="1.30435" x2="12" y2="8.91304" gradientUnits="userSpaceOnUse">
<stop stop-color="white" stop-opacity="0.8"/>
<stop offset="1" stop-color="white" stop-opacity="0"/>
</linearGradient>
<linearGradient id="paint9_linear_2509_3182" x1="12" y1="8.91304" x2="12" y2="20" gradientUnits="userSpaceOnUse">
<stop stop-color="#4C4C4C"/>
<stop offset="1" stop-color="#B8B8B8"/>
</linearGradient>
<linearGradient id="paint10_linear_2509_3182" x1="5.33333" y1="8.91304" x2="11.7846" y2="20.1239" gradientUnits="userSpaceOnUse">
<stop stop-color="#565656"/>
<stop offset="1" stop-color="#FAFAFA"/>
</linearGradient>
<linearGradient id="paint11_linear_2509_3182" x1="18.8842" y1="9" x2="12.2312" y2="20.1381" gradientUnits="userSpaceOnUse">
<stop stop-color="#323232"/>
<stop offset="1" stop-color="#9A9A9A"/>
</linearGradient>
<linearGradient id="paint12_linear_2509_3182" x1="15.3333" y1="1.08696" x2="18.5437" y2="8.96315" gradientUnits="userSpaceOnUse">
<stop stop-color="#494949"/>
<stop offset="1" stop-color="#999999"/>
</linearGradient>
<linearGradient id="paint13_linear_2509_3182" x1="12" y1="0.232558" x2="12" y2="1.52174" gradientUnits="userSpaceOnUse">
<stop stop-color="#7C7C7C"/>
<stop offset="1" stop-color="white"/>
</linearGradient>
</defs>
</svg>
