<svg width="25" height="24" viewBox="0 0 25 24" fill="none" xmlns="http://www.w3.org/2000/svg">
<path d="M7.75161 21C7.10169 21 6.54899 20.7743 6.09353 20.323C5.63793 19.8716 5.41013 19.3236 5.41013 18.6788C5.41013 18.034 5.63771 17.4856 6.09289 17.0336C6.54793 16.5816 7.10055 16.3556 7.75076 16.3556C7.93289 16.3556 8.11176 16.378 8.28736 16.4229C8.4631 16.4679 8.62899 16.5283 8.78502 16.604L10.4723 14.5206C10.1188 14.1383 9.87495 13.7107 9.74076 13.2377C9.60658 12.7645 9.57927 12.2886 9.65885 11.8101L7.20715 11.0047C6.99325 11.3457 6.71204 11.6191 6.36353 11.8247C6.01502 12.0305 5.6263 12.1333 5.19736 12.1333C4.54729 12.1333 3.99466 11.9077 3.53949 11.4563C3.08445 11.0049 2.85693 10.4569 2.85693 9.81217C2.85693 9.16729 3.08438 8.6189 3.53927 8.16698C3.99417 7.71492 4.54651 7.48889 5.1963 7.48889C5.84622 7.48889 6.39892 7.71464 6.85438 8.16613C7.30998 8.61777 7.53778 9.1661 7.53778 9.81111C7.53778 9.86093 7.53644 9.90259 7.53374 9.93609C7.53091 9.96973 7.52949 10.0033 7.52949 10.0368L9.9731 10.8798C10.2077 10.4488 10.5299 10.0791 10.9397 9.77058C11.3493 9.46207 11.8193 9.26398 12.3495 9.1763V6.58428C11.8018 6.45663 11.3594 6.1819 11.0223 5.7601C10.6851 5.33844 10.5165 4.85802 10.5165 4.31884C10.5165 3.67693 10.744 3.13001 11.1988 2.67809C11.6537 2.22603 12.2061 2 12.8559 2C13.5058 2 14.0585 2.22575 14.514 2.67724C14.9696 3.12888 15.1974 3.67721 15.1974 4.32222C15.1974 4.85915 15.0266 5.33844 14.685 5.7601C14.3436 6.1819 13.9034 6.45663 13.3644 6.58428V9.1763C13.8946 9.26398 14.3632 9.46207 14.7701 9.77058C15.1771 10.0791 15.5006 10.4488 15.7408 10.8798L18.1844 10.0368C18.1788 9.9978 18.1761 9.9629 18.1761 9.93208V9.81111C18.1761 9.1661 18.4035 8.61777 18.8584 8.16613C19.3133 7.71464 19.8657 7.48889 20.5154 7.48889C21.1654 7.48889 21.7181 7.71457 22.1735 8.16592C22.6291 8.61728 22.8569 9.16532 22.8569 9.81006C22.8569 10.4549 22.6294 11.0033 22.1744 11.4552C21.7192 11.9073 21.1666 12.1333 20.5165 12.1333C20.0893 12.1333 19.6988 12.0305 19.345 11.8247C18.9913 11.6191 18.7118 11.3457 18.5067 11.0047L16.055 11.8101C16.1346 12.2886 16.1073 12.7623 15.9731 13.2311C15.8389 13.6999 15.5951 14.127 15.2416 14.5123L16.9288 16.5829C17.0849 16.5126 17.2508 16.4571 17.4265 16.4166C17.6021 16.3759 17.781 16.3556 17.9631 16.3556C18.6133 16.3556 19.1659 16.5812 19.621 17.0326C20.0762 17.4839 20.3037 18.032 20.3037 18.6767C20.3037 19.3216 20.0763 19.87 19.6214 20.3219C19.1665 20.774 18.6142 21 17.9644 21C17.3145 21 16.7618 20.7743 16.3063 20.3228C15.8507 19.8711 15.6229 19.3228 15.6229 18.6778C15.6229 18.4115 15.6663 18.1552 15.7531 17.9089C15.8398 17.6626 15.9693 17.4366 16.1418 17.2308L14.4544 15.1311C13.971 15.417 13.4376 15.5599 12.8544 15.5599C12.2713 15.5599 11.7353 15.417 11.2465 15.1311L9.57204 17.2308C9.73899 17.4366 9.86722 17.6626 9.95672 17.9089C10.0462 18.1552 10.091 18.4115 10.091 18.6778C10.091 19.3228 9.86353 19.8711 9.40864 20.3228C8.95374 20.7743 8.4014 21 7.75161 21ZM5.19736 10.8667C5.4931 10.8667 5.74431 10.7641 5.95098 10.5589C6.15778 10.3538 6.26119 10.1046 6.26119 9.81111C6.26119 9.51767 6.15778 9.26841 5.95098 9.06336C5.74431 8.85816 5.4931 8.75556 5.19736 8.75556C4.90161 8.75556 4.65041 8.85816 4.44374 9.06336C4.23693 9.26841 4.13353 9.51767 4.13353 9.81111C4.13353 10.1046 4.23693 10.3538 4.44374 10.5589C4.65041 10.7641 4.90161 10.8667 5.19736 10.8667ZM7.75055 19.7333C8.0463 19.7333 8.2975 19.6307 8.50417 19.4255C8.71098 19.2205 8.81438 18.9712 8.81438 18.6778C8.81438 18.3843 8.71098 18.1351 8.50417 17.93C8.2975 17.7248 8.0463 17.6222 7.75055 17.6222C7.45481 17.6222 7.2036 17.7248 6.99693 17.93C6.79012 18.1351 6.68672 18.3843 6.68672 18.6778C6.68672 18.9712 6.79012 19.2205 6.99693 19.4255C7.2036 19.6307 7.45481 19.7333 7.75055 19.7333ZM12.8569 5.37778C13.1527 5.37778 13.4039 5.27518 13.6105 5.06998C13.8174 4.86492 13.9208 4.61567 13.9208 4.32222C13.9208 4.02878 13.8174 3.77953 13.6105 3.57447C13.4039 3.36927 13.1527 3.26667 12.8569 3.26667C12.5612 3.26667 12.31 3.36927 12.1033 3.57447C11.8965 3.77953 11.7931 4.02878 11.7931 4.32222C11.7931 4.61567 11.8965 4.86492 12.1033 5.06998C12.31 5.27518 12.5612 5.37778 12.8569 5.37778ZM12.8569 14.2932C13.4036 14.2932 13.8676 14.104 14.2488 13.7255C14.6303 13.3472 14.821 12.8869 14.821 12.3444C14.821 11.802 14.6303 11.3417 14.2488 10.9634C13.8676 10.5849 13.4036 10.3957 12.8569 10.3957C12.3103 10.3957 11.8463 10.5849 11.465 10.9634C11.0836 11.3417 10.8929 11.802 10.8929 12.3444C10.8929 12.8869 11.0836 13.3472 11.465 13.7255C11.8463 14.104 12.3103 14.2932 12.8569 14.2932ZM17.9633 19.7333C18.2591 19.7333 18.5103 19.6307 18.7169 19.4255C18.9237 19.2205 19.0271 18.9712 19.0271 18.6778C19.0271 18.3843 18.9237 18.1351 18.7169 17.93C18.5103 17.7248 18.2591 17.6222 17.9633 17.6222C17.6676 17.6222 17.4164 17.7248 17.2097 17.93C17.0029 18.1351 16.8995 18.3843 16.8995 18.6778C16.8995 18.9712 17.0029 19.2205 17.2097 19.4255C17.4164 19.6307 17.6676 19.7333 17.9633 19.7333ZM20.5165 10.8667C20.8123 10.8667 21.0635 10.7641 21.2701 10.5589C21.4769 10.3538 21.5803 10.1046 21.5803 9.81111C21.5803 9.51767 21.4769 9.26841 21.2701 9.06336C21.0635 8.85816 20.8123 8.75556 20.5165 8.75556C20.2208 8.75556 19.9696 8.85816 19.7629 9.06336C19.5561 9.26841 19.4527 9.51767 19.4527 9.81111C19.4527 10.1046 19.5561 10.3538 19.7629 10.5589C19.9696 10.7641 20.2208 10.8667 20.5165 10.8667Z" fill="#9C99AF"/>
</svg>
