<svg width="20" height="18" viewBox="0 0 20 18" fill="none" xmlns="http://www.w3.org/2000/svg">
<path d="M19.5468 2.46194C19.2326 2.60659 18.9096 2.7287 18.5795 2.82786C18.9703 2.36903 19.2682 1.82917 19.4501 1.23841C19.4909 1.106 19.4486 0.961062 19.3438 0.874438C19.239 0.787773 19.0936 0.777391 18.9783 0.848321C18.2773 1.27994 17.5211 1.59014 16.7281 1.7715C15.9293 0.961184 14.8444 0.5 13.7229 0.5C11.3554 0.5 9.42939 2.49957 9.42939 4.95732C9.42939 5.15089 9.44119 5.3434 9.46455 5.53324C6.52681 5.26546 3.79564 3.76637 1.92017 1.37792C1.85334 1.2928 1.75037 1.24689 1.64494 1.25569C1.53947 1.26425 1.44466 1.32601 1.39138 1.42095C1.01099 2.09857 0.8099 2.8736 0.8099 3.66218C0.8099 4.73622 1.17924 5.75523 1.8317 6.55151C1.6333 6.48018 1.4408 6.39104 1.25705 6.28515C1.15842 6.22813 1.03802 6.22903 0.940017 6.28734C0.84197 6.3457 0.780485 6.45297 0.777868 6.57025C0.777399 6.59 0.777399 6.60975 0.777399 6.62978C0.777399 8.23294 1.60849 9.6763 2.87916 10.463C2.76998 10.4517 2.66091 10.4352 2.55252 10.4137C2.44076 10.3916 2.32588 10.4322 2.25052 10.5207C2.17506 10.6091 2.15006 10.7324 2.18486 10.8449C2.65517 12.3694 3.86607 13.4907 5.32994 13.8326C4.1158 14.6221 2.72736 15.0356 1.26982 15.0356C0.965681 15.0356 0.659821 15.0171 0.360485 14.9803C0.211775 14.9619 0.0695871 15.0531 0.0189231 15.1999C-0.031741 15.3468 0.02197 15.5106 0.148454 15.5948C2.02092 16.8412 4.18599 17.5 6.40955 17.5C10.7808 17.5 13.5153 15.36 15.0395 13.5647C16.9401 11.3262 18.0302 8.3632 18.0302 5.43558C18.0302 5.31327 18.0284 5.18978 18.0247 5.06666C18.7746 4.48012 19.4202 3.77026 19.9456 2.95439C20.0254 2.83049 20.0167 2.6667 19.9243 2.55266C19.832 2.43842 19.6781 2.40151 19.5468 2.46194Z" fill="white"/>
</svg>
