<svg width="173" height="129" viewBox="0 0 173 129" fill="none" xmlns="http://www.w3.org/2000/svg">
<g opacity="0.2">
<path d="M45 33.5H44.5V34V122V122.5H45H81.7043C86.4035 122.5 90.6466 121.951 94.4289 120.846C98.2134 119.74 101.424 118.077 104.048 115.847C106.748 113.62 108.813 110.874 110.242 107.617C111.752 104.352 112.5 100.622 112.5 96.4403C112.5 93.7555 112.185 91.2221 111.551 88.8422C110.913 86.445 109.835 84.284 108.318 82.3635C106.873 80.435 104.953 78.8366 102.573 77.5638C100.545 76.3746 98.1328 75.4688 95.3435 74.8393C98.1552 72.9114 100.286 70.6228 101.719 67.9689C103.401 64.919 104.227 61.1348 104.227 56.6419C104.227 49.23 102.098 43.4786 97.7748 39.4689C93.4554 35.463 87.1773 33.5 79.0243 33.5H45ZM72.8487 103.76H68.3383V86.0862H72.8487C78.58 86.0862 82.5809 86.8278 84.9444 88.2335C87.2565 89.6085 88.4287 91.8041 88.4287 94.9231C88.4287 98.0421 87.2565 100.238 84.9444 101.613C82.5809 103.018 78.58 103.76 72.8487 103.76ZM72.033 68.0464H68.3383V52.0066H72.033C75.5535 52.0066 78.1015 52.7083 79.7619 54.028C81.4005 55.3303 82.253 57.2981 82.253 60.0265C82.253 62.755 81.4005 64.7227 79.7619 66.025C78.1015 67.3447 75.5535 68.0464 72.033 68.0464Z" fill="#A57766" stroke="url(#paint0_linear_204_2538)"/>
<path d="M172 14.6353H172.5V14.1353V-7V-7.5H172H117H116.5V-7V89V89.5H117H141.954H142.454V89V51.813H169.326H169.826V51.313V30.1777V29.6777H169.326H142.454V14.6353H172Z" fill="#A57766" stroke="url(#paint1_linear_204_2538)"/>
</g>
<defs>
<linearGradient id="paint0_linear_204_2538" x1="78.5" y1="34" x2="78.5" y2="122" gradientUnits="userSpaceOnUse">
<stop stop-color="#F8D0C9"/>
<stop offset="1" stop-color="#956F68" stop-opacity="0"/>
</linearGradient>
<linearGradient id="paint1_linear_204_2538" x1="144.5" y1="-7" x2="144.5" y2="89" gradientUnits="userSpaceOnUse">
<stop stop-color="#F8D0C9"/>
<stop offset="1" stop-color="#956F68" stop-opacity="0"/>
</linearGradient>
</defs>
</svg>
