<svg width="173" height="129" viewBox="0 0 173 129" fill="none" xmlns="http://www.w3.org/2000/svg">
<g opacity="0.2">
<mask id="path-1-outside-1_2440_3482" maskUnits="userSpaceOnUse" x="36" y="40" width="74" height="74" fill="black">
<rect fill="white" x="36" y="40" width="74" height="74"/>
<path d="M88.5009 113L58.6303 78.4783V113H37.6485V41.8894H57.5967L87.4673 76.9279V41.8894H108.449V113H88.5009Z"/>
</mask>
<path d="M88.5009 113L58.6303 78.4783V113H37.6485V41.8894H57.5967L87.4673 76.9279V41.8894H108.449V113H88.5009Z" fill="#5A81FF"/>
<path d="M88.5009 113L87.7447 113.654L88.0438 114H88.5009V113ZM58.6303 78.4783L59.3865 77.824L57.6303 75.7943V78.4783H58.6303ZM58.6303 113V114H59.6303V113H58.6303ZM37.6485 113H36.6485V114H37.6485V113ZM37.6485 41.8894V40.8894H36.6485V41.8894H37.6485ZM57.5967 41.8894L58.3577 41.2407L58.0583 40.8894H57.5967V41.8894ZM87.4673 76.9279L86.7063 77.5767L88.4673 79.6423V76.9279H87.4673ZM87.4673 41.8894V40.8894H86.4673V41.8894H87.4673ZM108.449 41.8894H109.449V40.8894H108.449V41.8894ZM108.449 113V114H109.449V113H108.449ZM89.2571 112.346L59.3865 77.824L57.8741 79.1326L87.7447 113.654L89.2571 112.346ZM57.6303 78.4783V113H59.6303V78.4783H57.6303ZM58.6303 112H37.6485V114H58.6303V112ZM38.6485 113V41.8894H36.6485V113H38.6485ZM37.6485 42.8894H57.5967V40.8894H37.6485V42.8894ZM56.8357 42.5382L86.7063 77.5767L88.2283 76.2792L58.3577 41.2407L56.8357 42.5382ZM88.4673 76.9279V41.8894H86.4673V76.9279H88.4673ZM87.4673 42.8894H108.449V40.8894H87.4673V42.8894ZM107.449 41.8894V113H109.449V41.8894H107.449ZM108.449 112H88.5009V114H108.449V112Z" fill="url(#paint0_linear_2440_3482)" mask="url(#path-1-outside-1_2440_3482)"/>
<path d="M172 14.6353H172.5V14.1353V-7V-7.5H172H117H116.5V-7V89V89.5H117H141.954H142.454V89V51.813H169.326H169.826V51.313V30.1777V29.6777H169.326H142.454V14.6353H172Z" fill="#5A81FF" stroke="url(#paint1_linear_2440_3482)"/>
</g>
<defs>
<linearGradient id="paint0_linear_2440_3482" x1="73.5" y1="44" x2="73.5" y2="113" gradientUnits="userSpaceOnUse">
<stop stop-color="#5A80FF"/>
<stop offset="1" stop-color="#B4BDFF"/>
</linearGradient>
<linearGradient id="paint1_linear_2440_3482" x1="144.5" y1="-7" x2="144.5" y2="89" gradientUnits="userSpaceOnUse">
<stop stop-color="#5A80FF"/>
<stop offset="1" stop-color="#B4BDFF"/>
</linearGradient>
</defs>
</svg>
