<svg width="174" height="131" viewBox="0 0 174 131" fill="none" xmlns="http://www.w3.org/2000/svg">
<g opacity="0.2">
<path d="M111.077 125.926L112.022 125.779L111.362 125.087L95.3877 108.349C99.3498 103.967 102.376 98.9732 104.465 93.3709C106.695 87.6175 107.808 81.3977 107.808 74.716C107.808 67.5174 106.48 60.8237 103.821 54.6406C101.164 48.3797 97.4346 42.9299 92.6332 38.2956C87.9143 33.6589 82.2553 30.0563 75.6634 27.4854C69.0637 24.8265 61.8708 23.5 54.0903 23.5C46.2252 23.5 38.9894 24.8264 32.3888 27.4858C25.8804 30.0574 20.2638 33.6608 15.5454 38.2975C10.8292 42.932 7.14299 48.3813 4.48696 54.6409C1.82738 60.8239 0.5 67.5175 0.5 74.716C0.5 81.915 1.82756 88.6505 4.48647 94.9174L4.48745 94.9197C7.1438 101.095 10.8301 106.501 15.5454 111.135C20.2629 115.77 25.8782 119.416 32.3851 122.072L32.3851 122.072L32.3924 122.075C38.992 124.649 46.2265 125.932 54.0903 125.932C58.7929 125.932 63.2448 125.419 67.4443 124.39C71.5969 123.475 75.5106 122.196 79.1844 120.553L87.7246 129.348L87.9047 129.534L88.1603 129.494L111.077 125.926ZM80.7083 74.716C80.7083 80.0077 79.3254 84.6661 76.5674 88.7085L70.3681 82.1457L70.1942 81.9616L69.9429 81.9929L46.3896 84.9237L45.4077 85.0459L46.0886 85.764L59.7359 100.155C57.8529 100.532 55.9712 100.721 54.0903 100.721C50.5028 100.721 47.0863 100.095 43.8373 98.8456C40.6706 97.5101 37.882 95.6761 35.4678 93.3431C33.0539 91.0103 31.1381 88.2602 29.7204 85.0884C28.3084 81.9296 27.5995 78.4743 27.5995 74.716C27.5995 70.9577 28.3084 67.5025 29.7204 64.3436C31.1381 61.1718 33.0539 58.4217 35.4678 56.0889C37.8815 53.7564 40.669 51.9655 43.8342 50.715L43.8342 50.7151L43.8404 50.7125C47.0891 49.3785 50.5044 48.7112 54.0903 48.7112C57.6762 48.7112 61.0474 49.3785 64.2086 50.7108L64.2158 50.7138L64.2232 50.7166C67.4731 51.9677 70.3013 53.7585 72.7127 56.0889L72.7127 56.089L72.7189 56.0947C75.2157 58.4271 77.1714 61.1754 78.5875 64.3436C79.9995 67.5025 80.7083 70.9577 80.7083 74.716Z" fill="#AD7DFC" fill-opacity="0.2" stroke="url(#paint0_linear_204_1847)"/>
<path d="M173 14.6353H173.5V14.1353V-7V-7.5H173H118H117.5V-7V89V89.5H118H142.954H143.454V89V51.813H170.326H170.826V51.313V30.1777V29.6777H170.326H143.454V14.6353H173Z" fill="#AD7DFC" fill-opacity="0.2" stroke="url(#paint1_linear_204_1847)"/>
</g>
<defs>
<linearGradient id="paint0_linear_204_1847" x1="56" y1="24" x2="56" y2="129" gradientUnits="userSpaceOnUse">
<stop stop-color="#AD7DFC"/>
<stop offset="1" stop-color="#1C1D26"/>
</linearGradient>
<linearGradient id="paint1_linear_204_1847" x1="145.5" y1="-7" x2="145.5" y2="89" gradientUnits="userSpaceOnUse">
<stop stop-color="#AD7DFC"/>
<stop offset="1" stop-color="#1C1D26"/>
</linearGradient>
</defs>
</svg>
